<?xml version="1.0" encoding="UTF-8" standalone="no"?>
<!DOCTYPE svg PUBLIC "-//W3C//DTD SVG 1.1//EN" "http://www.w3.org/Graphics/SVG/1.1/DTD/svg11.dtd">
<svg xmlns="http://www.w3.org/2000/svg" version="1.1" viewBox="0.00 0.00 1448.00 1448.00">
<g stroke-width="2.00" fill="none" stroke-linecap="butt">
<path stroke="#bc8ee9" vector-effect="non-scaling-stroke" d="
  M 474.94 1145.13
  Q 446.96 1149.52 420.83 1155.61
  Q 399.26 1160.63 385.07 1167.06
  C 334.04 1190.18 400.30 1208.87 416.18 1212.83
  C 445.28 1220.08 475.92 1224.86 504.75 1228.24
  Q 561.28 1234.88 621.00 1237.53
  Q 729.98 1242.36 838.94 1237.11
  C 897.41 1234.29 956.20 1229.05 1013.72 1217.87
  C 1022.96 1216.08 1102.71 1200.36 1083.11 1177.88
  C 1076.73 1170.57 1065.80 1166.00 1056.55 1162.86
  C 1037.76 1156.47 1018.20 1152.31 998.66 1148.69"
/>
<path stroke="#684fb4" vector-effect="non-scaling-stroke" d="
  M 998.66 1148.69
  C 1008.27 1128.79 1013.45 1105.99 1009.27 1084.00
  C 1005.81 1065.79 992.73 1048.44 972.17 1050.32
  C 962.24 1051.22 952.08 1056.79 944.37 1063.52
  A 0.31 0.31 0.0 0 1 943.86 1063.25
  L 949.07 1012.24
  A 1.00 0.98 -3.3 0 1 949.86 1011.37
  C 979.02 1005.42 1001.72 983.19 1007.64 954.14
  C 1018.52 900.71 972.16 837.88 936.23 803.13
  Q 935.84 802.74 936.27 802.40
  C 987.14 762.26 1010.04 705.23 1011.73 641.50
  Q 1013.36 580.46 992.45 524.41
  Q 992.27 523.95 992.61 523.58
  C 1029.59 483.58 1054.74 431.26 1032.22 377.36
  C 1021.46 351.61 999.45 330.65 974.28 319.21
  C 920.80 294.89 862.69 309.24 823.82 351.98
  A 0.93 0.92 30.6 0 1 822.83 352.23
  L 812.54 348.59
  Q 812.00 348.40 811.89 347.83
  C 809.51 334.66 799.73 326.89 786.83 326.13
  C 779.95 325.73 773.89 327.71 767.64 330.53
  Q 767.17 330.74 767.10 330.23
  C 763.50 303.41 735.21 293.68 713.96 307.98
  Q 699.54 317.68 692.52 335.29
  A 0.97 0.96 -81.7 0 1 691.73 335.89
  Q 634.75 342.58 584.92 370.84
  Q 584.44 371.11 584.04 370.72
  C 561.34 348.84 531.05 332.54 499.99 331.21
  C 438.34 328.59 386.59 378.72 382.43 439.95
  C 379.16 488.00 406.56 529.53 443.73 557.49
  Q 444.15 557.80 444.03 558.30
  C 433.48 601.63 431.78 647.79 441.46 691.54
  C 453.96 748.06 488.45 793.18 539.37 821.23
  A 0.65 0.65 0.0 0 1 539.66 822.03
  C 521.55 868.20 506.69 913.76 499.25 962.99
  C 493.28 1002.44 493.02 1042.70 504.31 1081.28
  Q 504.49 1081.91 503.87 1081.70
  Q 498.37 1079.80 492.83 1078.21
  C 472.38 1072.32 450.37 1080.73 449.43 1104.60
  C 448.77 1121.22 460.85 1136.36 474.94 1145.13"
/>
<path stroke="#543fa7" vector-effect="non-scaling-stroke" d="
  M 998.66 1148.69
  C 983.62 1178.73 953.01 1202.50 918.86 1182.79
  A 0.88 0.87 -49.4 0 0 917.87 1182.87
  C 904.92 1193.19 893.76 1193.45 875.75 1193.47
  Q 734.28 1193.59 687.81 1193.47
  C 681.11 1193.45 674.26 1191.44 667.77 1191.06
  C 655.16 1190.32 642.50 1187.93 629.94 1187.74
  Q 609.62 1187.43 592.37 1176.99
  Q 587.76 1174.20 583.95 1172.47
  Q 567.08 1164.81 552.29 1153.39
  Q 551.89 1153.07 551.39 1153.18
  Q 531.85 1157.17 513.08 1156.10
  Q 492.07 1154.91 474.94 1145.13"
/>
<path stroke="#5959a3" vector-effect="non-scaling-stroke" d="
  M 572.80 813.43
  Q 587.72 781.49 609.58 753.25"
/>
<path stroke="#8080b9" vector-effect="non-scaling-stroke" d="
  M 609.58 753.25
  C 623.45 735.92 640.83 720.23 661.92 712.83
  A 0.76 0.75 -8.4 0 0 662.42 712.17
  C 664.72 681.59 690.88 659.16 721.55 665.05
  C 726.39 665.98 731.85 668.38 736.98 670.04
  C 752.78 675.12 774.34 676.20 789.51 668.27
  C 837.62 643.09 882.96 693.24 860.10 739.84
  Q 844.66 771.29 811.08 784.01"
/>
<path stroke="#5959a3" vector-effect="non-scaling-stroke" d="
  M 811.08 784.01
  C 786.21 793.09 757.12 793.75 731.28 790.64
  Q 730.83 790.58 730.80 791.04
  Q 729.53 808.46 725.01 825.33
  A 0.43 0.43 0.0 0 0 725.52 825.86
  Q 735.94 823.57 745.17 828.62
  Q 745.63 828.88 746.04 828.54
  Q 764.27 813.14 788.83 814.94
  Q 811.31 816.58 825.86 830.87"
/>
<path stroke="#8080b9" vector-effect="non-scaling-stroke" d="
  M 825.86 830.87
  L 830.33 836.01
  Q 830.68 836.41 831.19 836.28
  C 919.13 814.90 985.93 759.72 996.48 665.25
  C 1011.32 532.46 935.91 406.70 809.43 361.85
  Q 809.02 361.71 808.76 362.05
  L 804.00 368.37
  A 0.49 0.49 0.0 0 0 804.13 369.08
  C 814.80 375.70 822.92 386.82 818.60 400.02
  Q 816.50 406.45 810.93 410.22
  C 798.20 418.84 783.19 412.59 773.40 402.47
  Q 770.49 399.46 769.92 397.03
  C 768.37 390.54 776.58 386.95 781.69 391.65
  C 785.46 395.12 788.13 398.13 793.43 400.05
  C 798.63 401.93 804.64 400.30 806.09 394.57
  C 808.09 386.64 796.95 379.69 790.44 377.60
  Q 789.98 377.45 789.54 377.64
  Q 780.64 381.26 774.18 382.18
  C 766.42 383.30 763.27 371.15 773.40 368.65
  C 781.69 366.61 793.36 362.75 797.24 354.22
  Q 800.47 347.10 793.86 342.25
  C 785.50 336.10 772.51 342.03 765.63 347.90
  C 760.68 352.12 759.20 362.72 752.96 365.22
  C 746.53 367.80 741.70 360.31 745.62 354.51
  C 752.41 344.45 759.04 327.98 746.64 318.76
  C 740.39 314.11 732.49 314.26 725.36 317.33
  C 708.82 324.45 701.54 345.47 698.58 361.83
  C 696.38 374.01 683.05 370.27 685.11 360.54
  C 685.81 357.27 686.31 353.96 687.19 350.83
  A 0.62 0.62 0.0 0 0 686.50 350.05
  C 549.41 371.23 453.44 486.85 448.80 623.75
  C 445.74 713.78 484.49 784.37 568.60 820.65
  Q 569.11 820.87 569.35 820.38
  L 572.80 813.43"
/>
<path stroke="#d9d9ea" vector-effect="non-scaling-stroke" d="
  M 825.86 830.87
  Q 869.54 820.15 904.76 798.28
  Q 936.37 778.65 958.64 748.88
  Q 960.46 746.46 962.03 743.75
  Q 962.44 743.04 961.73 743.44
  C 916.94 768.80 867.54 780.14 816.00 783.97
  Q 812.42 784.24 811.08 784.01"
/>
<path stroke="#d9d9ea" vector-effect="non-scaling-stroke" d="
  M 609.58 753.25
  Q 600.98 748.75 592.74 744.01
  C 538.24 712.63 504.36 660.66 497.09 598.18
  Q 488.58 525.09 514.22 456.60
  A 0.29 0.29 0.0 0 0 513.71 456.33
  Q 455.62 539.05 458.28 640.51
  C 459.50 687.24 474.14 740.54 509.80 773.22
  Q 537.00 798.15 572.80 813.43"
/>
<path stroke="#302a77" vector-effect="non-scaling-stroke" d="
  M 843.72 361.15
  Q 897.69 387.29 937.41 432.37"
/>
<path stroke="#221e75" vector-effect="non-scaling-stroke" d="
  M 937.41 432.37
  Q 965.31 464.42 983.47 503.09"
/>
<path stroke="#302a77" vector-effect="non-scaling-stroke" d="
  M 983.47 503.09
  L 986.37 509.29
  Q 986.58 509.73 986.91 509.37
  C 1015.47 478.24 1037.02 433.29 1022.82 391.07"
/>
<path stroke="#5c599c" vector-effect="non-scaling-stroke" d="
  M 1022.82 391.07
  Q 1014.39 365.09 993.80 347.70
  C 946.48 307.74 879.84 313.80 837.19 357.63
  Q 836.85 357.98 837.29 358.18
  L 843.72 361.15"
/>
<path stroke="#8c83a1" vector-effect="non-scaling-stroke" d="
  M 1022.82 391.07
  Q 1012.17 373.60 999.96 362.78
  C 955.26 323.19 889.72 323.55 843.72 361.15"
/>
<path stroke="#52487a" vector-effect="non-scaling-stroke" d="
  M 983.47 503.09
  Q 1013.51 470.26 1019.89 425.29
  A 0.48 0.48 0.0 0 0 1019.04 424.91
  C 998.38 449.25 965.77 443.82 939.97 432.47
  Q 939.06 432.07 937.41 432.37"
/>
<path stroke="#302a77" vector-effect="non-scaling-stroke" d="
  M 403.68 408.19
  C 382.31 459.56 405.88 511.08 447.57 543.18
  Q 448.01 543.52 448.18 542.98
  L 450.23 536.61"
/>
<path stroke="#221e75" vector-effect="non-scaling-stroke" d="
  M 450.23 536.61
  Q 461.03 504.44 477.59 476.60"
/>
<path stroke="#302a77" vector-effect="non-scaling-stroke" d="
  M 477.59 476.60
  Q 511.91 419.16 567.36 381.57"
/>
<path stroke="#5c599c" vector-effect="non-scaling-stroke" d="
  M 567.36 381.57
  L 571.80 378.64
  Q 572.22 378.36 571.85 378.02
  C 543.10 350.57 501.72 335.74 463.06 350.26
  Q 421.62 365.82 403.68 408.19"
/>
<path stroke="#8c83a1" vector-effect="non-scaling-stroke" d="
  M 567.36 381.57
  C 527.88 349.55 472.76 343.14 431.28 376.81
  Q 415.93 389.27 403.68 408.19"
/>
<path stroke="#52487a" vector-effect="non-scaling-stroke" d="
  M 477.59 476.60
  C 476.70 476.32 476.07 476.09 475.14 476.41
  C 432.87 491.41 410.98 455.89 404.28 420.76
  A 0.60 0.60 0.0 0 0 403.09 420.80
  Q 402.44 425.93 401.97 431.31
  C 399.34 461.08 409.55 489.55 427.37 512.65
  Q 437.10 525.26 450.23 536.61"
/>
<path stroke="#5b4f7b" vector-effect="non-scaling-stroke" d="
  M 722.96 740.13
  Q 724.00 744.64 727.24 745.91
  A 1.23 1.17 0.6 0 1 727.90 746.55
  C 737.56 769.17 768.74 751.50 754.97 732.09"
/>
<path stroke="#80707b" vector-effect="non-scaling-stroke" d="
  M 754.97 732.09
  C 751.64 728.17 744.55 726.21 749.63 719.49
  C 757.21 709.47 749.56 694.74 736.82 697.06
  Q 726.65 698.91 725.22 710.02
  C 724.91 712.43 722.54 713.88 720.01 713.91
  Q 713.01 714.01 707.86 719.07
  Q 707.50 719.43 707.87 719.77
  Q 717.46 728.55 722.96 740.13"
/>
<path stroke="#dabf83" vector-effect="non-scaling-stroke" d="
  M 754.97 732.09
  C 755.40 741.20 750.10 759.93 736.72 751.22
  C 732.58 748.53 730.22 744.30 728.44 739.70
  Q 728.24 739.20 727.72 739.29
  L 722.96 740.13"
/>
<path stroke="#302a77" vector-effect="non-scaling-stroke" d="
  M 615.92 767.75
  C 600.30 788.94 588.62 811.71 577.41 836.14
  C 573.72 844.17 563.41 842.54 563.80 833.85
  Q 563.82 833.41 563.41 833.22
  L 552.66 828.31
  A 0.47 0.46 -66.1 0 0 552.03 828.56
  Q 532.08 876.79 519.98 927.88"
/>
<path stroke="#8080b9" vector-effect="non-scaling-stroke" d="
  M 519.98 927.88
  Q 511.39 964.32 509.25 1002.00
  Q 509.10 1004.72 509.35 1007.77"
/>
<path stroke="#5959a3" vector-effect="non-scaling-stroke" d="
  M 509.35 1007.77
  C 506.89 1061.99 521.94 1114.94 567.79 1147.76
  A 0.42 0.42 0.0 0 0 568.42 1147.27
  C 559.01 1123.17 559.80 1093.87 566.72 1069.37"
/>
<path stroke="#8080b9" vector-effect="non-scaling-stroke" d="
  M 566.72 1069.37
  C 575.33 1045.44 600.38 1019.40 628.05 1035.90
  Q 628.63 1036.25 628.56 1035.58
  L 621.18 963.69"
/>
<path stroke="#302a77" vector-effect="non-scaling-stroke" d="
  M 621.18 963.69
  C 619.21 945.89 615.87 930.01 634.03 919.82
  Q 634.47 919.57 634.25 919.12
  Q 632.95 916.57 631.79 914.04
  C 617.57 883.07 642.20 849.01 676.93 860.32
  Q 677.43 860.48 677.71 860.03
  Q 685.92 846.33 702.15 846.40
  Q 702.68 846.40 702.92 845.94
  C 709.61 833.11 713.32 817.96 715.53 802.84"
/>
<path stroke="#5c599c" vector-effect="non-scaling-stroke" d="
  M 715.53 802.84
  Q 719.23 781.42 715.09 760.44
  C 710.50 737.17 694.97 718.43 668.85 724.97
  C 648.32 730.12 628.40 750.22 615.92 767.75"
/>
<path stroke="#8c83a1" vector-effect="non-scaling-stroke" d="
  M 715.53 802.84
  C 714.58 779.98 709.07 751.07 685.03 740.97
  C 669.57 734.47 650.80 740.27 637.38 749.63
  Q 626.11 757.49 615.92 767.75"
/>
<path stroke="#b0aabe" vector-effect="non-scaling-stroke" d="
  M 621.18 963.69
  Q 567.72 953.62 519.98 927.88"
/>
<path stroke="#d9d9ea" vector-effect="non-scaling-stroke" d="
  M 566.72 1069.37
  Q 547.60 1057.80 533.49 1041.76
  Q 520.68 1027.19 509.35 1007.77"
/>
<path stroke="#80165f" vector-effect="non-scaling-stroke" d="
  M 764.55 726.37
  C 778.91 750.44 757.09 775.63 731.36 765.73
  A 0.60 0.59 88.6 0 1 731.02 765.40
  Q 730.87 765.03 730.56 765.02
  Q 729.95 764.99 730.00 765.60
  L 730.87 776.37
  Q 730.92 776.89 731.43 776.90
  C 736.26 777.06 741.52 778.04 745.70 778.26
  Q 761.96 779.11 778.17 777.74
  C 782.46 777.38 787.33 775.90 792.07 775.48
  C 794.87 775.24 797.09 774.23 799.73 773.47
  Q 816.83 768.55 830.37 757.19
  A 1.29 1.28 57.2 0 0 830.70 755.65
  C 820.18 733.97 786.23 726.82 764.83 725.90
  Q 764.25 725.87 764.55 726.37"
/>
<path stroke="#5c599c" vector-effect="non-scaling-stroke" d="
  M 971.55 986.87
  C 1031.82 940.99 964.00 848.55 927.20 813.70"
/>
<path stroke="#302a77" vector-effect="non-scaling-stroke" d="
  M 927.20 813.70
  L 924.84 811.56
  Q 924.37 811.13 923.83 811.48
  Q 896.12 829.78 864.63 840.41
  A 0.36 0.36 0.0 0 0 864.57 841.06
  Q 873.00 845.76 876.07 854.98
  Q 876.25 855.54 876.82 855.42
  C 903.60 849.99 929.44 865.34 936.43 891.73
  A 0.55 0.55 0.0 0 0 937.24 892.07
  C 940.22 890.27 946.03 887.30 949.19 890.07
  C 953.50 893.85 953.24 899.33 948.08 901.91
  C 929.43 911.20 911.73 922.81 901.00 941.23
  C 886.61 965.94 893.53 990.48 922.11 997.21
  Q 948.67 1003.47 971.55 986.87"
/>
<path stroke="#8c83a1" vector-effect="non-scaling-stroke" d="
  M 927.20 813.70
  C 925.33 820.08 926.85 824.47 931.19 829.74
  C 955.97 859.86 978.61 891.66 984.99 931.24
  Q 989.96 961.97 971.55 986.87"
/>
<path stroke="#80707b" vector-effect="non-scaling-stroke" d="
  M 757.23 840.62
  C 758.75 843.40 760.40 846.18 759.78 849.29
  C 758.51 855.63 750.03 856.54 746.84 850.76"
/>
<path stroke="#7f7aa3" vector-effect="non-scaling-stroke" d="
  M 746.84 850.76
  C 739.72 833.63 721.56 836.25 715.47 852.17
  Q 715.29 852.64 715.62 853.01
  C 718.52 856.35 722.59 862.63 720.99 867.15
  C 719.56 871.20 713.98 872.93 710.50 870.31
  C 708.54 868.84 707.58 865.89 706.42 863.60
  C 704.87 860.56 700.52 859.80 697.34 860.69
  Q 690.90 862.49 688.87 869.59"
/>
<path stroke="#80707b" vector-effect="non-scaling-stroke" d="
  M 688.87 869.59
  Q 689.16 877.71 681.81 878.63"
/>
<path stroke="#7f7aa3" vector-effect="non-scaling-stroke" d="
  M 681.81 878.63
  C 677.84 877.70 675.27 875.23 672.82 873.95
  C 662.03 868.30 649.50 873.65 644.03 884.22"
/>
<path stroke="#80707b" vector-effect="non-scaling-stroke" d="
  M 644.03 884.22
  C 638.55 895.29 641.85 907.24 649.32 916.42
  Q 649.64 916.81 650.15 916.81
  L 718.25 916.75"
/>
<path stroke="#776d99" vector-effect="non-scaling-stroke" d="
  M 718.25 916.75
  L 805.00 916.75"
/>
<path stroke="#80707b" vector-effect="non-scaling-stroke" d="
  M 805.00 916.75
  L 901.68 916.84
  Q 902.21 916.84 902.60 916.47
  Q 912.25 907.10 923.46 899.69
  Q 923.91 899.40 923.83 898.86
  Q 922.77 891.49 918.91 885.16"
/>
<path stroke="#7f7aa3" vector-effect="non-scaling-stroke" d="
  M 918.91 885.16
  C 910.06 871.88 894.02 865.06 878.31 869.30
  Q 877.75 869.45 877.67 870.03
  L 877.06 874.60"
/>
<path stroke="#80707b" vector-effect="non-scaling-stroke" d="
  M 877.06 874.60
  C 874.42 884.11 862.01 881.35 863.61 871.77
  Q 864.54 866.14 863.36 860.40"
/>
<path stroke="#7f7aa3" vector-effect="non-scaling-stroke" d="
  M 863.36 860.40
  C 859.30 846.36 842.62 852.58 834.97 859.50
  Q 833.98 860.40 830.77 860.11"
/>
<path stroke="#80707b" vector-effect="non-scaling-stroke" d="
  M 830.77 860.11
  Q 826.92 859.58 825.56 856.44
  Q 822.25 848.75 821.17 846.89"
/>
<path stroke="#7f7aa3" vector-effect="non-scaling-stroke" d="
  M 821.17 846.89
  C 807.60 826.66 774.71 821.75 756.28 838.13
  A 0.63 0.62 -36.6 0 0 756.16 838.93
  L 757.23 840.62"
/>
<path stroke="#ffeaab" vector-effect="non-scaling-stroke" d="
  M 821.17 846.89
  Q 821.07 847.48 820.23 847.35
  Q 819.80 847.28 819.41 846.87
  Q 812.34 839.49 803.05 836.46
  Q 779.23 828.68 757.23 840.62"
/>
<path stroke="#ffeaab" vector-effect="non-scaling-stroke" d="
  M 830.77 860.11
  Q 829.19 861.74 831.88 864.09
  Q 832.27 864.44 832.70 864.14
  C 840.53 858.70 848.88 855.31 858.39 857.96
  Q 861.19 858.75 862.26 861.28
  A 0.50 0.49 -50.9 0 0 863.20 861.18
  L 863.36 860.40"
/>
<path stroke="#ffeaab" vector-effect="non-scaling-stroke" d="
  M 877.06 874.60
  Q 894.19 870.09 909.39 878.86
  Q 913.40 881.17 916.96 885.38
  A 1.06 1.06 0.0 0 0 917.76 885.77
  Q 918.80 885.81 918.91 885.16"
/>
<path stroke="#f6dda1" vector-effect="non-scaling-stroke" d="
  M 805.00 916.75
  Q 805.41 915.26 803.69 915.26
  Q 762.39 915.24 721.08 915.25
  C 719.72 915.25 719.08 915.79 718.25 916.75"
/>
<path stroke="#ffeaab" vector-effect="non-scaling-stroke" d="
  M 644.03 884.22
  Q 646.29 884.27 647.53 882.08
  A 2.01 1.98 89.6 0 1 648.24 881.35
  Q 665.30 871.11 680.95 882.93
  A 0.38 0.38 0.0 0 0 681.55 882.73
  L 682.46 879.49
  Q 682.58 879.07 682.20 878.85
  L 681.81 878.63"
/>
<path stroke="#ffeaab" vector-effect="non-scaling-stroke" d="
  M 688.87 869.59
  Q 697.51 862.66 706.25 866.64
  A 1.29 1.26 1.5 0 1 706.90 867.31
  C 710.32 875.55 720.81 874.27 722.60 866.15
  C 723.44 862.30 720.35 857.30 718.43 853.81
  Q 718.25 853.49 717.38 853.06
  Q 716.96 852.84 716.81 852.40
  Q 716.50 851.48 717.14 851.13
  Q 717.50 850.94 717.68 850.57
  Q 719.06 847.82 722.69 846.19
  Q 734.43 840.93 743.95 848.27
  Q 744.52 848.72 745.05 850.20
  Q 745.23 850.70 745.72 850.91
  Q 746.40 851.19 746.84 850.76"
/>
<path stroke="#80165f" vector-effect="non-scaling-stroke" d="
  M 633.20 943.32
  Q 634.06 956.75 635.52 970.28
  Q 637.44 987.98 639.34 1005.68
  C 643.77 1046.85 647.84 1088.06 652.09 1129.24"
/>
<path stroke="#5a1065" vector-effect="non-scaling-stroke" d="
  M 652.09 1129.24
  Q 652.81 1141.50 654.97 1153.54
  C 657.16 1165.79 666.22 1175.16 677.87 1178.35
  Q 683.06 1179.76 697.75 1179.76
  Q 742.64 1179.75 787.54 1179.74
  Q 799.04 1179.73 803.68 1178.19
  C 823.46 1171.61 823.87 1154.16 825.39 1136.74"
/>
<path stroke="#80165f" vector-effect="non-scaling-stroke" d="
  M 825.39 1136.74
  L 844.82 944.65"
/>
<path stroke="#7f5092" vector-effect="non-scaling-stroke" d="
  M 844.82 944.65
  C 842.92 934.52 836.35 930.73 826.66 930.68
  Q 743.61 930.27 660.56 930.64
  C 649.83 930.69 634.50 928.06 633.20 943.32"
/>
<path stroke="#ff667f" vector-effect="non-scaling-stroke" d="
  M 844.82 944.65
  Q 837.14 938.48 828.25 938.48
  Q 737.75 938.49 647.25 938.50
  Q 639.51 938.50 633.20 943.32"
/>
<path stroke="#d92652" vector-effect="non-scaling-stroke" d="
  M 825.39 1136.74
  C 822.24 1150.79 805.65 1157.51 792.74 1157.16
  Q 792.56 1157.16 792.50 1156.99
  Q 792.46 1156.88 792.41 1156.75"
/>
<path stroke="#ff96a6" vector-effect="non-scaling-stroke" d="
  M 792.41 1156.75
  L 803.50 960.01
  A 4.04 4.03 1.6 0 0 799.47 955.75
  L 764.75 955.75
  Q 760.26 955.75 760.26 960.24
  L 760.26 1156.75"
/>
<path stroke="#d92652" vector-effect="non-scaling-stroke" d="
  M 760.26 1156.75
  Q 760.12 1157.25 759.75 1157.25
  Q 740.78 1157.25 721.81 1157.25
  C 720.67 1157.25 719.67 1156.89 718.67 1156.49"
/>
<path stroke="#ff96a6" vector-effect="non-scaling-stroke" d="
  M 718.67 1156.49
  Q 718.94 1063.82 718.55 971.12
  C 718.54 968.08 720.32 955.80 715.18 955.78
  Q 697.68 955.71 680.17 955.77
  C 673.81 955.79 675.39 962.02 675.62 966.18
  Q 681.02 1061.34 686.31 1156.49"
/>
<path stroke="#d92652" vector-effect="non-scaling-stroke" d="
  M 686.31 1156.49
  Q 685.95 1156.58 685.80 1156.84
  Q 685.58 1157.21 685.16 1157.18
  Q 668.12 1155.90 656.76 1143.24
  C 653.18 1139.25 654.79 1134.05 652.09 1129.24"
/>
<path stroke="#d990ab" vector-effect="non-scaling-stroke" d="
  M 718.67 1156.49
  Q 718.37 1156.74 718.52 1157.36"
/>
<path stroke="#dbd8e8" vector-effect="non-scaling-stroke" d="
  M 718.52 1157.36
  L 686.49 1157.28"
/>
<path stroke="#d990ab" vector-effect="non-scaling-stroke" d="
  M 686.49 1157.28
  Q 686.50 1156.92 686.31 1156.49"
/>
<path stroke="#b56894" vector-effect="non-scaling-stroke" d="
  M 686.49 1157.28
  C 686.52 1160.22 688.44 1161.46 691.30 1161.48
  Q 702.35 1161.54 713.43 1161.48
  C 716.51 1161.47 718.25 1160.53 718.52 1157.36"
/>
<path stroke="#b56894" vector-effect="non-scaling-stroke" d="
  M 760.46 1157.36
  C 760.57 1160.13 762.19 1161.47 764.99 1161.48
  Q 776.23 1161.54 787.48 1161.47
  C 790.36 1161.45 792.02 1160.25 792.25 1157.39"
/>
<path stroke="#d990ab" vector-effect="non-scaling-stroke" d="
  M 792.41 1156.75
  Q 792.17 1156.90 792.25 1157.39"
/>
<path stroke="#dbd8e8" vector-effect="non-scaling-stroke" d="
  M 792.25 1157.39
  L 760.46 1157.36"
/>
<path stroke="#d990ab" vector-effect="non-scaling-stroke" d="
  M 760.46 1157.36
  Q 760.63 1156.80 760.26 1156.75"
/>
<path stroke="#80165f" vector-effect="non-scaling-stroke" d="
  M 857.76 938.62
  Q 859.05 944.38 858.31 951.56
  Q 847.75 1053.90 837.27 1156.27"
/>
<path stroke="#5a1065" vector-effect="non-scaling-stroke" d="
  M 837.27 1156.27
  Q 835.18 1169.10 826.74 1179.22
  Q 826.31 1179.73 826.98 1179.74
  Q 853.73 1179.77 880.49 1179.78
  Q 892.10 1179.78 897.38 1178.29
  Q 911.86 1174.22 918.13 1160.37
  C 921.67 1152.56 922.07 1141.63 922.76 1132.54"
/>
<path stroke="#80165f" vector-effect="non-scaling-stroke" d="
  M 922.76 1132.54
  L 930.79 1053.51"
/>
<path stroke="#302a77" vector-effect="non-scaling-stroke" d="
  M 930.79 1053.51
  L 931.81 1046.45"
/>
<path stroke="#80165f" vector-effect="non-scaling-stroke" d="
  M 931.81 1046.45
  L 934.94 1013.32
  Q 934.99 1012.81 934.47 1012.79
  Q 921.09 1012.36 908.71 1007.54
  Q 908.31 1007.38 907.70 1007.76"
/>
<path stroke="#8080b9" vector-effect="non-scaling-stroke" d="
  M 907.70 1007.76
  Q 907.89 1007.13 907.19 1006.81
  Q 882.92 995.65 880.04 969.58"
/>
<path stroke="#80165f" vector-effect="non-scaling-stroke" d="
  M 880.04 969.58
  Q 879.13 953.30 886.69 938.61"
/>
<path stroke="#7f5092" vector-effect="non-scaling-stroke" d="
  M 886.69 938.61
  L 890.88 931.21
  A 0.43 0.43 0.0 0 0 890.51 930.57
  L 855.03 930.59
  Q 854.32 930.59 854.60 931.24
  L 857.76 938.62"
/>
<path stroke="#ff667f" vector-effect="non-scaling-stroke" d="
  M 886.69 938.61
  L 857.76 938.62"
/>
<path stroke="#ff96a6" vector-effect="non-scaling-stroke" d="
  M 880.04 969.58
  L 859.19 1156.84"
/>
<path stroke="#d92652" vector-effect="non-scaling-stroke" d="
  M 859.19 1156.84
  L 837.60 1156.82
  Q 837.35 1156.82 837.27 1156.59
  Q 837.21 1156.44 837.27 1156.27"
/>
<path stroke="#ff96a6" vector-effect="non-scaling-stroke" d="
  M 907.70 1007.76
  L 888.80 1157.05"
/>
<path stroke="#d990ab" vector-effect="non-scaling-stroke" d="
  M 888.80 1157.05
  Q 888.76 1157.10 888.72 1157.15"
/>
<path stroke="#dbd8e8" vector-effect="non-scaling-stroke" d="
  M 888.72 1157.15
  L 859.22 1157.12"
/>
<path stroke="#d990ab" vector-effect="non-scaling-stroke" d="
  M 859.22 1157.12
  Q 859.30 1157.02 859.19 1156.84"
/>
<path stroke="#b56894" vector-effect="non-scaling-stroke" d="
  M 859.22 1157.12
  C 859.31 1160.35 861.31 1161.45 864.40 1161.47
  Q 873.86 1161.54 883.34 1161.48
  C 886.57 1161.46 888.39 1160.44 888.72 1157.15"
/>
<path stroke="#b04064" vector-effect="non-scaling-stroke" d="
  M 931.81 1046.45
  Q 930.48 1049.98 930.79 1053.51"
/>
<path stroke="#d92652" vector-effect="non-scaling-stroke" d="
  M 922.76 1132.54
  L 921.99 1137.52
  Q 921.92 1137.98 921.58 1138.29
  C 920.57 1139.19 920.29 1140.71 919.59 1141.59
  Q 907.95 1156.17 888.80 1157.05"
/>
<path stroke="#302a77" vector-effect="non-scaling-stroke" d="
  M 577.65 1082.68
  Q 573.32 1105.53 576.95 1127.21"
/>
<path stroke="#221e75" vector-effect="non-scaling-stroke" d="
  M 576.95 1127.21
  C 583.04 1161.35 606.46 1175.83 640.32 1173.83
  Q 643.87 1173.62 646.68 1171.87
  Q 647.15 1171.58 646.89 1171.10
  Q 641.05 1160.52 640.04 1147.50
  Q 639.46 1139.97 637.00 1118.56"
/>
<path stroke="#302a77" vector-effect="non-scaling-stroke" d="
  M 637.00 1118.56
  Q 634.53 1091.88 631.42 1064.23
  C 631.05 1060.97 631.35 1058.17 629.19 1055.56"
/>
<path stroke="#5c599c" vector-effect="non-scaling-stroke" d="
  M 629.19 1055.56
  C 605.97 1026.93 581.57 1060.66 577.65 1082.68"
/>
<path stroke="#8c83a1" vector-effect="non-scaling-stroke" d="
  M 629.19 1055.56
  C 626.83 1054.73 624.40 1053.33 622.46 1052.68
  C 601.29 1045.59 585.25 1066.33 577.65 1082.68"
/>
<path stroke="#52487a" vector-effect="non-scaling-stroke" d="
  M 637.00 1118.56
  Q 632.11 1124.57 627.71 1129.96
  C 612.31 1148.78 592.80 1139.60 576.95 1127.21"
/>
<path stroke="#302a77" vector-effect="non-scaling-stroke" d="
  M 945.39 1081.79
  Q 943.91 1082.48 942.55 1084.44
  Q 941.59 1085.83 941.36 1087.96
  Q 938.41 1115.16 935.74 1142.13"
/>
<path stroke="#221e75" vector-effect="non-scaling-stroke" d="
  M 935.74 1142.13
  C 934.82 1154.39 933.30 1162.28 928.03 1171.52
  A 0.53 0.52 27.2 0 0 928.27 1172.26
  C 960.35 1186.83 984.01 1154.89 991.67 1128.42"
/>
<path stroke="#302a77" vector-effect="non-scaling-stroke" d="
  M 991.67 1128.42
  Q 996.35 1116.68 996.67 1102.57"
/>
<path stroke="#5c599c" vector-effect="non-scaling-stroke" d="
  M 996.67 1102.57
  C 998.60 1078.86 985.49 1050.67 956.86 1071.12
  Q 950.12 1075.93 945.39 1081.79"
/>
<path stroke="#8c83a1" vector-effect="non-scaling-stroke" d="
  M 996.67 1102.57
  Q 995.75 1099.12 994.88 1095.80
  C 991.59 1083.31 981.11 1071.25 967.00 1072.75
  Q 956.56 1073.86 945.39 1081.79"
/>
<path stroke="#52487a" vector-effect="non-scaling-stroke" d="
  M 991.67 1128.42
  Q 981.80 1138.98 970.07 1143.81
  C 957.96 1148.80 947.41 1146.91 935.74 1142.13"
/>
<path stroke="#302a77" vector-effect="non-scaling-stroke" d="
  M 463.26 1103.34
  Q 462.98 1107.85 464.01 1111.27"
/>
<path stroke="#221e75" vector-effect="non-scaling-stroke" d="
  M 464.01 1111.27
  C 474.28 1140.96 512.40 1145.13 538.35 1141.38
  A 0.24 0.23 -25.8 0 0 538.49 1140.99
  Q 523.40 1124.88 513.18 1104.39"
/>
<path stroke="#302a77" vector-effect="non-scaling-stroke" d="
  M 513.18 1104.39
  L 512.42 1102.14"
/>
<path stroke="#5c599c" vector-effect="non-scaling-stroke" d="
  M 512.42 1102.14
  Q 506.77 1098.08 498.77 1094.71
  C 487.86 1090.11 465.26 1085.03 463.26 1103.34"
/>
<path stroke="#8c83a1" vector-effect="non-scaling-stroke" d="
  M 512.42 1102.14
  Q 509.28 1101.29 505.16 1099.38
  C 491.56 1093.06 474.32 1090.66 463.26 1103.34"
/>
<path stroke="#52487a" vector-effect="non-scaling-stroke" d="
  M 513.18 1104.39
  C 510.35 1137.51 479.78 1122.57 464.01 1111.27"
/>
<path stroke="#b0aabe" vector-effect="non-scaling-stroke" d="
  M 573.70 664.61
  Q 597.35 681.45 627.21 675.69
  C 642.50 672.74 649.59 662.28 652.32 647.91
  C 659.38 610.76 672.21 576.17 701.25 550.48
  Q 707.42 545.03 709.36 542.17
  C 716.61 531.52 715.75 519.80 709.71 508.42
  C 700.67 491.40 683.22 480.15 664.79 475.76
  C 603.53 461.17 555.61 511.01 542.34 565.82
  C 533.70 601.49 542.43 642.33 573.70 664.61"
/>
<path stroke="#b0aabe" vector-effect="non-scaling-stroke" d="
  M 813.69 550.31
  Q 848.52 581.00 870.35 617.11
  C 874.85 624.56 879.33 634.62 885.11 640.34
  C 904.20 659.25 932.11 646.23 945.23 627.70
  C 968.13 595.38 959.28 549.22 938.00 518.77
  C 922.28 496.28 897.61 480.85 870.01 478.75
  C 845.72 476.91 820.06 486.89 808.35 509.01
  C 800.86 523.17 801.21 539.32 813.69 550.31"
/>
<path stroke="#8080b9" vector-effect="non-scaling-stroke" d="
  M 729.94 597.97
  C 722.37 612.08 739.25 635.02 753.26 638.47
  Q 754.27 638.72 754.82 639.03
  Q 755.37 639.34 755.54 640.34
  Q 756.68 647.38 758.25 654.35
  C 758.58 655.82 759.62 656.63 761.02 655.96
  A 2.04 2.04 0.0 0 0 762.15 654.51
  L 765.04 639.70
  Q 765.15 639.15 765.68 639.00
  Q 775.71 636.08 783.57 626.83
  C 794.01 614.54 798.04 593.37 776.68 588.84
  C 764.91 586.35 737.02 584.75 729.94 597.97"
/>
<path stroke="#302a77" vector-effect="non-scaling-stroke" d="
  M 604.69 583.56
  C 609.25 586.29 613.22 583.82 614.81 579.19
  C 617.05 572.70 619.30 566.74 623.81 561.46
  C 639.61 542.97 656.48 559.66 661.23 576.47
  Q 662.46 580.81 663.41 582.08
  C 668.04 588.22 677.41 583.23 674.99 575.01
  C 671.08 561.69 664.68 549.67 652.29 543.44
  C 628.97 531.70 609.47 551.57 603.01 572.06
  C 601.56 576.64 600.20 580.88 604.69 583.56"
/>
<path stroke="#302a77" vector-effect="non-scaling-stroke" d="
  M 839.70 562.74
  C 839.82 567.41 845.44 570.51 849.42 568.39
  Q 850.91 567.60 853.14 564.20
  C 856.46 559.14 863.06 552.69 869.47 553.09
  C 878.19 553.65 881.59 563.97 884.11 570.56
  C 887.64 579.78 899.19 575.95 896.90 567.04
  C 888.78 535.38 858.56 529.77 841.43 557.68
  Q 839.64 560.58 839.70 562.74"
/>
<path stroke="#404097" vector-effect="non-scaling-stroke" d="
  M 748.28 602.07
  Q 758.60 607.30 768.55 601.48
  A 1.47 1.47 0.0 0 0 768.37 598.86
  C 763.75 596.92 754.27 598.11 749.28 598.87
  Q 746.64 599.28 747.59 601.35
  A 1.52 1.52 0.0 0 0 748.28 602.07"
/>
<path stroke="#ffeaab" vector-effect="non-scaling-stroke" d="
  M 740.10 898.61
  Q 742.30 894.95 743.47 894.22
  C 748.46 891.12 752.14 894.36 756.15 898.04
  A 1.22 1.21 -20.6 0 0 756.86 898.36
  Q 764.24 899.04 766.12 892.58
  C 770.50 877.47 783.68 881.80 794.84 883.36
  Q 795.35 883.43 795.57 883.90
  Q 797.65 888.43 797.51 893.46
  Q 797.49 893.93 797.89 894.19
  Q 798.29 894.45 798.91 894.53"
/>
<path stroke="#817078" vector-effect="non-scaling-stroke" d="
  M 798.91 894.53
  Q 798.33 896.14 799.45 897.04
  A 1.45 1.44 31.1 0 0 801.69 896.49
  C 806.19 885.97 801.67 873.01 790.27 869.68
  Q 768.02 863.20 758.11 884.07
  Q 757.89 884.54 757.45 884.26
  C 752.61 881.30 749.22 878.71 743.56 881.11
  C 736.23 884.21 734.50 892.82 737.03 900.00
  A 1.45 1.45 0.0 0 0 739.56 900.38
  Q 740.13 899.60 740.10 898.61"
/>
<path stroke="#807aa0" vector-effect="non-scaling-stroke" d="
  M 798.91 894.53
  C 799.85 882.01 791.89 875.15 779.69 876.90
  C 770.55 878.21 768.06 884.20 764.79 892.01
  Q 763.45 895.23 762.16 896.14
  C 754.52 901.56 750.73 880.36 742.33 890.33
  Q 740.09 892.98 740.10 898.61"
/>
</g>
<path fill="white" d="
  M 0.00 0.00
  L 1448.00 0.00
  L 1448.00 1448.00
  L 0.00 1448.00
  L 0.00 0.00
  Z
  M 474.94 1145.13
  Q 446.96 1149.52 420.83 1155.61
  Q 399.26 1160.63 385.07 1167.06
  C 334.04 1190.18 400.30 1208.87 416.18 1212.83
  C 445.28 1220.08 475.92 1224.86 504.75 1228.24
  Q 561.28 1234.88 621.00 1237.53
  Q 729.98 1242.36 838.94 1237.11
  C 897.41 1234.29 956.20 1229.05 1013.72 1217.87
  C 1022.96 1216.08 1102.71 1200.36 1083.11 1177.88
  C 1076.73 1170.57 1065.80 1166.00 1056.55 1162.86
  C 1037.76 1156.47 1018.20 1152.31 998.66 1148.69
  C 1008.27 1128.79 1013.45 1105.99 1009.27 1084.00
  C 1005.81 1065.79 992.73 1048.44 972.17 1050.32
  C 962.24 1051.22 952.08 1056.79 944.37 1063.52
  A 0.31 0.31 0.0 0 1 943.86 1063.25
  L 949.07 1012.24
  A 1.00 0.98 -3.3 0 1 949.86 1011.37
  C 979.02 1005.42 1001.72 983.19 1007.64 954.14
  C 1018.52 900.71 972.16 837.88 936.23 803.13
  Q 935.84 802.74 936.27 802.40
  C 987.14 762.26 1010.04 705.23 1011.73 641.50
  Q 1013.36 580.46 992.45 524.41
  Q 992.27 523.95 992.61 523.58
  C 1029.59 483.58 1054.74 431.26 1032.22 377.36
  C 1021.46 351.61 999.45 330.65 974.28 319.21
  C 920.80 294.89 862.69 309.24 823.82 351.98
  A 0.93 0.92 30.6 0 1 822.83 352.23
  L 812.54 348.59
  Q 812.00 348.40 811.89 347.83
  C 809.51 334.66 799.73 326.89 786.83 326.13
  C 779.95 325.73 773.89 327.71 767.64 330.53
  Q 767.17 330.74 767.10 330.23
  C 763.50 303.41 735.21 293.68 713.96 307.98
  Q 699.54 317.68 692.52 335.29
  A 0.97 0.96 -81.7 0 1 691.73 335.89
  Q 634.75 342.58 584.92 370.84
  Q 584.44 371.11 584.04 370.72
  C 561.34 348.84 531.05 332.54 499.99 331.21
  C 438.34 328.59 386.59 378.72 382.43 439.95
  C 379.16 488.00 406.56 529.53 443.73 557.49
  Q 444.15 557.80 444.03 558.30
  C 433.48 601.63 431.78 647.79 441.46 691.54
  C 453.96 748.06 488.45 793.18 539.37 821.23
  A 0.65 0.65 0.0 0 1 539.66 822.03
  C 521.55 868.20 506.69 913.76 499.25 962.99
  C 493.28 1002.44 493.02 1042.70 504.31 1081.28
  Q 504.49 1081.91 503.87 1081.70
  Q 498.37 1079.80 492.83 1078.21
  C 472.38 1072.32 450.37 1080.73 449.43 1104.60
  C 448.77 1121.22 460.85 1136.36 474.94 1145.13
  Z"
/>
<path fill="#000072" d="
  M 998.66 1148.69
  C 983.62 1178.73 953.01 1202.50 918.86 1182.79
  A 0.88 0.87 -49.4 0 0 917.87 1182.87
  C 904.92 1193.19 893.76 1193.45 875.75 1193.47
  Q 734.28 1193.59 687.81 1193.47
  C 681.11 1193.45 674.26 1191.44 667.77 1191.06
  C 655.16 1190.32 642.50 1187.93 629.94 1187.74
  Q 609.62 1187.43 592.37 1176.99
  Q 587.76 1174.20 583.95 1172.47
  Q 567.08 1164.81 552.29 1153.39
  Q 551.89 1153.07 551.39 1153.18
  Q 531.85 1157.17 513.08 1156.10
  Q 492.07 1154.91 474.94 1145.13
  C 460.85 1136.36 448.77 1121.22 449.43 1104.60
  C 450.37 1080.73 472.38 1072.32 492.83 1078.21
  Q 498.37 1079.80 503.87 1081.70
  Q 504.49 1081.91 504.31 1081.28
  C 493.02 1042.70 493.28 1002.44 499.25 962.99
  C 506.69 913.76 521.55 868.20 539.66 822.03
  A 0.65 0.65 0.0 0 0 539.37 821.23
  C 488.45 793.18 453.96 748.06 441.46 691.54
  C 431.78 647.79 433.48 601.63 444.03 558.30
  Q 444.15 557.80 443.73 557.49
  C 406.56 529.53 379.16 488.00 382.43 439.95
  C 386.59 378.72 438.34 328.59 499.99 331.21
  C 531.05 332.54 561.34 348.84 584.04 370.72
  Q 584.44 371.11 584.92 370.84
  Q 634.75 342.58 691.73 335.89
  A 0.97 0.96 -81.7 0 0 692.52 335.29
  Q 699.54 317.68 713.96 307.98
  C 735.21 293.68 763.50 303.41 767.10 330.23
  Q 767.17 330.74 767.64 330.53
  C 773.89 327.71 779.95 325.73 786.83 326.13
  C 799.73 326.89 809.51 334.66 811.89 347.83
  Q 812.00 348.40 812.54 348.59
  L 822.83 352.23
  A 0.93 0.92 30.6 0 0 823.82 351.98
  C 862.69 309.24 920.80 294.89 974.28 319.21
  C 999.45 330.65 1021.46 351.61 1032.22 377.36
  C 1054.74 431.26 1029.59 483.58 992.61 523.58
  Q 992.27 523.95 992.45 524.41
  Q 1013.36 580.46 1011.73 641.50
  C 1010.04 705.23 987.14 762.26 936.27 802.40
  Q 935.84 802.74 936.23 803.13
  C 972.16 837.88 1018.52 900.71 1007.64 954.14
  C 1001.72 983.19 979.02 1005.42 949.86 1011.37
  A 1.00 0.98 -3.3 0 0 949.07 1012.24
  L 943.86 1063.25
  A 0.31 0.31 0.0 0 0 944.37 1063.52
  C 952.08 1056.79 962.24 1051.22 972.17 1050.32
  C 992.73 1048.44 1005.81 1065.79 1009.27 1084.00
  C 1013.45 1105.99 1008.27 1128.79 998.66 1148.69
  Z
  M 572.80 813.43
  Q 587.72 781.49 609.58 753.25
  C 623.45 735.92 640.83 720.23 661.92 712.83
  A 0.76 0.75 -8.4 0 0 662.42 712.17
  C 664.72 681.59 690.88 659.16 721.55 665.05
  C 726.39 665.98 731.85 668.38 736.98 670.04
  C 752.78 675.12 774.34 676.20 789.51 668.27
  C 837.62 643.09 882.96 693.24 860.10 739.84
  Q 844.66 771.29 811.08 784.01
  C 786.21 793.09 757.12 793.75 731.28 790.64
  Q 730.83 790.58 730.80 791.04
  Q 729.53 808.46 725.01 825.33
  A 0.43 0.43 0.0 0 0 725.52 825.86
  Q 735.94 823.57 745.17 828.62
  Q 745.63 828.88 746.04 828.54
  Q 764.27 813.14 788.83 814.94
  Q 811.31 816.58 825.86 830.87
  L 830.33 836.01
  Q 830.68 836.41 831.19 836.28
  C 919.13 814.90 985.93 759.72 996.48 665.25
  C 1011.32 532.46 935.91 406.70 809.43 361.85
  Q 809.02 361.71 808.76 362.05
  L 804.00 368.37
  A 0.49 0.49 0.0 0 0 804.13 369.08
  C 814.80 375.70 822.92 386.82 818.60 400.02
  Q 816.50 406.45 810.93 410.22
  C 798.20 418.84 783.19 412.59 773.40 402.47
  Q 770.49 399.46 769.92 397.03
  C 768.37 390.54 776.58 386.95 781.69 391.65
  C 785.46 395.12 788.13 398.13 793.43 400.05
  C 798.63 401.93 804.64 400.30 806.09 394.57
  C 808.09 386.64 796.95 379.69 790.44 377.60
  Q 789.98 377.45 789.54 377.64
  Q 780.64 381.26 774.18 382.18
  C 766.42 383.30 763.27 371.15 773.40 368.65
  C 781.69 366.61 793.36 362.75 797.24 354.22
  Q 800.47 347.10 793.86 342.25
  C 785.50 336.10 772.51 342.03 765.63 347.90
  C 760.68 352.12 759.20 362.72 752.96 365.22
  C 746.53 367.80 741.70 360.31 745.62 354.51
  C 752.41 344.45 759.04 327.98 746.64 318.76
  C 740.39 314.11 732.49 314.26 725.36 317.33
  C 708.82 324.45 701.54 345.47 698.58 361.83
  C 696.38 374.01 683.05 370.27 685.11 360.54
  C 685.81 357.27 686.31 353.96 687.19 350.83
  A 0.62 0.62 0.0 0 0 686.50 350.05
  C 549.41 371.23 453.44 486.85 448.80 623.75
  C 445.74 713.78 484.49 784.37 568.60 820.65
  Q 569.11 820.87 569.35 820.38
  L 572.80 813.43
  Z
  M 843.72 361.15
  Q 897.69 387.29 937.41 432.37
  Q 965.31 464.42 983.47 503.09
  L 986.37 509.29
  Q 986.58 509.73 986.91 509.37
  C 1015.47 478.24 1037.02 433.29 1022.82 391.07
  Q 1014.39 365.09 993.80 347.70
  C 946.48 307.74 879.84 313.80 837.19 357.63
  Q 836.85 357.98 837.29 358.18
  L 843.72 361.15
  Z
  M 403.68 408.19
  C 382.31 459.56 405.88 511.08 447.57 543.18
  Q 448.01 543.52 448.18 542.98
  L 450.23 536.61
  Q 461.03 504.44 477.59 476.60
  Q 511.91 419.16 567.36 381.57
  L 571.80 378.64
  Q 572.22 378.36 571.85 378.02
  C 543.10 350.57 501.72 335.74 463.06 350.26
  Q 421.62 365.82 403.68 408.19
  Z
  M 722.96 740.13
  Q 724.00 744.64 727.24 745.91
  A 1.23 1.17 0.6 0 1 727.90 746.55
  C 737.56 769.17 768.74 751.50 754.97 732.09
  C 751.64 728.17 744.55 726.21 749.63 719.49
  C 757.21 709.47 749.56 694.74 736.82 697.06
  Q 726.65 698.91 725.22 710.02
  C 724.91 712.43 722.54 713.88 720.01 713.91
  Q 713.01 714.01 707.86 719.07
  Q 707.50 719.43 707.87 719.77
  Q 717.46 728.55 722.96 740.13
  Z
  M 615.92 767.75
  C 600.30 788.94 588.62 811.71 577.41 836.14
  C 573.72 844.17 563.41 842.54 563.80 833.85
  Q 563.82 833.41 563.41 833.22
  L 552.66 828.31
  A 0.47 0.46 -66.1 0 0 552.03 828.56
  Q 532.08 876.79 519.98 927.88
  Q 511.39 964.32 509.25 1002.00
  Q 509.10 1004.72 509.35 1007.77
  C 506.89 1061.99 521.94 1114.94 567.79 1147.76
  A 0.42 0.42 0.0 0 0 568.42 1147.27
  C 559.01 1123.17 559.80 1093.87 566.72 1069.37
  C 575.33 1045.44 600.38 1019.40 628.05 1035.90
  Q 628.63 1036.25 628.56 1035.58
  L 621.18 963.69
  C 619.21 945.89 615.87 930.01 634.03 919.82
  Q 634.47 919.57 634.25 919.12
  Q 632.95 916.57 631.79 914.04
  C 617.57 883.07 642.20 849.01 676.93 860.32
  Q 677.43 860.48 677.71 860.03
  Q 685.92 846.33 702.15 846.40
  Q 702.68 846.40 702.92 845.94
  C 709.61 833.11 713.32 817.96 715.53 802.84
  Q 719.23 781.42 715.09 760.44
  C 710.50 737.17 694.97 718.43 668.85 724.97
  C 648.32 730.12 628.40 750.22 615.92 767.75
  Z
  M 764.55 726.37
  C 778.91 750.44 757.09 775.63 731.36 765.73
  A 0.60 0.59 88.6 0 1 731.02 765.40
  Q 730.87 765.03 730.56 765.02
  Q 729.95 764.99 730.00 765.60
  L 730.87 776.37
  Q 730.92 776.89 731.43 776.90
  C 736.26 777.06 741.52 778.04 745.70 778.26
  Q 761.96 779.11 778.17 777.74
  C 782.46 777.38 787.33 775.90 792.07 775.48
  C 794.87 775.24 797.09 774.23 799.73 773.47
  Q 816.83 768.55 830.37 757.19
  A 1.29 1.28 57.2 0 0 830.70 755.65
  C 820.18 733.97 786.23 726.82 764.83 725.90
  Q 764.25 725.87 764.55 726.37
  Z
  M 971.55 986.87
  C 1031.82 940.99 964.00 848.55 927.20 813.70
  L 924.84 811.56
  Q 924.37 811.13 923.83 811.48
  Q 896.12 829.78 864.63 840.41
  A 0.36 0.36 0.0 0 0 864.57 841.06
  Q 873.00 845.76 876.07 854.98
  Q 876.25 855.54 876.82 855.42
  C 903.60 849.99 929.44 865.34 936.43 891.73
  A 0.55 0.55 0.0 0 0 937.24 892.07
  C 940.22 890.27 946.03 887.30 949.19 890.07
  C 953.50 893.85 953.24 899.33 948.08 901.91
  C 929.43 911.20 911.73 922.81 901.00 941.23
  C 886.61 965.94 893.53 990.48 922.11 997.21
  Q 948.67 1003.47 971.55 986.87
  Z
  M 757.23 840.62
  C 758.75 843.40 760.40 846.18 759.78 849.29
  C 758.51 855.63 750.03 856.54 746.84 850.76
  C 739.72 833.63 721.56 836.25 715.47 852.17
  Q 715.29 852.64 715.62 853.01
  C 718.52 856.35 722.59 862.63 720.99 867.15
  C 719.56 871.20 713.98 872.93 710.50 870.31
  C 708.54 868.84 707.58 865.89 706.42 863.60
  C 704.87 860.56 700.52 859.80 697.34 860.69
  Q 690.90 862.49 688.87 869.59
  Q 689.16 877.71 681.81 878.63
  C 677.84 877.70 675.27 875.23 672.82 873.95
  C 662.03 868.30 649.50 873.65 644.03 884.22
  C 638.55 895.29 641.85 907.24 649.32 916.42
  Q 649.64 916.81 650.15 916.81
  L 718.25 916.75
  L 805.00 916.75
  L 901.68 916.84
  Q 902.21 916.84 902.60 916.47
  Q 912.25 907.10 923.46 899.69
  Q 923.91 899.40 923.83 898.86
  Q 922.77 891.49 918.91 885.16
  C 910.06 871.88 894.02 865.06 878.31 869.30
  Q 877.75 869.45 877.67 870.03
  L 877.06 874.60
  C 874.42 884.11 862.01 881.35 863.61 871.77
  Q 864.54 866.14 863.36 860.40
  C 859.30 846.36 842.62 852.58 834.97 859.50
  Q 833.98 860.40 830.77 860.11
  Q 826.92 859.58 825.56 856.44
  Q 822.25 848.75 821.17 846.89
  C 807.60 826.66 774.71 821.75 756.28 838.13
  A 0.63 0.62 -36.6 0 0 756.16 838.93
  L 757.23 840.62
  Z
  M 633.20 943.32
  Q 634.06 956.75 635.52 970.28
  Q 637.44 987.98 639.34 1005.68
  C 643.77 1046.85 647.84 1088.06 652.09 1129.24
  Q 652.81 1141.50 654.97 1153.54
  C 657.16 1165.79 666.22 1175.16 677.87 1178.35
  Q 683.06 1179.76 697.75 1179.76
  Q 742.64 1179.75 787.54 1179.74
  Q 799.04 1179.73 803.68 1178.19
  C 823.46 1171.61 823.87 1154.16 825.39 1136.74
  L 844.82 944.65
  C 842.92 934.52 836.35 930.73 826.66 930.68
  Q 743.61 930.27 660.56 930.64
  C 649.83 930.69 634.50 928.06 633.20 943.32
  Z
  M 857.76 938.62
  Q 859.05 944.38 858.31 951.56
  Q 847.75 1053.90 837.27 1156.27
  Q 835.18 1169.10 826.74 1179.22
  Q 826.31 1179.73 826.98 1179.74
  Q 853.73 1179.77 880.49 1179.78
  Q 892.10 1179.78 897.38 1178.29
  Q 911.86 1174.22 918.13 1160.37
  C 921.67 1152.56 922.07 1141.63 922.76 1132.54
  L 930.79 1053.51
  L 931.81 1046.45
  L 934.94 1013.32
  Q 934.99 1012.81 934.47 1012.79
  Q 921.09 1012.36 908.71 1007.54
  Q 908.31 1007.38 907.70 1007.76
  Q 907.89 1007.13 907.19 1006.81
  Q 882.92 995.65 880.04 969.58
  Q 879.13 953.30 886.69 938.61
  L 890.88 931.21
  A 0.43 0.43 0.0 0 0 890.51 930.57
  L 855.03 930.59
  Q 854.32 930.59 854.60 931.24
  L 857.76 938.62
  Z
  M 577.65 1082.68
  Q 573.32 1105.53 576.95 1127.21
  C 583.04 1161.35 606.46 1175.83 640.32 1173.83
  Q 643.87 1173.62 646.68 1171.87
  Q 647.15 1171.58 646.89 1171.10
  Q 641.05 1160.52 640.04 1147.50
  Q 639.46 1139.97 637.00 1118.56
  Q 634.53 1091.88 631.42 1064.23
  C 631.05 1060.97 631.35 1058.17 629.19 1055.56
  C 605.97 1026.93 581.57 1060.66 577.65 1082.68
  Z
  M 945.39 1081.79
  Q 943.91 1082.48 942.55 1084.44
  Q 941.59 1085.83 941.36 1087.96
  Q 938.41 1115.16 935.74 1142.13
  C 934.82 1154.39 933.30 1162.28 928.03 1171.52
  A 0.53 0.52 27.2 0 0 928.27 1172.26
  C 960.35 1186.83 984.01 1154.89 991.67 1128.42
  Q 996.35 1116.68 996.67 1102.57
  C 998.60 1078.86 985.49 1050.67 956.86 1071.12
  Q 950.12 1075.93 945.39 1081.79
  Z
  M 463.26 1103.34
  Q 462.98 1107.85 464.01 1111.27
  C 474.28 1140.96 512.40 1145.13 538.35 1141.38
  A 0.24 0.23 -25.8 0 0 538.49 1140.99
  Q 523.40 1124.88 513.18 1104.39
  L 512.42 1102.14
  Q 506.77 1098.08 498.77 1094.71
  C 487.86 1090.11 465.26 1085.03 463.26 1103.34
  Z"
/>
<path fill="#ffffff" d="
  M 825.86 830.87
  Q 869.54 820.15 904.76 798.28
  Q 936.37 778.65 958.64 748.88
  Q 960.46 746.46 962.03 743.75
  Q 962.44 743.04 961.73 743.44
  C 916.94 768.80 867.54 780.14 816.00 783.97
  Q 812.42 784.24 811.08 784.01
  Q 844.66 771.29 860.10 739.84
  C 882.96 693.24 837.62 643.09 789.51 668.27
  C 774.34 676.20 752.78 675.12 736.98 670.04
  C 731.85 668.38 726.39 665.98 721.55 665.05
  C 690.88 659.16 664.72 681.59 662.42 712.17
  A 0.76 0.75 -8.4 0 1 661.92 712.83
  C 640.83 720.23 623.45 735.92 609.58 753.25
  Q 600.98 748.75 592.74 744.01
  C 538.24 712.63 504.36 660.66 497.09 598.18
  Q 488.58 525.09 514.22 456.60
  A 0.29 0.29 0.0 0 0 513.71 456.33
  Q 455.62 539.05 458.28 640.51
  C 459.50 687.24 474.14 740.54 509.80 773.22
  Q 537.00 798.15 572.80 813.43
  L 569.35 820.38
  Q 569.11 820.87 568.60 820.65
  C 484.49 784.37 445.74 713.78 448.80 623.75
  C 453.44 486.85 549.41 371.23 686.50 350.05
  A 0.62 0.62 0.0 0 1 687.19 350.83
  C 686.31 353.96 685.81 357.27 685.11 360.54
  C 683.05 370.27 696.38 374.01 698.58 361.83
  C 701.54 345.47 708.82 324.45 725.36 317.33
  C 732.49 314.26 740.39 314.11 746.64 318.76
  C 759.04 327.98 752.41 344.45 745.62 354.51
  C 741.70 360.31 746.53 367.80 752.96 365.22
  C 759.20 362.72 760.68 352.12 765.63 347.90
  C 772.51 342.03 785.50 336.10 793.86 342.25
  Q 800.47 347.10 797.24 354.22
  C 793.36 362.75 781.69 366.61 773.40 368.65
  C 763.27 371.15 766.42 383.30 774.18 382.18
  Q 780.64 381.26 789.54 377.64
  Q 789.98 377.45 790.44 377.60
  C 796.95 379.69 808.09 386.64 806.09 394.57
  C 804.64 400.30 798.63 401.93 793.43 400.05
  C 788.13 398.13 785.46 395.12 781.69 391.65
  C 776.58 386.95 768.37 390.54 769.92 397.03
  Q 770.49 399.46 773.40 402.47
  C 783.19 412.59 798.20 418.84 810.93 410.22
  Q 816.50 406.45 818.60 400.02
  C 822.92 386.82 814.80 375.70 804.13 369.08
  A 0.49 0.49 0.0 0 1 804.00 368.37
  L 808.76 362.05
  Q 809.02 361.71 809.43 361.85
  C 935.91 406.70 1011.32 532.46 996.48 665.25
  C 985.93 759.72 919.13 814.90 831.19 836.28
  Q 830.68 836.41 830.33 836.01
  L 825.86 830.87
  Z
  M 573.70 664.61
  Q 597.35 681.45 627.21 675.69
  C 642.50 672.74 649.59 662.28 652.32 647.91
  C 659.38 610.76 672.21 576.17 701.25 550.48
  Q 707.42 545.03 709.36 542.17
  C 716.61 531.52 715.75 519.80 709.71 508.42
  C 700.67 491.40 683.22 480.15 664.79 475.76
  C 603.53 461.17 555.61 511.01 542.34 565.82
  C 533.70 601.49 542.43 642.33 573.70 664.61
  Z
  M 813.69 550.31
  Q 848.52 581.00 870.35 617.11
  C 874.85 624.56 879.33 634.62 885.11 640.34
  C 904.20 659.25 932.11 646.23 945.23 627.70
  C 968.13 595.38 959.28 549.22 938.00 518.77
  C 922.28 496.28 897.61 480.85 870.01 478.75
  C 845.72 476.91 820.06 486.89 808.35 509.01
  C 800.86 523.17 801.21 539.32 813.69 550.31
  Z
  M 729.94 597.97
  C 722.37 612.08 739.25 635.02 753.26 638.47
  Q 754.27 638.72 754.82 639.03
  Q 755.37 639.34 755.54 640.34
  Q 756.68 647.38 758.25 654.35
  C 758.58 655.82 759.62 656.63 761.02 655.96
  A 2.04 2.04 0.0 0 0 762.15 654.51
  L 765.04 639.70
  Q 765.15 639.15 765.68 639.00
  Q 775.71 636.08 783.57 626.83
  C 794.01 614.54 798.04 593.37 776.68 588.84
  C 764.91 586.35 737.02 584.75 729.94 597.97
  Z"
/>
<path fill="#b7b2c5" d="
  M 1022.82 391.07
  Q 1012.17 373.60 999.96 362.78
  C 955.26 323.19 889.72 323.55 843.72 361.15
  L 837.29 358.18
  Q 836.85 357.98 837.19 357.63
  C 879.84 313.80 946.48 307.74 993.80 347.70
  Q 1014.39 365.09 1022.82 391.07
  Z"
/>
<path fill="#60547c" d="
  M 1022.82 391.07
  C 1037.02 433.29 1015.47 478.24 986.91 509.37
  Q 986.58 509.73 986.37 509.29
  L 983.47 503.09
  Q 1013.51 470.26 1019.89 425.29
  A 0.48 0.48 0.0 0 0 1019.04 424.91
  C 998.38 449.25 965.77 443.82 939.97 432.47
  Q 939.06 432.07 937.41 432.37
  Q 897.69 387.29 843.72 361.15
  C 889.72 323.55 955.26 323.19 999.96 362.78
  Q 1012.17 373.60 1022.82 391.07
  Z"
/>
<path fill="#b7b2c5" d="
  M 567.36 381.57
  C 527.88 349.55 472.76 343.14 431.28 376.81
  Q 415.93 389.27 403.68 408.19
  Q 421.62 365.82 463.06 350.26
  C 501.72 335.74 543.10 350.57 571.85 378.02
  Q 572.22 378.36 571.80 378.64
  L 567.36 381.57
  Z"
/>
<path fill="#60547c" d="
  M 567.36 381.57
  Q 511.91 419.16 477.59 476.60
  C 476.70 476.32 476.07 476.09 475.14 476.41
  C 432.87 491.41 410.98 455.89 404.28 420.76
  A 0.60 0.60 0.0 0 0 403.09 420.80
  Q 402.44 425.93 401.97 431.31
  C 399.34 461.08 409.55 489.55 427.37 512.65
  Q 437.10 525.26 450.23 536.61
  L 448.18 542.98
  Q 448.01 543.52 447.57 543.18
  C 405.88 511.08 382.31 459.56 403.68 408.19
  Q 415.93 389.27 431.28 376.81
  C 472.76 343.14 527.88 349.55 567.36 381.57
  Z"
/>
<path fill="#443c78" d="
  M 477.59 476.60
  Q 461.03 504.44 450.23 536.61
  Q 437.10 525.26 427.37 512.65
  C 409.55 489.55 399.34 461.08 401.97 431.31
  Q 402.44 425.93 403.09 420.80
  A 0.60 0.60 0.0 0 1 404.28 420.76
  C 410.98 455.89 432.87 491.41 475.14 476.41
  C 476.07 476.09 476.70 476.32 477.59 476.60
  Z"
/>
<path fill="#443c78" d="
  M 983.47 503.09
  Q 965.31 464.42 937.41 432.37
  Q 939.06 432.07 939.97 432.47
  C 965.77 443.82 998.38 449.25 1019.04 424.91
  A 0.48 0.48 0.0 0 1 1019.89 425.29
  Q 1013.51 470.26 983.47 503.09
  Z"
/>
<path fill="#b2b2d4" d="
  M 609.58 753.25
  Q 587.72 781.49 572.80 813.43
  Q 537.00 798.15 509.80 773.22
  C 474.14 740.54 459.50 687.24 458.28 640.51
  Q 455.62 539.05 513.71 456.33
  A 0.29 0.29 0.0 0 1 514.22 456.60
  Q 488.58 525.09 497.09 598.18
  C 504.36 660.66 538.24 712.63 592.74 744.01
  Q 600.98 748.75 609.58 753.25
  Z"
/>
<path fill="#60547c" d="
  M 573.70 664.61
  C 542.43 642.33 533.70 601.49 542.34 565.82
  C 555.61 511.01 603.53 461.17 664.79 475.76
  C 683.22 480.15 700.67 491.40 709.71 508.42
  C 715.75 519.80 716.61 531.52 709.36 542.17
  Q 707.42 545.03 701.25 550.48
  C 672.21 576.17 659.38 610.76 652.32 647.91
  C 649.59 662.28 642.50 672.74 627.21 675.69
  Q 597.35 681.45 573.70 664.61
  Z
  M 604.69 583.56
  C 609.25 586.29 613.22 583.82 614.81 579.19
  C 617.05 572.70 619.30 566.74 623.81 561.46
  C 639.61 542.97 656.48 559.66 661.23 576.47
  Q 662.46 580.81 663.41 582.08
  C 668.04 588.22 677.41 583.23 674.99 575.01
  C 671.08 561.69 664.68 549.67 652.29 543.44
  C 628.97 531.70 609.47 551.57 603.01 572.06
  C 601.56 576.64 600.20 580.88 604.69 583.56
  Z"
/>
<path fill="#60547c" d="
  M 813.69 550.31
  C 801.21 539.32 800.86 523.17 808.35 509.01
  C 820.06 486.89 845.72 476.91 870.01 478.75
  C 897.61 480.85 922.28 496.28 938.00 518.77
  C 959.28 549.22 968.13 595.38 945.23 627.70
  C 932.11 646.23 904.20 659.25 885.11 640.34
  C 879.33 634.62 874.85 624.56 870.35 617.11
  Q 848.52 581.00 813.69 550.31
  Z
  M 839.70 562.74
  C 839.82 567.41 845.44 570.51 849.42 568.39
  Q 850.91 567.60 853.14 564.20
  C 856.46 559.14 863.06 552.69 869.47 553.09
  C 878.19 553.65 881.59 563.97 884.11 570.56
  C 887.64 579.78 899.19 575.95 896.90 567.04
  C 888.78 535.38 858.56 529.77 841.43 557.68
  Q 839.64 560.58 839.70 562.74
  Z"
/>
<path fill="#000072" d="
  M 849.42 568.39
  C 845.44 570.51 839.82 567.41 839.70 562.74
  Q 839.64 560.58 841.43 557.68
  C 858.56 529.77 888.78 535.38 896.90 567.04
  C 899.19 575.95 887.64 579.78 884.11 570.56
  C 881.59 563.97 878.19 553.65 869.47 553.09
  C 863.06 552.69 856.46 559.14 853.14 564.20
  Q 850.91 567.60 849.42 568.39
  Z"
/>
<path fill="#000072" d="
  M 604.69 583.56
  C 600.20 580.88 601.56 576.64 603.01 572.06
  C 609.47 551.57 628.97 531.70 652.29 543.44
  C 664.68 549.67 671.08 561.69 674.99 575.01
  C 677.41 583.23 668.04 588.22 663.41 582.08
  Q 662.46 580.81 661.23 576.47
  C 656.48 559.66 639.61 542.97 623.81 561.46
  C 619.30 566.74 617.05 572.70 614.81 579.19
  C 613.22 583.82 609.25 586.29 604.69 583.56
  Z"
/>
<path fill="#000072" d="
  M 753.26 638.47
  C 739.25 635.02 722.37 612.08 729.94 597.97
  C 737.02 584.75 764.91 586.35 776.68 588.84
  C 798.04 593.37 794.01 614.54 783.57 626.83
  Q 775.71 636.08 765.68 639.00
  Q 765.15 639.15 765.04 639.70
  L 762.15 654.51
  A 2.04 2.04 0.0 0 1 761.02 655.96
  C 759.62 656.63 758.58 655.82 758.25 654.35
  Q 756.68 647.38 755.54 640.34
  Q 755.37 639.34 754.82 639.03
  Q 754.27 638.72 753.26 638.47
  Z
  M 748.28 602.07
  Q 758.60 607.30 768.55 601.48
  A 1.47 1.47 0.0 0 0 768.37 598.86
  C 763.75 596.92 754.27 598.11 749.28 598.87
  Q 746.64 599.28 747.59 601.35
  A 1.52 1.52 0.0 0 0 748.28 602.07
  Z"
/>
<path fill="#8080bc" d="
  M 748.28 602.07
  A 1.52 1.52 0.0 0 1 747.59 601.35
  Q 746.64 599.28 749.28 598.87
  C 754.27 598.11 763.75 596.92 768.37 598.86
  A 1.47 1.47 0.0 0 1 768.55 601.48
  Q 758.60 607.30 748.28 602.07
  Z"
/>
<path fill="#ffe083" d="
  M 754.97 732.09
  C 755.40 741.20 750.10 759.93 736.72 751.22
  C 732.58 748.53 730.22 744.30 728.44 739.70
  Q 728.24 739.20 727.72 739.29
  L 722.96 740.13
  Q 717.46 728.55 707.87 719.77
  Q 707.50 719.43 707.86 719.07
  Q 713.01 714.01 720.01 713.91
  C 722.54 713.88 724.91 712.43 725.22 710.02
  Q 726.65 698.91 736.82 697.06
  C 749.56 694.74 757.21 709.47 749.63 719.49
  C 744.55 726.21 751.64 728.17 754.97 732.09
  Z"
/>
<path fill="#b7b2c5" d="
  M 715.53 802.84
  C 714.58 779.98 709.07 751.07 685.03 740.97
  C 669.57 734.47 650.80 740.27 637.38 749.63
  Q 626.11 757.49 615.92 767.75
  C 628.40 750.22 648.32 730.12 668.85 724.97
  C 694.97 718.43 710.50 737.17 715.09 760.44
  Q 719.23 781.42 715.53 802.84
  Z"
/>
<path fill="#ff2c4c" d="
  M 731.36 765.73
  C 757.09 775.63 778.91 750.44 764.55 726.37
  Q 764.25 725.87 764.83 725.90
  C 786.23 726.82 820.18 733.97 830.70 755.65
  A 1.29 1.28 57.2 0 1 830.37 757.19
  Q 816.83 768.55 799.73 773.47
  C 797.09 774.23 794.87 775.24 792.07 775.48
  C 787.33 775.90 782.46 777.38 778.17 777.74
  Q 761.96 779.11 745.70 778.26
  C 741.52 778.04 736.26 777.06 731.43 776.90
  Q 730.92 776.89 730.87 776.37
  L 730.00 765.60
  Q 729.95 764.99 730.56 765.02
  Q 730.87 765.03 731.02 765.40
  A 0.60 0.59 88.6 0 0 731.36 765.73
  Z"
/>
<path fill="#b59e83" d="
  M 754.97 732.09
  C 768.74 751.50 737.56 769.17 727.90 746.55
  A 1.23 1.17 0.6 0 0 727.24 745.91
  Q 724.00 744.64 722.96 740.13
  L 727.72 739.29
  Q 728.24 739.20 728.44 739.70
  C 730.22 744.30 732.58 748.53 736.72 751.22
  C 750.10 759.93 755.40 741.20 754.97 732.09
  Z"
/>
<path fill="#60547c" d="
  M 715.53 802.84
  C 713.32 817.96 709.61 833.11 702.92 845.94
  Q 702.68 846.40 702.15 846.40
  Q 685.92 846.33 677.71 860.03
  Q 677.43 860.48 676.93 860.32
  C 642.20 849.01 617.57 883.07 631.79 914.04
  Q 632.95 916.57 634.25 919.12
  Q 634.47 919.57 634.03 919.82
  C 615.87 930.01 619.21 945.89 621.18 963.69
  Q 567.72 953.62 519.98 927.88
  Q 532.08 876.79 552.03 828.56
  A 0.47 0.46 -66.1 0 1 552.66 828.31
  L 563.41 833.22
  Q 563.82 833.41 563.80 833.85
  C 563.41 842.54 573.72 844.17 577.41 836.14
  C 588.62 811.71 600.30 788.94 615.92 767.75
  Q 626.11 757.49 637.38 749.63
  C 650.80 740.27 669.57 734.47 685.03 740.97
  C 709.07 751.07 714.58 779.98 715.53 802.84
  Z"
/>
<path fill="#b2b2d4" d="
  M 825.86 830.87
  Q 811.31 816.58 788.83 814.94
  Q 764.27 813.14 746.04 828.54
  Q 745.63 828.88 745.17 828.62
  Q 735.94 823.57 725.52 825.86
  A 0.43 0.43 0.0 0 1 725.01 825.33
  Q 729.53 808.46 730.80 791.04
  Q 730.83 790.58 731.28 790.64
  C 757.12 793.75 786.21 793.09 811.08 784.01
  Q 812.42 784.24 816.00 783.97
  C 867.54 780.14 916.94 768.80 961.73 743.44
  Q 962.44 743.04 962.03 743.75
  Q 960.46 746.46 958.64 748.88
  Q 936.37 778.65 904.76 798.28
  Q 869.54 820.15 825.86 830.87
  Z"
/>
<path fill="#60547c" d="
  M 927.20 813.70
  C 925.33 820.08 926.85 824.47 931.19 829.74
  C 955.97 859.86 978.61 891.66 984.99 931.24
  Q 989.96 961.97 971.55 986.87
  Q 948.67 1003.47 922.11 997.21
  C 893.53 990.48 886.61 965.94 901.00 941.23
  C 911.73 922.81 929.43 911.20 948.08 901.91
  C 953.24 899.33 953.50 893.85 949.19 890.07
  C 946.03 887.30 940.22 890.27 937.24 892.07
  A 0.55 0.55 0.0 0 1 936.43 891.73
  C 929.44 865.34 903.60 849.99 876.82 855.42
  Q 876.25 855.54 876.07 854.98
  Q 873.00 845.76 864.57 841.06
  A 0.36 0.36 0.0 0 1 864.63 840.41
  Q 896.12 829.78 923.83 811.48
  Q 924.37 811.13 924.84 811.56
  L 927.20 813.70
  Z"
/>
<path fill="#b7b2c5" d="
  M 927.20 813.70
  C 964.00 848.55 1031.82 940.99 971.55 986.87
  Q 989.96 961.97 984.99 931.24
  C 978.61 891.66 955.97 859.86 931.19 829.74
  C 926.85 824.47 925.33 820.08 927.20 813.70
  Z"
/>
<path fill="#fef3d3" d="
  M 821.17 846.89
  Q 821.07 847.48 820.23 847.35
  Q 819.80 847.28 819.41 846.87
  Q 812.34 839.49 803.05 836.46
  Q 779.23 828.68 757.23 840.62
  L 756.16 838.93
  A 0.63 0.62 -36.6 0 1 756.28 838.13
  C 774.71 821.75 807.60 826.66 821.17 846.89
  Z"
/>
<path fill="#ffe083" d="
  M 821.17 846.89
  Q 822.25 848.75 825.56 856.44
  Q 826.92 859.58 830.77 860.11
  Q 829.19 861.74 831.88 864.09
  Q 832.27 864.44 832.70 864.14
  C 840.53 858.70 848.88 855.31 858.39 857.96
  Q 861.19 858.75 862.26 861.28
  A 0.50 0.49 -50.9 0 0 863.20 861.18
  L 863.36 860.40
  Q 864.54 866.14 863.61 871.77
  C 862.01 881.35 874.42 884.11 877.06 874.60
  Q 894.19 870.09 909.39 878.86
  Q 913.40 881.17 916.96 885.38
  A 1.06 1.06 0.0 0 0 917.76 885.77
  Q 918.80 885.81 918.91 885.16
  Q 922.77 891.49 923.83 898.86
  Q 923.91 899.40 923.46 899.69
  Q 912.25 907.10 902.60 916.47
  Q 902.21 916.84 901.68 916.84
  L 805.00 916.75
  Q 805.41 915.26 803.69 915.26
  Q 762.39 915.24 721.08 915.25
  C 719.72 915.25 719.08 915.79 718.25 916.75
  L 650.15 916.81
  Q 649.64 916.81 649.32 916.42
  C 641.85 907.24 638.55 895.29 644.03 884.22
  Q 646.29 884.27 647.53 882.08
  A 2.01 1.98 89.6 0 1 648.24 881.35
  Q 665.30 871.11 680.95 882.93
  A 0.38 0.38 0.0 0 0 681.55 882.73
  L 682.46 879.49
  Q 682.58 879.07 682.20 878.85
  L 681.81 878.63
  Q 689.16 877.71 688.87 869.59
  Q 697.51 862.66 706.25 866.64
  A 1.29 1.26 1.5 0 1 706.90 867.31
  C 710.32 875.55 720.81 874.27 722.60 866.15
  C 723.44 862.30 720.35 857.30 718.43 853.81
  Q 718.25 853.49 717.38 853.06
  Q 716.96 852.84 716.81 852.40
  Q 716.50 851.48 717.14 851.13
  Q 717.50 850.94 717.68 850.57
  Q 719.06 847.82 722.69 846.19
  Q 734.43 840.93 743.95 848.27
  Q 744.52 848.72 745.05 850.20
  Q 745.23 850.70 745.72 850.91
  Q 746.40 851.19 746.84 850.76
  C 750.03 856.54 758.51 855.63 759.78 849.29
  C 760.40 846.18 758.75 843.40 757.23 840.62
  Q 779.23 828.68 803.05 836.46
  Q 812.34 839.49 819.41 846.87
  Q 819.80 847.28 820.23 847.35
  Q 821.07 847.48 821.17 846.89
  Z
  M 740.10 898.61
  Q 742.30 894.95 743.47 894.22
  C 748.46 891.12 752.14 894.36 756.15 898.04
  A 1.22 1.21 -20.6 0 0 756.86 898.36
  Q 764.24 899.04 766.12 892.58
  C 770.50 877.47 783.68 881.80 794.84 883.36
  Q 795.35 883.43 795.57 883.90
  Q 797.65 888.43 797.51 893.46
  Q 797.49 893.93 797.89 894.19
  Q 798.29 894.45 798.91 894.53
  Q 798.33 896.14 799.45 897.04
  A 1.45 1.44 31.1 0 0 801.69 896.49
  C 806.19 885.97 801.67 873.01 790.27 869.68
  Q 768.02 863.20 758.11 884.07
  Q 757.89 884.54 757.45 884.26
  C 752.61 881.30 749.22 878.71 743.56 881.11
  C 736.23 884.21 734.50 892.82 737.03 900.00
  A 1.45 1.45 0.0 0 0 739.56 900.38
  Q 740.13 899.60 740.10 898.61
  Z"
/>
<path fill="#fef3d3" d="
  M 746.84 850.76
  Q 746.40 851.19 745.72 850.91
  Q 745.23 850.70 745.05 850.20
  Q 744.52 848.72 743.95 848.27
  Q 734.43 840.93 722.69 846.19
  Q 719.06 847.82 717.68 850.57
  Q 717.50 850.94 717.14 851.13
  Q 716.50 851.48 716.81 852.40
  Q 716.96 852.84 717.38 853.06
  Q 718.25 853.49 718.43 853.81
  C 720.35 857.30 723.44 862.30 722.60 866.15
  C 720.81 874.27 710.32 875.55 706.90 867.31
  A 1.29 1.26 1.5 0 0 706.25 866.64
  Q 697.51 862.66 688.87 869.59
  Q 690.90 862.49 697.34 860.69
  C 700.52 859.80 704.87 860.56 706.42 863.60
  C 707.58 865.89 708.54 868.84 710.50 870.31
  C 713.98 872.93 719.56 871.20 720.99 867.15
  C 722.59 862.63 718.52 856.35 715.62 853.01
  Q 715.29 852.64 715.47 852.17
  C 721.56 836.25 739.72 833.63 746.84 850.76
  Z"
/>
<path fill="#fef3d3" d="
  M 863.36 860.40
  L 863.20 861.18
  A 0.50 0.49 -50.9 0 1 862.26 861.28
  Q 861.19 858.75 858.39 857.96
  C 848.88 855.31 840.53 858.70 832.70 864.14
  Q 832.27 864.44 831.88 864.09
  Q 829.19 861.74 830.77 860.11
  Q 833.98 860.40 834.97 859.50
  C 842.62 852.58 859.30 846.36 863.36 860.40
  Z"
/>
<path fill="#fef3d3" d="
  M 918.91 885.16
  Q 918.80 885.81 917.76 885.77
  A 1.06 1.06 0.0 0 1 916.96 885.38
  Q 913.40 881.17 909.39 878.86
  Q 894.19 870.09 877.06 874.60
  L 877.67 870.03
  Q 877.75 869.45 878.31 869.30
  C 894.02 865.06 910.06 871.88 918.91 885.16
  Z"
/>
<path fill="#02006d" d="
  M 798.91 894.53
  C 799.85 882.01 791.89 875.15 779.69 876.90
  C 770.55 878.21 768.06 884.20 764.79 892.01
  Q 763.45 895.23 762.16 896.14
  C 754.52 901.56 750.73 880.36 742.33 890.33
  Q 740.09 892.98 740.10 898.61
  Q 740.13 899.60 739.56 900.38
  A 1.45 1.45 0.0 0 1 737.03 900.00
  C 734.50 892.82 736.23 884.21 743.56 881.11
  C 749.22 878.71 752.61 881.30 757.45 884.26
  Q 757.89 884.54 758.11 884.07
  Q 768.02 863.20 790.27 869.68
  C 801.67 873.01 806.19 885.97 801.69 896.49
  A 1.45 1.44 31.1 0 1 799.45 897.04
  Q 798.33 896.14 798.91 894.53
  Z"
/>
<path fill="#fef3d3" d="
  M 681.81 878.63
  L 682.20 878.85
  Q 682.58 879.07 682.46 879.49
  L 681.55 882.73
  A 0.38 0.38 0.0 0 1 680.95 882.93
  Q 665.30 871.11 648.24 881.35
  A 2.01 1.98 89.6 0 0 647.53 882.08
  Q 646.29 884.27 644.03 884.22
  C 649.50 873.65 662.03 868.30 672.82 873.95
  C 675.27 875.23 677.84 877.70 681.81 878.63
  Z"
/>
<path fill="#fef3d3" d="
  M 798.91 894.53
  Q 798.29 894.45 797.89 894.19
  Q 797.49 893.93 797.51 893.46
  Q 797.65 888.43 795.57 883.90
  Q 795.35 883.43 794.84 883.36
  C 783.68 881.80 770.50 877.47 766.12 892.58
  Q 764.24 899.04 756.86 898.36
  A 1.22 1.21 -20.6 0 1 756.15 898.04
  C 752.14 894.36 748.46 891.12 743.47 894.22
  Q 742.30 894.95 740.10 898.61
  Q 740.09 892.98 742.33 890.33
  C 750.73 880.36 754.52 901.56 762.16 896.14
  Q 763.45 895.23 764.79 892.01
  C 768.06 884.20 770.55 878.21 779.69 876.90
  C 791.89 875.15 799.85 882.01 798.91 894.53
  Z"
/>
<path fill="#eddabf" d="
  M 805.00 916.75
  L 718.25 916.75
  C 719.08 915.79 719.72 915.25 721.08 915.25
  Q 762.39 915.24 803.69 915.26
  Q 805.41 915.26 805.00 916.75
  Z"
/>
<path fill="#ffffff" d="
  M 519.98 927.88
  Q 567.72 953.62 621.18 963.69
  L 628.56 1035.58
  Q 628.63 1036.25 628.05 1035.90
  C 600.38 1019.40 575.33 1045.44 566.72 1069.37
  Q 547.60 1057.80 533.49 1041.76
  Q 520.68 1027.19 509.35 1007.77
  Q 509.10 1004.72 509.25 1002.00
  Q 511.39 964.32 519.98 927.88
  Z"
/>
<path fill="#fea0b1" d="
  M 844.82 944.65
  Q 837.14 938.48 828.25 938.48
  Q 737.75 938.49 647.25 938.50
  Q 639.51 938.50 633.20 943.32
  C 634.50 928.06 649.83 930.69 660.56 930.64
  Q 743.61 930.27 826.66 930.68
  C 836.35 930.73 842.92 934.52 844.82 944.65
  Z"
/>
<path fill="#fea0b1" d="
  M 886.69 938.61
  L 857.76 938.62
  L 854.60 931.24
  Q 854.32 930.59 855.03 930.59
  L 890.51 930.57
  A 0.43 0.43 0.0 0 1 890.88 931.21
  L 886.69 938.61
  Z"
/>
<path fill="#ff2c4c" d="
  M 844.82 944.65
  L 825.39 1136.74
  C 822.24 1150.79 805.65 1157.51 792.74 1157.16
  Q 792.56 1157.16 792.50 1156.99
  Q 792.46 1156.88 792.41 1156.75
  L 803.50 960.01
  A 4.04 4.03 1.6 0 0 799.47 955.75
  L 764.75 955.75
  Q 760.26 955.75 760.26 960.24
  L 760.26 1156.75
  Q 760.12 1157.25 759.75 1157.25
  Q 740.78 1157.25 721.81 1157.25
  C 720.67 1157.25 719.67 1156.89 718.67 1156.49
  Q 718.94 1063.82 718.55 971.12
  C 718.54 968.08 720.32 955.80 715.18 955.78
  Q 697.68 955.71 680.17 955.77
  C 673.81 955.79 675.39 962.02 675.62 966.18
  Q 681.02 1061.34 686.31 1156.49
  Q 685.95 1156.58 685.80 1156.84
  Q 685.58 1157.21 685.16 1157.18
  Q 668.12 1155.90 656.76 1143.24
  C 653.18 1139.25 654.79 1134.05 652.09 1129.24
  C 647.84 1088.06 643.77 1046.85 639.34 1005.68
  Q 637.44 987.98 635.52 970.28
  Q 634.06 956.75 633.20 943.32
  Q 639.51 938.50 647.25 938.50
  Q 737.75 938.49 828.25 938.48
  Q 837.14 938.48 844.82 944.65
  Z"
/>
<path fill="#ff2c4c" d="
  M 886.69 938.61
  Q 879.13 953.30 880.04 969.58
  L 859.19 1156.84
  L 837.60 1156.82
  Q 837.35 1156.82 837.27 1156.59
  Q 837.21 1156.44 837.27 1156.27
  Q 847.75 1053.90 858.31 951.56
  Q 859.05 944.38 857.76 938.62
  L 886.69 938.61
  Z"
/>
<path fill="#ffffff" d="
  M 718.67 1156.49
  Q 718.37 1156.74 718.52 1157.36
  L 686.49 1157.28
  Q 686.50 1156.92 686.31 1156.49
  Q 681.02 1061.34 675.62 966.18
  C 675.39 962.02 673.81 955.79 680.17 955.77
  Q 697.68 955.71 715.18 955.78
  C 720.32 955.80 718.54 968.08 718.55 971.12
  Q 718.94 1063.82 718.67 1156.49
  Z"
/>
<path fill="#ffffff" d="
  M 792.41 1156.75
  Q 792.17 1156.90 792.25 1157.39
  L 760.46 1157.36
  Q 760.63 1156.80 760.26 1156.75
  L 760.26 960.24
  Q 760.26 955.75 764.75 955.75
  L 799.47 955.75
  A 4.04 4.03 1.6 0 1 803.50 960.01
  L 792.41 1156.75
  Z"
/>
<path fill="#ffffff" d="
  M 880.04 969.58
  Q 882.92 995.65 907.19 1006.81
  Q 907.89 1007.13 907.70 1007.76
  L 888.80 1157.05
  Q 888.76 1157.10 888.72 1157.15
  L 859.22 1157.12
  Q 859.30 1157.02 859.19 1156.84
  L 880.04 969.58
  Z"
/>
<path fill="#ff2c4c" d="
  M 931.81 1046.45
  Q 930.48 1049.98 930.79 1053.51
  L 922.76 1132.54
  L 921.99 1137.52
  Q 921.92 1137.98 921.58 1138.29
  C 920.57 1139.19 920.29 1140.71 919.59 1141.59
  Q 907.95 1156.17 888.80 1157.05
  L 907.70 1007.76
  Q 908.31 1007.38 908.71 1007.54
  Q 921.09 1012.36 934.47 1012.79
  Q 934.99 1012.81 934.94 1013.32
  L 931.81 1046.45
  Z"
/>
<path fill="#b2b2d4" d="
  M 509.35 1007.77
  Q 520.68 1027.19 533.49 1041.76
  Q 547.60 1057.80 566.72 1069.37
  C 559.80 1093.87 559.01 1123.17 568.42 1147.27
  A 0.42 0.42 0.0 0 1 567.79 1147.76
  C 521.94 1114.94 506.89 1061.99 509.35 1007.77
  Z"
/>
<path fill="#b7b2c5" d="
  M 629.19 1055.56
  C 626.83 1054.73 624.40 1053.33 622.46 1052.68
  C 601.29 1045.59 585.25 1066.33 577.65 1082.68
  C 581.57 1060.66 605.97 1026.93 629.19 1055.56
  Z"
/>
<path fill="#60547c" d="
  M 931.81 1046.45
  L 930.79 1053.51
  Q 930.48 1049.98 931.81 1046.45
  Z"
/>
<path fill="#60547c" d="
  M 629.19 1055.56
  C 631.35 1058.17 631.05 1060.97 631.42 1064.23
  Q 634.53 1091.88 637.00 1118.56
  Q 632.11 1124.57 627.71 1129.96
  C 612.31 1148.78 592.80 1139.60 576.95 1127.21
  Q 573.32 1105.53 577.65 1082.68
  C 585.25 1066.33 601.29 1045.59 622.46 1052.68
  C 624.40 1053.33 626.83 1054.73 629.19 1055.56
  Z"
/>
<path fill="#b7b2c5" d="
  M 996.67 1102.57
  Q 995.75 1099.12 994.88 1095.80
  C 991.59 1083.31 981.11 1071.25 967.00 1072.75
  Q 956.56 1073.86 945.39 1081.79
  Q 950.12 1075.93 956.86 1071.12
  C 985.49 1050.67 998.60 1078.86 996.67 1102.57
  Z"
/>
<path fill="#60547c" d="
  M 996.67 1102.57
  Q 996.35 1116.68 991.67 1128.42
  Q 981.80 1138.98 970.07 1143.81
  C 957.96 1148.80 947.41 1146.91 935.74 1142.13
  Q 938.41 1115.16 941.36 1087.96
  Q 941.59 1085.83 942.55 1084.44
  Q 943.91 1082.48 945.39 1081.79
  Q 956.56 1073.86 967.00 1072.75
  C 981.11 1071.25 991.59 1083.31 994.88 1095.80
  Q 995.75 1099.12 996.67 1102.57
  Z"
/>
<path fill="#b7b2c5" d="
  M 512.42 1102.14
  Q 509.28 1101.29 505.16 1099.38
  C 491.56 1093.06 474.32 1090.66 463.26 1103.34
  C 465.26 1085.03 487.86 1090.11 498.77 1094.71
  Q 506.77 1098.08 512.42 1102.14
  Z"
/>
<path fill="#60547c" d="
  M 512.42 1102.14
  L 513.18 1104.39
  C 510.35 1137.51 479.78 1122.57 464.01 1111.27
  Q 462.98 1107.85 463.26 1103.34
  C 474.32 1090.66 491.56 1093.06 505.16 1099.38
  Q 509.28 1101.29 512.42 1102.14
  Z"
/>
<path fill="#443c78" d="
  M 513.18 1104.39
  Q 523.40 1124.88 538.49 1140.99
  A 0.24 0.23 -25.8 0 1 538.35 1141.38
  C 512.40 1145.13 474.28 1140.96 464.01 1111.27
  C 479.78 1122.57 510.35 1137.51 513.18 1104.39
  Z"
/>
<path fill="#443c78" d="
  M 637.00 1118.56
  Q 639.46 1139.97 640.04 1147.50
  Q 641.05 1160.52 646.89 1171.10
  Q 647.15 1171.58 646.68 1171.87
  Q 643.87 1173.62 640.32 1173.83
  C 606.46 1175.83 583.04 1161.35 576.95 1127.21
  C 592.80 1139.60 612.31 1148.78 627.71 1129.96
  Q 632.11 1124.57 637.00 1118.56
  Z"
/>
<path fill="#443c78" d="
  M 991.67 1128.42
  C 984.01 1154.89 960.35 1186.83 928.27 1172.26
  A 0.53 0.52 27.2 0 1 928.03 1171.52
  C 933.30 1162.28 934.82 1154.39 935.74 1142.13
  C 947.41 1146.91 957.96 1148.80 970.07 1143.81
  Q 981.80 1138.98 991.67 1128.42
  Z"
/>
<path fill="#b32057" d="
  M 652.09 1129.24
  C 654.79 1134.05 653.18 1139.25 656.76 1143.24
  Q 668.12 1155.90 685.16 1157.18
  Q 685.58 1157.21 685.80 1156.84
  Q 685.95 1156.58 686.31 1156.49
  Q 686.50 1156.92 686.49 1157.28
  C 686.52 1160.22 688.44 1161.46 691.30 1161.48
  Q 702.35 1161.54 713.43 1161.48
  C 716.51 1161.47 718.25 1160.53 718.52 1157.36
  Q 718.37 1156.74 718.67 1156.49
  C 719.67 1156.89 720.67 1157.25 721.81 1157.25
  Q 740.78 1157.25 759.75 1157.25
  Q 760.12 1157.25 760.26 1156.75
  Q 760.63 1156.80 760.46 1157.36
  C 760.57 1160.13 762.19 1161.47 764.99 1161.48
  Q 776.23 1161.54 787.48 1161.47
  C 790.36 1161.45 792.02 1160.25 792.25 1157.39
  Q 792.17 1156.90 792.41 1156.75
  Q 792.46 1156.88 792.50 1156.99
  Q 792.56 1157.16 792.74 1157.16
  C 805.65 1157.51 822.24 1150.79 825.39 1136.74
  C 823.87 1154.16 823.46 1171.61 803.68 1178.19
  Q 799.04 1179.73 787.54 1179.74
  Q 742.64 1179.75 697.75 1179.76
  Q 683.06 1179.76 677.87 1178.35
  C 666.22 1175.16 657.16 1165.79 654.97 1153.54
  Q 652.81 1141.50 652.09 1129.24
  Z"
/>
<path fill="#b32057" d="
  M 922.76 1132.54
  C 922.07 1141.63 921.67 1152.56 918.13 1160.37
  Q 911.86 1174.22 897.38 1178.29
  Q 892.10 1179.78 880.49 1179.78
  Q 853.73 1179.77 826.98 1179.74
  Q 826.31 1179.73 826.74 1179.22
  Q 835.18 1169.10 837.27 1156.27
  Q 837.21 1156.44 837.27 1156.59
  Q 837.35 1156.82 837.60 1156.82
  L 859.19 1156.84
  Q 859.30 1157.02 859.22 1157.12
  C 859.31 1160.35 861.31 1161.45 864.40 1161.47
  Q 873.86 1161.54 883.34 1161.48
  C 886.57 1161.46 888.39 1160.44 888.72 1157.15
  Q 888.76 1157.10 888.80 1157.05
  Q 907.95 1156.17 919.59 1141.59
  C 920.29 1140.71 920.57 1139.19 921.58 1138.29
  Q 921.92 1137.98 921.99 1137.52
  L 922.76 1132.54
  Z"
/>
<path fill="#a77edc" d="
  M 474.94 1145.13
  Q 492.07 1154.91 513.08 1156.10
  Q 531.85 1157.17 551.39 1153.18
  Q 551.89 1153.07 552.29 1153.39
  Q 567.08 1164.81 583.95 1172.47
  Q 587.76 1174.20 592.37 1176.99
  Q 609.62 1187.43 629.94 1187.74
  C 642.50 1187.93 655.16 1190.32 667.77 1191.06
  C 674.26 1191.44 681.11 1193.45 687.81 1193.47
  Q 734.28 1193.59 875.75 1193.47
  C 893.76 1193.45 904.92 1193.19 917.87 1182.87
  A 0.88 0.87 -49.4 0 1 918.86 1182.79
  C 953.01 1202.50 983.62 1178.73 998.66 1148.69
  C 1018.20 1152.31 1037.76 1156.47 1056.55 1162.86
  C 1065.80 1166.00 1076.73 1170.57 1083.11 1177.88
  C 1102.71 1200.36 1022.96 1216.08 1013.72 1217.87
  C 956.20 1229.05 897.41 1234.29 838.94 1237.11
  Q 729.98 1242.36 621.00 1237.53
  Q 561.28 1234.88 504.75 1228.24
  C 475.92 1224.86 445.28 1220.08 416.18 1212.83
  C 400.30 1208.87 334.04 1190.18 385.07 1167.06
  Q 399.26 1160.63 420.83 1155.61
  Q 446.96 1149.52 474.94 1145.13
  Z"
/>
<path fill="#b7b0d1" d="
  M 888.72 1157.15
  C 888.39 1160.44 886.57 1161.46 883.34 1161.48
  Q 873.86 1161.54 864.40 1161.47
  C 861.31 1161.45 859.31 1160.35 859.22 1157.12
  L 888.72 1157.15
  Z"
/>
<path fill="#b7b0d1" d="
  M 686.49 1157.28
  L 718.52 1157.36
  C 718.25 1160.53 716.51 1161.47 713.43 1161.48
  Q 702.35 1161.54 691.30 1161.48
  C 688.44 1161.46 686.52 1160.22 686.49 1157.28
  Z"
/>
<path fill="#b7b0d1" d="
  M 792.25 1157.39
  C 792.02 1160.25 790.36 1161.45 787.48 1161.47
  Q 776.23 1161.54 764.99 1161.48
  C 762.19 1161.47 760.57 1160.13 760.46 1157.36
  L 792.25 1157.39
  Z"
/>
</svg>
