<?xml version="1.0" encoding="UTF-8" standalone="no"?>
<!DOCTYPE svg PUBLIC "-//W3C//DTD SVG 1.1//EN" "http://www.w3.org/Graphics/SVG/1.1/DTD/svg11.dtd">
<svg xmlns="http://www.w3.org/2000/svg" version="1.1" viewBox="0.00 0.00 1024.00 1024.00">
<g stroke-width="2.00" fill="none" stroke-linecap="butt">
<path stroke="#5c8b83" vector-effect="non-scaling-stroke" d="
  M 329.49 768.06
  Q 329.59 768.57 329.45 768.87
  Q 329.32 769.15 328.81 769.16
  Q 293.62 769.71 255.00 776.77
  C 242.46 779.06 217.35 784.82 209.74 794.47
  C 203.35 802.56 219.84 808.82 225.64 810.72
  Q 259.69 821.87 295.09 826.94
  C 368.75 837.50 443.95 841.63 518.32 840.27
  C 577.50 839.18 638.97 836.62 698.09 830.28
  Q 733.49 826.49 768.26 818.77
  C 772.83 817.76 826.86 804.77 816.32 794.17
  C 811.97 789.81 806.69 787.10 800.38 784.94
  C 770.41 774.72 737.18 770.41 705.72 768.07
  Q 705.27 768.04 704.91 768.30
  Q 704.49 768.61 703.64 768.56"
/>
<path stroke="#3b5563" vector-effect="non-scaling-stroke" d="
  M 703.64 768.56
  Q 703.09 767.95 702.98 767.40
  A 0.61 0.60 -14.7 0 1 703.39 766.71
  C 740.26 755.04 774.84 729.39 785.93 691.69
  Q 793.16 667.11 794.56 637.31
  C 796.92 587.08 797.72 543.53 788.94 496.92
  Q 784.93 475.65 776.93 455.57
  C 763.60 422.12 731.75 400.29 698.56 389.69
  C 665.22 379.03 629.93 373.89 594.51 372.17
  A 2.63 2.62 69.0 0 1 592.77 371.39
  Q 584.58 363.06 574.64 356.91
  Q 574.20 356.63 574.54 356.24
  Q 583.08 346.44 591.94 336.94
  Q 633.46 292.37 674.80 247.66
  Q 675.13 247.30 675.61 247.36
  Q 694.82 249.66 706.23 235.46
  C 718.28 220.45 711.51 199.00 694.41 191.57
  C 679.35 185.04 663.33 191.99 656.42 206.48
  Q 650.05 219.84 656.11 234.61
  Q 656.33 235.14 655.94 235.55
  L 551.54 345.70
  Q 551.14 346.12 550.57 345.96
  Q 515.95 336.09 485.76 354.73
  Q 485.38 354.96 485.09 354.63
  L 391.83 247.52
  Q 391.43 247.06 391.77 246.55
  C 398.47 236.41 391.08 219.66 383.53 212.41
  C 370.12 199.55 345.20 204.86 338.17 221.93
  C 332.65 235.32 335.60 250.79 348.26 258.98
  Q 360.56 266.94 374.09 261.36
  Q 374.57 261.16 374.90 261.55
  Q 381.40 268.96 387.68 276.57
  C 411.97 305.98 436.67 335.03 460.43 364.87
  A 0.28 0.28 0.0 0 1 460.23 365.32
  C 443.09 366.18 426.03 367.78 408.93 369.32
  C 362.90 373.47 298.05 386.51 271.42 430.93
  C 261.65 447.22 257.01 467.37 253.21 486.69
  C 241.21 547.71 230.91 609.68 241.88 669.38
  C 245.72 690.30 253.07 709.04 265.71 726.24
  C 281.25 747.40 304.91 760.33 329.49 768.06"
/>
<path stroke="#2d3c51" vector-effect="non-scaling-stroke" d="
  M 703.64 768.56
  Q 707.84 776.33 710.31 784.68
  C 714.01 797.18 708.61 816.50 691.68 813.19
  C 678.68 810.66 667.98 786.84 663.24 777.30
  A 0.73 0.73 0.0 0 0 662.50 776.90
  Q 617.17 782.15 576.25 783.45
  Q 488.39 786.26 397.06 779.45
  Q 385.69 778.60 374.32 777.10
  Q 373.82 777.03 373.61 777.49
  C 368.66 788.23 350.85 821.39 335.17 813.31
  C 319.82 805.40 327.76 780.89 333.59 769.72
  Q 333.88 769.16 333.27 769.01
  L 329.49 768.06"
/>
<path stroke="#a7c7bc" vector-effect="non-scaling-stroke" d="
  M 283.05 252.96
  C 290.79 256.63 298.31 262.29 305.34 267.23
  A 0.49 0.48 12.5 0 0 306.10 266.75
  C 304.72 259.28 299.85 254.78 293.87 250.13
  C 288.48 245.94 289.49 225.61 290.29 219.74
  Q 290.62 217.26 288.32 215.19
  Q 277.76 205.65 266.74 195.79
  A 1.04 1.03 -45.6 0 0 265.33 195.81
  Q 263.30 197.74 262.45 200.37
  Q 262.32 200.80 262.60 201.15
  Q 269.54 209.80 276.80 218.18
  C 279.82 221.67 282.81 225.01 282.25 228.75
  C 281.12 236.37 282.18 244.59 282.58 252.27
  Q 282.61 252.76 283.05 252.96"
/>
<path stroke="#a7c7bc" vector-effect="non-scaling-stroke" d="
  M 313.84 201.46
  C 308.28 212.58 321.39 229.73 327.16 238.77
  A 0.41 0.41 0.0 0 0 327.89 238.42
  Q 326.50 234.07 324.87 229.65
  C 321.34 220.01 313.05 212.73 314.79 201.76
  A 0.50 0.50 0.0 0 0 313.84 201.46"
/>
<path stroke="#a9c8bd" vector-effect="non-scaling-stroke" d="
  M 789.32 201.96
  C 776.12 210.16 761.84 221.53 753.11 234.51
  A 1.82 1.72 -28.3 0 0 752.81 235.42
  Q 752.10 250.39 756.46 264.71
  C 757.86 269.29 755.72 273.90 752.86 277.38
  C 746.45 285.17 738.60 292.06 732.03 299.89
  A 0.40 0.40 0.0 0 0 732.44 300.53
  Q 734.31 300.04 736.22 299.17
  Q 748.08 293.77 759.99 288.42
  Q 760.44 288.21 760.53 287.73
  C 761.45 282.86 763.20 280.56 766.57 276.91
  C 769.58 273.65 768.85 270.62 767.46 266.24
  Q 765.37 259.67 763.41 253.07
  C 761.72 247.35 762.12 243.97 765.88 239.09
  C 774.25 228.22 784.01 215.17 789.59 202.20
  Q 789.83 201.65 789.32 201.96"
/>
<path stroke="#a7c7bc" vector-effect="non-scaling-stroke" d="
  M 728.44 234.19
  C 728.25 236.57 728.27 238.56 727.38 240.84
  C 720.71 257.92 714.25 275.20 702.00 289.20
  C 700.38 291.05 699.12 293.05 697.80 295.05
  Q 697.54 295.44 697.58 295.97
  Q 697.62 296.48 697.96 296.10
  Q 709.70 282.65 716.42 273.42
  Q 722.68 264.82 724.04 261.77
  Q 729.16 250.34 729.34 234.21
  Q 729.34 233.82 728.95 233.74
  Q 728.48 233.65 728.44 234.19"
/>
<path stroke="#7c4c30" vector-effect="non-scaling-stroke" d="
  M 669.5965 233.1664
  A 19.58 19.00 132.8 0 0 696.8409 231.7094
  A 19.58 19.00 132.8 0 0 696.2035 204.4336
  A 19.58 19.00 132.8 0 0 668.9591 205.8906
  A 19.58 19.00 132.8 0 0 669.5965 233.1664"
/>
<path stroke="#7d4e2f" vector-effect="non-scaling-stroke" d="
  M 383.73 234.66
  A 19.32 19.32 0.0 0 0 364.41 215.34
  A 19.32 19.32 0.0 0 0 345.09 234.66
  A 19.32 19.32 0.0 0 0 364.41 253.98
  A 19.32 19.32 0.0 0 0 383.73 234.66"
/>
<path stroke="#7e4f3c" vector-effect="non-scaling-stroke" d="
  M 561.44 349.31
  Q 563.20 350.25 565.07 351.11
  Q 565.56 351.34 565.92 350.95
  Q 628.54 284.17 649.42 261.67
  Q 654.98 255.67 664.76 244.07
  Q 665.18 243.56 664.62 243.21
  L 662.27 241.77
  Q 661.86 241.52 661.53 241.87
  Q 629.60 276.21 597.64 310.51
  C 585.69 323.34 573.07 335.89 560.84 348.62
  Q 560.46 349.02 560.96 349.23
  Q 561.18 349.33 561.44 349.31"
/>
<path stroke="#7e4f3c" vector-effect="non-scaling-stroke" d="
  M 473.47 363.66
  L 480.30 363.21
  Q 480.83 363.17 480.42 362.83
  C 479.02 361.66 477.40 360.70 476.25 359.39
  C 442.89 321.18 415.88 289.10 385.59 254.06
  Q 385.19 253.59 384.66 253.92
  L 382.67 255.14
  Q 382.00 255.54 382.49 256.14
  Q 426.50 310.95 473.15 363.53
  A 0.41 0.41 0.0 0 0 473.47 363.66"
/>
<path stroke="#804b31" vector-effect="non-scaling-stroke" d="
  M 487.23 365.56
  C 511.51 367.42 535.79 369.24 559.90 372.42
  Q 569.92 373.74 580.05 374.59
  Q 580.75 374.65 580.30 374.10
  Q 576.75 369.77 572.10 366.67
  C 547.06 350.00 511.63 345.54 487.06 364.98
  A 0.33 0.32 -61.5 0 0 487.23 365.56"
/>
<path stroke="#63362f" vector-effect="non-scaling-stroke" d="
  M 254.41 667.66
  Q 256.42 679.40 259.28 686.94
  C 281.71 746.02 340.80 758.17 396.32 763.38
  Q 511.49 774.18 626.83 764.95
  C 681.96 760.53 748.62 746.65 772.78 688.92"
/>
<path stroke="#804c2e" vector-effect="non-scaling-stroke" d="
  M 772.78 688.92
  Q 779.69 671.68 781.75 653.50
  Q 784.72 627.26 784.82 599.23"
/>
<path stroke="#807685" vector-effect="non-scaling-stroke" d="
  M 784.82 599.23
  Q 785.96 565.95 782.48 532.87
  C 780.33 512.45 777.48 491.96 771.51 472.74
  C 761.43 440.22 737.22 417.24 705.83 404.40
  Q 674.36 391.52 640.54 387.15"
/>
<path stroke="#804c2e" vector-effect="non-scaling-stroke" d="
  M 640.54 387.15
  Q 625.47 385.08 618.25 384.75
  Q 589.50 383.43 560.81 381.67"
/>
<path stroke="#7e7480" vector-effect="non-scaling-stroke" d="
  M 560.81 381.67
  C 505.61 377.15 452.94 375.51 398.18 382.00
  C 359.56 386.58 300.66 400.11 280.05 437.80
  C 270.20 455.82 265.51 478.04 261.98 499.00
  C 253.83 547.38 246.11 596.61 250.87 644.68
  Q 252.16 657.73 254.41 667.66"
/>
<path stroke="#f2bb7d" vector-effect="non-scaling-stroke" d="
  M 560.81 381.67
  Q 560.54 382.96 558.49 382.80
  C 551.93 382.28 545.53 382.86 538.03 382.91
  Q 533.45 382.94 529.07 383.77"
/>
<path stroke="#f6c2a1" vector-effect="non-scaling-stroke" d="
  M 529.07 383.77
  L 510.72 383.17"
/>
<path stroke="#f2bb7d" vector-effect="non-scaling-stroke" d="
  M 510.72 383.17
  Q 473.38 381.83 435.94 383.32
  C 398.62 384.81 358.74 390.38 325.06 407.55
  C 290.53 425.16 272.91 461.48 265.89 498.43
  C 258.76 535.98 257.04 575.12 259.10 613.24
  Q 260.40 637.40 267.68 660.44
  C 270.58 669.63 274.58 673.75 281.94 680.81"
/>
<path stroke="#d5a57d" vector-effect="non-scaling-stroke" d="
  M 281.94 680.81
  C 278.28 684.68 271.59 691.12 266.28 685.95
  Q 258.66 678.52 254.41 667.66"
/>
<path stroke="#f4bd82" vector-effect="non-scaling-stroke" d="
  M 640.54 387.15
  L 640.28 387.68
  Q 640.02 388.20 640.59 388.33
  Q 648.38 390.20 656.20 391.99
  C 683.81 398.31 709.83 409.09 731.50 427.62
  C 744.44 438.69 754.79 450.27 760.92 465.82
  Q 785.90 529.13 783.79 598.40
  Q 783.78 598.90 784.03 599.04
  Q 784.29 599.20 784.82 599.23"
/>
<path stroke="#d77d2c" vector-effect="non-scaling-stroke" d="
  M 772.78 688.92
  Q 762.37 691.90 758.76 692.23
  C 747.69 693.26 734.58 687.89 736.27 674.48
  Q 737.84 662.08 739.27 649.50
  Q 739.35 648.85 738.76 649.15
  L 732.63 652.33"
/>
<path stroke="#804c2d" vector-effect="non-scaling-stroke" d="
  M 732.63 652.33
  Q 736.28 638.66 738.13 624.93
  C 740.20 609.50 742.21 593.57 743.08 578.45
  Q 745.60 534.88 739.53 491.58
  Q 737.89 479.84 734.49 468.51
  C 722.05 426.98 685.45 416.88 647.76 409.43
  C 603.97 400.77 558.60 394.05 514.74 392.11
  C 482.35 390.67 452.03 391.20 416.69 395.16
  C 373.15 400.03 324.42 412.95 303.66 455.86
  Q 298.06 467.46 294.33 479.77
  Q 281.88 520.87 280.67 563.81
  C 279.93 590.00 280.35 616.19 283.86 642.18
  Q 285.66 655.44 290.18 669.38"
/>
<path stroke="#d77d2c" vector-effect="non-scaling-stroke" d="
  M 290.18 669.38
  L 281.94 680.81"
/>
<path stroke="#f89a4f" vector-effect="non-scaling-stroke" d="
  M 510.72 383.17
  Q 519.64 384.69 529.07 383.77"
/>
<path stroke="#63362d" vector-effect="non-scaling-stroke" d="
  M 732.63 652.33
  C 724.50 684.80 710.71 712.77 678.25 726.34
  C 649.31 738.43 618.62 743.83 587.44 745.66
  Q 515.40 749.91 443.42 744.80
  Q 407.07 742.22 376.94 735.09
  C 341.66 726.73 310.29 715.62 294.88 680.40
  Q 292.65 675.30 290.18 669.38"
/>
<path stroke="#7b4e34" vector-effect="non-scaling-stroke" d="
  M 691.24 801.63
  C 694.92 805.29 699.62 800.25 700.42 796.43
  C 701.84 789.60 696.88 778.15 694.14 771.23
  Q 693.99 770.87 693.61 770.94
  L 674.65 774.38
  A 0.18 0.17 71.8 0 0 674.53 774.63
  Q 679.85 786.30 687.10 796.87
  Q 688.51 798.93 691.24 801.63"
/>
<path stroke="#7b4e34" vector-effect="non-scaling-stroke" d="
  M 336.57 798.43
  C 337.86 806.16 344.83 801.39 347.54 798.31
  Q 356.66 787.95 362.85 775.62
  Q 363.12 775.09 362.53 774.98
  L 342.52 771.41
  Q 342.06 771.33 341.91 771.77
  C 339.45 779.16 335.36 791.19 336.57 798.43"
/>
<path stroke="#585069" vector-effect="non-scaling-stroke" d="
  M 321.24 699.33
  Q 323.71 702.40 326.82 704.18
  C 348.56 716.56 372.62 723.67 397.12 727.78
  C 416.01 730.94 435.46 733.07 454.75 733.98
  Q 507.26 736.43 559.80 735.04
  C 568.42 734.81 577.07 733.87 585.77 733.11
  C 603.10 731.59 622.45 731.55 639.98 726.74"
/>
<path stroke="#614659" vector-effect="non-scaling-stroke" d="
  M 639.98 726.74
  C 661.74 722.18 681.27 715.50 697.24 699.93"
/>
<path stroke="#745f71" vector-effect="non-scaling-stroke" d="
  M 697.24 699.93
  L 703.55 691.73"
/>
<path stroke="#614659" vector-effect="non-scaling-stroke" d="
  M 703.55 691.73
  L 707.73 685.28"
/>
<path stroke="#745f71" vector-effect="non-scaling-stroke" d="
  M 707.73 685.28
  Q 715.15 671.20 719.00 655.77"
/>
<path stroke="#7c7585" vector-effect="non-scaling-stroke" d="
  M 719.00 655.77
  C 729.78 613.64 733.75 571.71 731.66 528.42
  C 729.90 491.95 726.07 446.52 685.81 431.68
  Q 670.99 426.22 656.77 422.88
  C 622.56 414.85 587.56 410.16 552.64 406.55
  C 534.71 404.69 517.66 404.18 498.69 403.56
  Q 453.62 402.08 410.28 408.25
  C 376.99 412.98 339.67 423.12 319.46 452.51
  C 309.26 467.34 303.22 486.26 299.45 504.19
  C 290.89 544.93 290.19 585.83 294.28 626.80
  Q 296.84 652.41 303.98 673.50
  Q 309.17 688.83 321.24 699.33"
/>
<path stroke="#e3cfc7" vector-effect="non-scaling-stroke" d="
  M 719.00 655.77
  L 711.10 653.28"
/>
<path stroke="#bfbdbf" vector-effect="non-scaling-stroke" d="
  M 711.10 653.28
  C 717.73 621.44 719.63 588.00 719.72 555.56
  C 719.79 528.59 717.20 502.61 707.73 477.15"
/>
<path stroke="#c3c2c5" vector-effect="non-scaling-stroke" d="
  M 707.73 477.15
  Q 704.49 464.84 696.27 454.22
  C 684.84 439.44 671.70 435.02 654.46 429.93"
/>
<path stroke="#d8d5d1" vector-effect="non-scaling-stroke" d="
  M 654.46 429.93
  Q 645.40 427.02 635.73 425.34
  Q 598.55 418.85 561.00 415.04
  Q 557.40 414.67 550.17 414.40"
/>
<path stroke="#ccc9c8" vector-effect="non-scaling-stroke" d="
  M 550.17 414.40
  C 536.68 413.63 523.23 413.80 509.74 413.23
  C 474.53 411.75 439.50 412.68 404.99 420.43
  C 386.28 424.64 365.91 431.59 350.68 444.40"
/>
<path stroke="#c2c2c3" vector-effect="non-scaling-stroke" d="
  M 350.68 444.40
  C 321.63 468.55 310.64 511.77 309.12 547.76
  Q 307.80 579.04 309.25 610.31
  C 310.62 640.04 315.92 668.03 333.82 691.30
  A 0.87 0.86 -31.0 0 0 334.87 691.56
  L 341.09 688.72
  A 0.55 0.55 0.0 0 0 341.28 687.86
  C 335.00 680.65 328.58 672.22 325.90 662.90
  C 321.66 648.15 320.81 635.30 319.17 617.81
  C 316.33 587.53 317.83 560.97 320.80 527.95
  C 324.22 489.87 338.55 454.27 375.87 438.20
  C 406.25 425.12 441.71 420.81 474.53 420.23"
/>
<path stroke="#ccc9c8" vector-effect="non-scaling-stroke" d="
  M 474.53 420.23
  L 549.94 419.19"
/>
<path stroke="#d8d5d1" vector-effect="non-scaling-stroke" d="
  M 549.94 419.19
  Q 563.84 421.42 577.75 423.01
  C 603.38 425.94 628.64 431.26 653.61 437.92"
/>
<path stroke="#c3c2c5" vector-effect="non-scaling-stroke" d="
  M 653.61 437.92
  Q 690.79 448.46 702.19 486.07
  Q 708.29 506.21 709.21 525.26
  Q 710.63 554.43 709.82 590.56
  Q 709.11 622.09 703.95 647.69
  Q 703.89 648.02 704.20 647.90
  Q 707.22 646.75 710.43 649.51"
/>
<path stroke="#bfbdbf" vector-effect="non-scaling-stroke" d="
  M 710.43 649.51
  C 708.85 651.60 706.21 650.56 703.99 650.31
  Q 703.47 650.25 703.34 650.76
  L 702.31 654.84"
/>
<path stroke="#d1cecc" vector-effect="non-scaling-stroke" d="
  M 702.31 654.84
  Q 702.18 655.06 702.30 655.49"
/>
<path stroke="#bfbdbf" vector-effect="non-scaling-stroke" d="
  M 702.30 655.49
  Q 701.92 656.15 701.74 656.82
  Q 693.72 685.56 668.46 701.50"
/>
<path stroke="#b7b4b8" vector-effect="non-scaling-stroke" d="
  M 668.46 701.50
  Q 648.74 711.71 626.19 716.19
  C 594.97 722.39 563.07 726.50 531.50 726.87
  Q 494.69 727.30 471.81 726.64
  Q 441.83 725.78 432.56 724.96
  Q 390.08 721.24 349.26 708.75"
/>
<path stroke="#c7c0c0" vector-effect="non-scaling-stroke" d="
  M 349.26 708.75
  Q 335.49 705.26 321.24 699.33"
/>
<path stroke="#979aa9" vector-effect="non-scaling-stroke" d="
  M 707.73 477.15
  Q 716.74 507.01 717.93 532.50
  C 719.21 559.72 718.26 595.63 714.57 626.56
  Q 713.16 638.31 710.43 649.51"
/>
<path stroke="#afb2bb" vector-effect="non-scaling-stroke" d="
  M 654.46 429.93
  L 658.46 433.39
  A 0.50 0.50 0.0 0 1 658.60 433.95
  L 657.45 436.89
  A 0.53 0.52 -77.4 0 1 656.94 437.22
  Q 654.86 437.13 653.61 437.92"
/>
<path stroke="#938f9c" vector-effect="non-scaling-stroke" d="
  M 349.26 708.75
  Q 348.87 709.59 349.05 710.17
  Q 349.20 710.67 350.03 710.88
  Q 362.19 713.94 374.30 717.20
  C 377.41 718.04 381.27 719.30 384.25 719.71
  Q 394.56 721.13 404.53 724.13
  C 408.89 725.45 414.26 725.90 418.85 726.13
  C 426.72 726.52 434.22 728.08 442.17 728.47
  C 448.32 728.76 454.82 727.72 461.44 728.51
  Q 467.49 729.23 470.75 729.20
  Q 494.66 729.02 518.58 728.87
  C 526.02 728.82 537.42 728.05 546.88 728.45
  Q 547.35 728.47 547.68 728.82
  C 548.99 730.26 550.84 729.10 552.34 728.76
  A 1.27 1.26 -36.3 0 1 553.28 728.90
  Q 554.47 729.60 555.71 729.03
  A 1.24 1.20 -49.9 0 1 556.51 728.95
  L 559.78 729.70"
/>
<path stroke="#a8a4ac" vector-effect="non-scaling-stroke" d="
  M 559.78 729.70
  C 552.41 729.94 545.36 729.58 537.95 730.85
  A 0.82 0.81 40.5 0 0 538.08 732.47
  C 549.85 732.65 562.59 733.50 574.41 731.75
  Q 581.20 730.74 588.10 730.78
  Q 588.54 730.79 588.91 730.54
  Q 589.69 730.03 590.52 730.56
  Q 590.70 730.67 590.55 730.83
  L 590.33 731.04
  Q 590.06 731.32 590.41 731.47
  Q 592.16 732.27 593.66 731.21
  Q 594.00 730.96 594.42 730.91
  Q 597.72 730.51 600.48 728.62"
/>
<path stroke="#938f9c" vector-effect="non-scaling-stroke" d="
  M 600.48 728.62
  Q 602.93 727.88 606.13 728.86
  A 1.93 1.88 -41.2 0 0 607.09 728.91
  C 623.33 725.75 638.78 723.01 654.35 717.16
  C 660.53 714.84 666.66 711.68 672.67 708.58"
/>
<path stroke="#c9a09b" vector-effect="non-scaling-stroke" d="
  M 707.73 685.28
  Q 705.47 683.56 706.93 683.66"
/>
<path stroke="#e7d0c6" vector-effect="non-scaling-stroke" d="
  M 706.93 683.66
  L 706.74 676.73
  A 0.59 0.54 -35.6 0 1 706.80 676.44
  L 713.06 663.90
  A 0.34 0.32 53.4 0 0 713.09 663.64
  Q 712.94 663.17 712.66 663.25
  Q 712.53 663.28 712.38 663.50
  Q 711.04 665.47 708.18 663.43"
/>
<path stroke="#b9b9be" vector-effect="non-scaling-stroke" d="
  M 550.17 414.40
  L 549.94 419.19"
/>
<path stroke="#a3a6b0" vector-effect="non-scaling-stroke" d="
  M 474.53 420.23
  Q 474.64 419.27 473.99 418.61
  Q 473.72 418.33 473.34 418.34
  Q 445.25 419.04 426.77 421.58
  Q 406.72 424.33 380.56 432.05
  Q 368.17 435.71 354.66 444.88
  C 353.25 445.84 351.69 445.68 350.68 444.40"
/>
<path stroke="#b7a6ab" vector-effect="non-scaling-stroke" d="
  M 711.10 653.28
  L 708.18 663.43"
/>
<path stroke="#c3bebe" vector-effect="non-scaling-stroke" d="
  M 708.18 663.43
  L 703.53 663.30
  Q 701.74 663.25 703.44 663.82
  L 707.19 665.07
  Q 707.77 665.27 707.58 665.85
  C 705.29 672.78 701.57 678.36 697.96 684.59
  Q 697.68 685.07 697.15 685.24
  Q 694.81 686.00 692.89 684.49
  Q 692.70 684.34 692.48 684.42
  Q 692.37 684.46 692.22 684.50
  A 0.28 0.28 0.0 0 0 692.10 684.99
  Q 694.19 686.83 697.51 687.54"
/>
<path stroke="#b7a6ab" vector-effect="non-scaling-stroke" d="
  M 697.51 687.54
  L 696.01 688.26
  Q 695.55 688.48 695.24 688.89
  C 689.44 696.64 682.17 702.48 674.38 708.06"
/>
<path stroke="#9b98a4" vector-effect="non-scaling-stroke" d="
  M 674.38 708.06
  Q 673.77 709.31 672.67 708.58"
/>
<path stroke="#8b8b9c" vector-effect="non-scaling-stroke" d="
  M 672.67 708.58
  Q 674.31 708.56 673.69 707.31
  Q 672.68 705.30 668.46 701.50"
/>
<path stroke="#a5a5b0" vector-effect="non-scaling-stroke" d="
  M 702.30 655.49
  L 707.95 655.70
  A 0.32 0.31 47.0 0 0 707.97 655.07
  L 702.31 654.84"
/>
<path stroke="#9898a4" vector-effect="non-scaling-stroke" d="
  M 600.48 728.62
  C 591.31 727.90 580.72 728.57 573.25 728.73
  Q 566.47 728.88 559.78 729.70"
/>
<path stroke="#bfaaac" vector-effect="non-scaling-stroke" d="
  M 674.64 709.21
  L 674.38 708.06"
/>
<path stroke="#c9a09b" vector-effect="non-scaling-stroke" d="
  M 703.55 691.73
  Q 699.54 693.68 696.73 697.97
  A 1.68 1.65 -38.8 0 0 696.56 699.42
  Q 696.64 699.64 697.24 699.93"
/>
<path stroke="#ad9194" vector-effect="non-scaling-stroke" d="
  M 639.98 726.74
  L 640.23 724.12
  Q 640.27 723.64 640.73 723.46
  Q 649.53 720.07 658.54 717.27
  Q 662.54 716.04 674.64 709.21"
/>
<path stroke="#c9a09b" vector-effect="non-scaling-stroke" d="
  M 674.64 709.21
  Q 688.46 701.44 698.62 689.42"
/>
<path stroke="#d5b7ae" vector-effect="non-scaling-stroke" d="
  M 706.93 683.66
  L 704.47 678.93
  Q 704.11 678.25 703.95 679.00
  Q 702.71 684.90 698.62 689.42"
/>
<path stroke="#e7d0c6" vector-effect="non-scaling-stroke" d="
  M 698.62 689.42
  Q 697.47 688.84 697.51 687.54"
/>
<path stroke="#b7b4b8" vector-effect="non-scaling-stroke" d="
  M 462.74 427.49
  L 461.76 425.90
  Q 461.47 425.44 460.93 425.48
  Q 434.01 427.69 408.01 435.03
  C 374.79 444.41 349.72 463.44 335.97 495.47
  Q 326.19 518.23 324.84 540.23
  Q 324.80 540.91 325.09 540.29
  Q 325.20 540.07 325.33 539.88
  Q 325.60 539.46 325.65 539.07
  Q 327.98 523.09 329.24 517.99
  Q 335.89 490.99 353.01 469.77"
/>
<path stroke="#d8d5d1" vector-effect="non-scaling-stroke" d="
  M 353.01 469.77
  Q 357.82 467.54 361.83 463.03
  Q 362.09 462.73 361.96 462.36
  L 361.45 460.94"
/>
<path stroke="#b7b4b8" vector-effect="non-scaling-stroke" d="
  M 361.45 460.94
  C 382.11 443.48 406.75 435.96 433.26 430.54
  Q 438.30 429.52 441.70 429.18
  A 0.72 0.72 0.0 0 1 442.47 429.71
  Q 442.61 430.28 442.48 430.67"
/>
<path stroke="#7c7686" vector-effect="non-scaling-stroke" d="
  M 442.48 430.67
  C 421.52 434.94 399.37 441.41 380.79 451.80
  C 351.85 467.99 341.50 501.53 335.02 531.75
  Q 323.66 584.71 335.70 638.00
  C 341.38 663.13 353.20 684.21 376.61 696.03
  Q 383.31 699.42 395.31 703.04
  Q 417.70 709.81 441.00 712.75
  Q 497.46 719.89 554.08 713.98
  C 595.36 709.67 659.31 695.82 680.49 654.46
  Q 689.96 635.97 693.99 613.66
  Q 701.85 570.21 696.42 526.53"
/>
<path stroke="#d1cecc" vector-effect="non-scaling-stroke" d="
  M 696.42 526.53
  C 696.94 524.45 697.73 522.83 697.78 520.68
  C 698.04 507.08 693.97 494.02 688.66 481.39
  Q 680.36 461.63 661.94 450.83
  Q 648.15 442.76 630.36 439.49"
/>
<path stroke="#7c7686" vector-effect="non-scaling-stroke" d="
  M 630.36 439.49
  C 577.15 422.75 518.90 421.81 462.74 427.49"
/>
<path stroke="#625f76" vector-effect="non-scaling-stroke" d="
  M 630.36 439.49
  Q 645.22 445.63 651.52 449.23
  C 681.05 466.14 692.33 494.12 696.42 526.53"
/>
<path stroke="#484562" vector-effect="non-scaling-stroke" d="
  M 442.48 430.67
  L 462.74 427.49"
/>
<path stroke="#a3a4ae" vector-effect="non-scaling-stroke" d="
  M 361.45 460.94
  Q 356.39 464.56 353.01 469.77"
/>
<path stroke="#9daca6" vector-effect="non-scaling-stroke" d="
  M 684.68 666.75
  Q 684.51 667.74 685.06 668.48
  A 0.73 0.72 -75.7 0 0 686.30 667.74
  Q 685.27 665.47 685.08 662.97
  Q 685.08 662.86 684.96 662.82
  Q 684.82 662.77 684.68 662.73
  A 0.15 0.14 -86.8 0 0 684.50 662.90
  C 684.81 664.39 684.98 665.09 684.68 666.75"
/>
<path stroke="#b7b4b8" vector-effect="non-scaling-stroke" d="
  M 669.6196 678.3455
  A 1.21 0.59 -39.8 0 0 668.3123 678.6667
  A 1.21 0.59 -39.8 0 0 667.7604 679.8945
  A 1.21 0.59 -39.8 0 0 669.0677 679.5733
  A 1.21 0.59 -39.8 0 0 669.6196 678.3455"
/>
<path stroke="#ccc9c8" vector-effect="non-scaling-stroke" d="
  M 356.3100 699.3304
  A 4.37 1.02 38.5 0 0 353.5250 695.8117
  A 4.37 1.02 38.5 0 0 349.4700 693.8896
  A 4.37 1.02 38.5 0 0 352.2550 697.4083
  A 4.37 1.02 38.5 0 0 356.3100 699.3304"
/>
<path stroke="#c2c2c3" vector-effect="non-scaling-stroke" d="
  M 328.8576 674.4258
  A 10.78 1.41 62.2 0 0 325.0773 664.2324
  A 10.78 1.41 62.2 0 0 318.8024 655.3542
  A 10.78 1.41 62.2 0 0 322.5827 665.5476
  A 10.78 1.41 62.2 0 0 328.8576 674.4258"
/>
<path stroke="#bec4c7" vector-effect="non-scaling-stroke" d="
  M 334.6648 683.7355
  A 2.90 0.56 56.4 0 0 333.5264 681.0101
  A 2.90 0.56 56.4 0 0 331.4552 678.9045
  A 2.90 0.56 56.4 0 0 332.5936 681.6299
  A 2.90 0.56 56.4 0 0 334.6648 683.7355"
/>
<path stroke="#512e32" vector-effect="non-scaling-stroke" d="
  M 467.51 438.01
  C 439.31 441.78 409.31 446.94 385.07 462.07
  C 362.10 476.42 352.79 501.86 348.44 527.94
  C 343.80 555.83 341.56 580.70 343.47 607.71"
/>
<path stroke="#5f352f" vector-effect="non-scaling-stroke" d="
  M 343.47 607.71
  C 344.49 624.68 347.40 645.34 355.30 660.15
  C 366.21 680.57 385.66 690.93 407.50 696.75
  C 430.28 702.81 453.48 705.53 477.23 706.82
  Q 523.94 709.35 565.25 703.72
  Q 597.06 699.39 626.86 687.50
  C 649.35 678.53 667.58 664.62 676.45 641.51
  C 682.46 625.85 685.01 608.89 686.27 591.06
  Q 688.82 554.96 684.73 524.76
  C 681.39 500.06 673.73 475.80 651.69 462.31
  Q 637.81 453.82 619.95 448.37
  C 571.03 433.44 516.83 432.09 467.51 438.01"
/>
<path stroke="#a25c31" vector-effect="non-scaling-stroke" d="
  M 343.47 607.71
  L 350.62 605.00"
/>
<path stroke="#d27c2b" vector-effect="non-scaling-stroke" d="
  M 350.62 605.00
  Q 353.40 619.70 360.05 633.48"
/>
<path stroke="#d68250" vector-effect="non-scaling-stroke" d="
  M 360.05 633.48
  Q 370.34 652.36 388.44 664.56
  Q 397.45 670.64 405.81 673.03"
/>
<path stroke="#d27c2b" vector-effect="non-scaling-stroke" d="
  M 405.81 673.03
  C 415.83 677.75 426.06 682.72 436.11 685.79
  Q 454.92 691.52 475.00 693.24
  C 522.41 697.30 574.25 692.43 616.68 669.37"
/>
<path stroke="#d58151" vector-effect="non-scaling-stroke" d="
  M 616.68 669.37
  Q 626.25 664.42 636.54 656.30
  Q 652.51 643.69 656.46 625.84"
/>
<path stroke="#d27c2b" vector-effect="non-scaling-stroke" d="
  M 656.46 625.84
  Q 660.97 607.45 666.55 590.18
  C 675.65 562.04 674.66 520.31 657.43 495.08
  C 643.90 475.26 621.41 463.39 597.33 456.37
  C 561.50 445.93 522.01 442.76 485.80 445.54
  Q 453.31 448.04 420.78 461.15"
/>
<path stroke="#a25c31" vector-effect="non-scaling-stroke" d="
  M 420.78 461.15
  Q 421.12 459.81 422.47 459.30
  Q 422.91 459.13 423.12 458.70
  Q 424.26 456.28 426.83 455.78
  Q 432.33 454.70 436.04 453.63
  Q 436.46 453.50 436.64 453.09
  Q 437.36 451.41 436.00 450.75
  Q 435.52 450.51 435.83 450.07
  Q 436.72 448.82 438.26 449.00
  Q 438.82 449.06 439.17 448.62
  Q 441.21 446.07 444.65 446.83
  A 0.91 0.89 -58.1 0 0 445.41 446.64
  L 448.60 444.02
  Q 448.99 443.70 449.49 443.70
  C 452.53 443.71 454.90 442.38 457.84 442.12
  Q 463.54 441.63 467.51 438.01"
/>
<path stroke="#f7994f" vector-effect="non-scaling-stroke" d="
  M 656.46 625.84
  Q 641.93 618.73 626.81 619.84
  C 610.33 621.05 589.39 624.50 588.69 644.67
  C 588.37 653.70 592.39 662.32 600.78 665.97
  Q 606.17 668.31 616.68 669.37"
/>
<path stroke="#f79a4e" vector-effect="non-scaling-stroke" d="
  M 405.81 673.03
  C 420.49 670.50 436.09 661.45 434.13 644.47
  C 431.85 624.72 404.82 622.80 390.24 625.21
  Q 375.49 627.65 360.05 633.48"
/>
<path stroke="#c4742f" vector-effect="non-scaling-stroke" d="
  M 420.78 461.15
  C 406.69 466.48 393.71 472.23 383.61 483.58
  C 353.24 517.73 344.05 559.80 350.62 605.00"
/>
<path stroke="#f6c188" vector-effect="non-scaling-stroke" d="
  M 394.22 485.52
  Q 398.83 489.05 403.92 486.16
  C 407.20 484.30 412.70 480.30 410.74 476.02
  C 406.71 467.24 386.87 479.87 394.22 485.52"
/>
<path stroke="#f7c58e" vector-effect="non-scaling-stroke" d="
  M 370.72 518.60
  C 372.72 520.23 374.66 521.71 377.05 521.00
  A 1.22 1.17 6.9 0 0 377.69 520.52
  L 393.98 495.69
  Q 394.83 494.39 393.86 493.18
  C 391.90 490.77 387.97 489.64 385.12 491.61
  C 379.15 495.73 373.93 503.80 370.49 509.62
  C 368.52 512.95 367.38 515.88 370.72 518.60"
/>
<path stroke="#f7c892" vector-effect="non-scaling-stroke" d="
  M 389.19 598.56
  C 416.06 622.41 458.00 611.66 469.98 577.66
  C 476.24 559.89 472.44 541.82 459.50 527.97
  C 430.35 496.80 381.00 510.42 373.56 552.76
  Q 368.71 580.39 389.19 598.56"
/>
<path stroke="#f7c892" vector-effect="non-scaling-stroke" d="
  M 568.65 599.36
  C 583.82 612.70 603.85 615.57 622.01 607.34
  C 656.95 591.52 661.73 545.49 631.98 522.42
  C 615.47 509.62 591.94 507.22 574.31 519.32
  C 546.25 538.58 542.67 576.51 568.65 599.36"
/>
<path stroke="#804d2d" vector-effect="non-scaling-stroke" d="
  M 476.83 630.80
  C 475.13 654.19 491.09 686.02 520.21 676.21
  C 530.62 672.70 535.79 663.86 539.97 653.43
  C 543.27 645.18 545.48 635.97 543.66 627.09
  Q 543.55 626.56 543.01 626.63
  Q 515.06 629.78 486.99 627.96
  C 484.33 627.78 477.13 626.61 476.83 630.80"
/>
<path stroke="#868196" vector-effect="non-scaling-stroke" d="
  M 390.47 544.38
  C 368.13 585.86 433.64 626.18 456.00 575.80
  C 475.70 531.41 411.54 505.23 390.47 544.38"
/>
<path stroke="#868196" vector-effect="non-scaling-stroke" d="
  M 564.26 561.18
  C 564.22 581.79 582.83 600.67 603.47 599.06
  C 648.33 595.56 649.26 527.08 602.81 525.52
  C 583.24 524.86 564.31 541.02 564.26 561.18"
/>
<path stroke="#867e92" vector-effect="non-scaling-stroke" d="
  M 415.3138 536.7694
  A 2.07 1.55 125.3 0 0 417.7750 535.9757
  A 2.07 1.55 125.3 0 0 417.7062 533.3906
  A 2.07 1.55 125.3 0 0 415.2450 534.1843
  A 2.07 1.55 125.3 0 0 415.3138 536.7694"
/>
<path stroke="#868196" vector-effect="non-scaling-stroke" d="
  M 439.9386 564.2174
  A 12.66 11.84 82.7 0 0 450.0740 550.1556
  A 12.66 11.84 82.7 0 0 436.7214 539.1026
  A 12.66 11.84 82.7 0 0 426.5860 553.1644
  A 12.66 11.84 82.7 0 0 439.9386 564.2174"
/>
<path stroke="#868196" vector-effect="non-scaling-stroke" d="
  M 417.0373 563.9078
  A 8.16 7.65 -18.3 0 0 406.8880 559.2069
  A 8.16 7.65 -18.3 0 0 401.5427 569.0322
  A 8.16 7.65 -18.3 0 0 411.6920 573.7331
  A 8.16 7.65 -18.3 0 0 417.0373 563.9078"
/>
<path stroke="#867e92" vector-effect="non-scaling-stroke" d="
  M 428.3489 573.0486
  A 1.25 0.77 87.3 0 0 429.0591 571.7637
  A 1.25 0.77 87.3 0 0 428.2311 570.5514
  A 1.25 0.77 87.3 0 0 427.5209 571.8363
  A 1.25 0.77 87.3 0 0 428.3489 573.0486"
/>
<path stroke="#868196" vector-effect="non-scaling-stroke" d="
  M 428.58 583.85
  A 1.21 1.21 0.0 0 0 427.37 582.64
  A 1.21 1.21 0.0 0 0 426.16 583.85
  A 1.21 1.21 0.0 0 0 427.37 585.06
  A 1.21 1.21 0.0 0 0 428.58 583.85"
/>
<path stroke="#868196" vector-effect="non-scaling-stroke" d="
  M 600.6313 533.5919
  A 1.97 1.64 -29.1 0 0 598.1124 533.1170
  A 1.97 1.64 -29.1 0 0 597.1887 535.5081
  A 1.97 1.64 -29.1 0 0 599.7076 535.9830
  A 1.97 1.64 -29.1 0 0 600.6313 533.5919"
/>
<path stroke="#868196" vector-effect="non-scaling-stroke" d="
  M 607.2144 560.5864
  A 12.52 11.93 133.8 0 0 624.4906 559.8073
  A 12.52 11.93 133.8 0 0 624.5456 542.5136
  A 12.52 11.93 133.8 0 0 607.2694 543.2927
  A 12.52 11.93 133.8 0 0 607.2144 560.5864"
/>
<path stroke="#868196" vector-effect="non-scaling-stroke" d="
  M 593.9021 564.3683
  A 8.00 6.74 -18.6 0 0 584.1702 560.5320
  A 8.00 6.74 -18.6 0 0 578.7379 569.4717
  A 8.00 6.74 -18.6 0 0 588.4698 573.3080
  A 8.00 6.74 -18.6 0 0 593.9021 564.3683"
/>
<path stroke="#868196" vector-effect="non-scaling-stroke" d="
  M 619.0136 578.5477
  A 1.09 0.96 6.2 0 0 618.0337 577.4756
  A 1.09 0.96 6.2 0 0 616.8464 578.3123
  A 1.09 0.96 6.2 0 0 617.8263 579.3844
  A 1.09 0.96 6.2 0 0 619.0136 578.5477"
/>
<path stroke="#868196" vector-effect="non-scaling-stroke" d="
  M 607.8011 583.6704
  A 1.31 1.17 -32.8 0 0 606.0662 583.3965
  A 1.31 1.17 -32.8 0 0 605.5989 585.0896
  A 1.31 1.17 -32.8 0 0 607.3338 585.3635
  A 1.31 1.17 -32.8 0 0 607.8011 583.6704"
/>
<path stroke="#732d38" vector-effect="non-scaling-stroke" d="
  M 496.78 663.64
  C 499.87 672.51 515.41 674.18 520.99 667.14
  C 525.63 661.29 518.31 653.92 512.23 652.72
  C 507.39 651.76 498.38 658.17 496.78 662.68
  Q 496.61 663.16 496.78 663.64"
/>
</g>
<path fill="#6aa495" d="
  M 0.00 0.00
  L 1024.00 0.00
  L 1024.00 1024.00
  L 0.00 1024.00
  L 0.00 0.00
  Z
  M 329.49 768.06
  Q 329.59 768.57 329.45 768.87
  Q 329.32 769.15 328.81 769.16
  Q 293.62 769.71 255.00 776.77
  C 242.46 779.06 217.35 784.82 209.74 794.47
  C 203.35 802.56 219.84 808.82 225.64 810.72
  Q 259.69 821.87 295.09 826.94
  C 368.75 837.50 443.95 841.63 518.32 840.27
  C 577.50 839.18 638.97 836.62 698.09 830.28
  Q 733.49 826.49 768.26 818.77
  C 772.83 817.76 826.86 804.77 816.32 794.17
  C 811.97 789.81 806.69 787.10 800.38 784.94
  C 770.41 774.72 737.18 770.41 705.72 768.07
  Q 705.27 768.04 704.91 768.30
  Q 704.49 768.61 703.64 768.56
  Q 703.09 767.95 702.98 767.40
  A 0.61 0.60 -14.7 0 1 703.39 766.71
  C 740.26 755.04 774.84 729.39 785.93 691.69
  Q 793.16 667.11 794.56 637.31
  C 796.92 587.08 797.72 543.53 788.94 496.92
  Q 784.93 475.65 776.93 455.57
  C 763.60 422.12 731.75 400.29 698.56 389.69
  C 665.22 379.03 629.93 373.89 594.51 372.17
  A 2.63 2.62 69.0 0 1 592.77 371.39
  Q 584.58 363.06 574.64 356.91
  Q 574.20 356.63 574.54 356.24
  Q 583.08 346.44 591.94 336.94
  Q 633.46 292.37 674.80 247.66
  Q 675.13 247.30 675.61 247.36
  Q 694.82 249.66 706.23 235.46
  C 718.28 220.45 711.51 199.00 694.41 191.57
  C 679.35 185.04 663.33 191.99 656.42 206.48
  Q 650.05 219.84 656.11 234.61
  Q 656.33 235.14 655.94 235.55
  L 551.54 345.70
  Q 551.14 346.12 550.57 345.96
  Q 515.95 336.09 485.76 354.73
  Q 485.38 354.96 485.09 354.63
  L 391.83 247.52
  Q 391.43 247.06 391.77 246.55
  C 398.47 236.41 391.08 219.66 383.53 212.41
  C 370.12 199.55 345.20 204.86 338.17 221.93
  C 332.65 235.32 335.60 250.79 348.26 258.98
  Q 360.56 266.94 374.09 261.36
  Q 374.57 261.16 374.90 261.55
  Q 381.40 268.96 387.68 276.57
  C 411.97 305.98 436.67 335.03 460.43 364.87
  A 0.28 0.28 0.0 0 1 460.23 365.32
  C 443.09 366.18 426.03 367.78 408.93 369.32
  C 362.90 373.47 298.05 386.51 271.42 430.93
  C 261.65 447.22 257.01 467.37 253.21 486.69
  C 241.21 547.71 230.91 609.68 241.88 669.38
  C 245.72 690.30 253.07 709.04 265.71 726.24
  C 281.25 747.40 304.91 760.33 329.49 768.06
  Z
  M 283.05 252.96
  C 290.79 256.63 298.31 262.29 305.34 267.23
  A 0.49 0.48 12.5 0 0 306.10 266.75
  C 304.72 259.28 299.85 254.78 293.87 250.13
  C 288.48 245.94 289.49 225.61 290.29 219.74
  Q 290.62 217.26 288.32 215.19
  Q 277.76 205.65 266.74 195.79
  A 1.04 1.03 -45.6 0 0 265.33 195.81
  Q 263.30 197.74 262.45 200.37
  Q 262.32 200.80 262.60 201.15
  Q 269.54 209.80 276.80 218.18
  C 279.82 221.67 282.81 225.01 282.25 228.75
  C 281.12 236.37 282.18 244.59 282.58 252.27
  Q 282.61 252.76 283.05 252.96
  Z
  M 313.84 201.46
  C 308.28 212.58 321.39 229.73 327.16 238.77
  A 0.41 0.41 0.0 0 0 327.89 238.42
  Q 326.50 234.07 324.87 229.65
  C 321.34 220.01 313.05 212.73 314.79 201.76
  A 0.50 0.50 0.0 0 0 313.84 201.46
  Z
  M 789.32 201.96
  C 776.12 210.16 761.84 221.53 753.11 234.51
  A 1.82 1.72 -28.3 0 0 752.81 235.42
  Q 752.10 250.39 756.46 264.71
  C 757.86 269.29 755.72 273.90 752.86 277.38
  C 746.45 285.17 738.60 292.06 732.03 299.89
  A 0.40 0.40 0.0 0 0 732.44 300.53
  Q 734.31 300.04 736.22 299.17
  Q 748.08 293.77 759.99 288.42
  Q 760.44 288.21 760.53 287.73
  C 761.45 282.86 763.20 280.56 766.57 276.91
  C 769.58 273.65 768.85 270.62 767.46 266.24
  Q 765.37 259.67 763.41 253.07
  C 761.72 247.35 762.12 243.97 765.88 239.09
  C 774.25 228.22 784.01 215.17 789.59 202.20
  Q 789.83 201.65 789.32 201.96
  Z
  M 728.44 234.19
  C 728.25 236.57 728.27 238.56 727.38 240.84
  C 720.71 257.92 714.25 275.20 702.00 289.20
  C 700.38 291.05 699.12 293.05 697.80 295.05
  Q 697.54 295.44 697.58 295.97
  Q 697.62 296.48 697.96 296.10
  Q 709.70 282.65 716.42 273.42
  Q 722.68 264.82 724.04 261.77
  Q 729.16 250.34 729.34 234.21
  Q 729.34 233.82 728.95 233.74
  Q 728.48 233.65 728.44 234.19
  Z"
/>
<path fill="#0c0531" d="
  M 703.64 768.56
  Q 707.84 776.33 710.31 784.68
  C 714.01 797.18 708.61 816.50 691.68 813.19
  C 678.68 810.66 667.98 786.84 663.24 777.30
  A 0.73 0.73 0.0 0 0 662.50 776.90
  Q 617.17 782.15 576.25 783.45
  Q 488.39 786.26 397.06 779.45
  Q 385.69 778.60 374.32 777.10
  Q 373.82 777.03 373.61 777.49
  C 368.66 788.23 350.85 821.39 335.17 813.31
  C 319.82 805.40 327.76 780.89 333.59 769.72
  Q 333.88 769.16 333.27 769.01
  L 329.49 768.06
  C 304.91 760.33 281.25 747.40 265.71 726.24
  C 253.07 709.04 245.72 690.30 241.88 669.38
  C 230.91 609.68 241.21 547.71 253.21 486.69
  C 257.01 467.37 261.65 447.22 271.42 430.93
  C 298.05 386.51 362.90 373.47 408.93 369.32
  C 426.03 367.78 443.09 366.18 460.23 365.32
  A 0.28 0.28 0.0 0 0 460.43 364.87
  C 436.67 335.03 411.97 305.98 387.68 276.57
  Q 381.40 268.96 374.90 261.55
  Q 374.57 261.16 374.09 261.36
  Q 360.56 266.94 348.26 258.98
  C 335.60 250.79 332.65 235.32 338.17 221.93
  C 345.20 204.86 370.12 199.55 383.53 212.41
  C 391.08 219.66 398.47 236.41 391.77 246.55
  Q 391.43 247.06 391.83 247.52
  L 485.09 354.63
  Q 485.38 354.96 485.76 354.73
  Q 515.95 336.09 550.57 345.96
  Q 551.14 346.12 551.54 345.70
  L 655.94 235.55
  Q 656.33 235.14 656.11 234.61
  Q 650.05 219.84 656.42 206.48
  C 663.33 191.99 679.35 185.04 694.41 191.57
  C 711.51 199.00 718.28 220.45 706.23 235.46
  Q 694.82 249.66 675.61 247.36
  Q 675.13 247.30 674.80 247.66
  Q 633.46 292.37 591.94 336.94
  Q 583.08 346.44 574.54 356.24
  Q 574.20 356.63 574.64 356.91
  Q 584.58 363.06 592.77 371.39
  A 2.63 2.62 69.0 0 0 594.51 372.17
  C 629.93 373.89 665.22 379.03 698.56 389.69
  C 731.75 400.29 763.60 422.12 776.93 455.57
  Q 784.93 475.65 788.94 496.92
  C 797.72 543.53 796.92 587.08 794.56 637.31
  Q 793.16 667.11 785.93 691.69
  C 774.84 729.39 740.26 755.04 703.39 766.71
  A 0.61 0.60 -14.7 0 0 702.98 767.40
  Q 703.09 767.95 703.64 768.56
  Z
  M 669.5965 233.1664
  A 19.58 19.00 132.8 0 0 696.8409 231.7094
  A 19.58 19.00 132.8 0 0 696.2035 204.4336
  A 19.58 19.00 132.8 0 0 668.9591 205.8906
  A 19.58 19.00 132.8 0 0 669.5965 233.1664
  Z
  M 383.73 234.66
  A 19.32 19.32 0.0 0 0 364.41 215.34
  A 19.32 19.32 0.0 0 0 345.09 234.66
  A 19.32 19.32 0.0 0 0 364.41 253.98
  A 19.32 19.32 0.0 0 0 383.73 234.66
  Z
  M 561.44 349.31
  Q 563.20 350.25 565.07 351.11
  Q 565.56 351.34 565.92 350.95
  Q 628.54 284.17 649.42 261.67
  Q 654.98 255.67 664.76 244.07
  Q 665.18 243.56 664.62 243.21
  L 662.27 241.77
  Q 661.86 241.52 661.53 241.87
  Q 629.60 276.21 597.64 310.51
  C 585.69 323.34 573.07 335.89 560.84 348.62
  Q 560.46 349.02 560.96 349.23
  Q 561.18 349.33 561.44 349.31
  Z
  M 473.47 363.66
  L 480.30 363.21
  Q 480.83 363.17 480.42 362.83
  C 479.02 361.66 477.40 360.70 476.25 359.39
  C 442.89 321.18 415.88 289.10 385.59 254.06
  Q 385.19 253.59 384.66 253.92
  L 382.67 255.14
  Q 382.00 255.54 382.49 256.14
  Q 426.50 310.95 473.15 363.53
  A 0.41 0.41 0.0 0 0 473.47 363.66
  Z
  M 487.23 365.56
  C 511.51 367.42 535.79 369.24 559.90 372.42
  Q 569.92 373.74 580.05 374.59
  Q 580.75 374.65 580.30 374.10
  Q 576.75 369.77 572.10 366.67
  C 547.06 350.00 511.63 345.54 487.06 364.98
  A 0.33 0.32 -61.5 0 0 487.23 365.56
  Z
  M 254.41 667.66
  Q 256.42 679.40 259.28 686.94
  C 281.71 746.02 340.80 758.17 396.32 763.38
  Q 511.49 774.18 626.83 764.95
  C 681.96 760.53 748.62 746.65 772.78 688.92
  Q 779.69 671.68 781.75 653.50
  Q 784.72 627.26 784.82 599.23
  Q 785.96 565.95 782.48 532.87
  C 780.33 512.45 777.48 491.96 771.51 472.74
  C 761.43 440.22 737.22 417.24 705.83 404.40
  Q 674.36 391.52 640.54 387.15
  Q 625.47 385.08 618.25 384.75
  Q 589.50 383.43 560.81 381.67
  C 505.61 377.15 452.94 375.51 398.18 382.00
  C 359.56 386.58 300.66 400.11 280.05 437.80
  C 270.20 455.82 265.51 478.04 261.98 499.00
  C 253.83 547.38 246.11 596.61 250.87 644.68
  Q 252.16 657.73 254.41 667.66
  Z
  M 691.24 801.63
  C 694.92 805.29 699.62 800.25 700.42 796.43
  C 701.84 789.60 696.88 778.15 694.14 771.23
  Q 693.99 770.87 693.61 770.94
  L 674.65 774.38
  A 0.18 0.17 71.8 0 0 674.53 774.63
  Q 679.85 786.30 687.10 796.87
  Q 688.51 798.93 691.24 801.63
  Z
  M 336.57 798.43
  C 337.86 806.16 344.83 801.39 347.54 798.31
  Q 356.66 787.95 362.85 775.62
  Q 363.12 775.09 362.53 774.98
  L 342.52 771.41
  Q 342.06 771.33 341.91 771.77
  C 339.45 779.16 335.36 791.19 336.57 798.43
  Z"
/>
<path fill="#e3eae3" d="
  M 305.34 267.23
  C 298.31 262.29 290.79 256.63 283.05 252.96
  Q 282.61 252.76 282.58 252.27
  C 282.18 244.59 281.12 236.37 282.25 228.75
  C 282.81 225.01 279.82 221.67 276.80 218.18
  Q 269.54 209.80 262.60 201.15
  Q 262.32 200.80 262.45 200.37
  Q 263.30 197.74 265.33 195.81
  A 1.04 1.03 -45.6 0 1 266.74 195.79
  Q 277.76 205.65 288.32 215.19
  Q 290.62 217.26 290.29 219.74
  C 289.49 225.61 288.48 245.94 293.87 250.13
  C 299.85 254.78 304.72 259.28 306.10 266.75
  A 0.49 0.48 12.5 0 1 305.34 267.23
  Z"
/>
<ellipse fill="#eb922e" cx="0.00" cy="0.00" transform="translate(682.90,218.80) rotate(132.8)" rx="19.58" ry="19.00"/>
<path fill="#e3eae3" d="
  M 313.84 201.46
  A 0.50 0.50 0.0 0 1 314.79 201.76
  C 313.05 212.73 321.34 220.01 324.87 229.65
  Q 326.50 234.07 327.89 238.42
  A 0.41 0.41 0.0 0 1 327.16 238.77
  C 321.39 229.73 308.28 212.58 313.84 201.46
  Z"
/>
<path fill="#e7ebe5" d="
  M 753.11 234.51
  C 761.84 221.53 776.12 210.16 789.32 201.96
  Q 789.83 201.65 789.59 202.20
  C 784.01 215.17 774.25 228.22 765.88 239.09
  C 762.12 243.97 761.72 247.35 763.41 253.07
  Q 765.37 259.67 767.46 266.24
  C 768.85 270.62 769.58 273.65 766.57 276.91
  C 763.20 280.56 761.45 282.86 760.53 287.73
  Q 760.44 288.21 759.99 288.42
  Q 748.08 293.77 736.22 299.17
  Q 734.31 300.04 732.44 300.53
  A 0.40 0.40 0.0 0 1 732.03 299.89
  C 738.60 292.06 746.45 285.17 752.86 277.38
  C 755.72 273.90 757.86 269.29 756.46 264.71
  Q 752.10 250.39 752.81 235.42
  A 1.82 1.72 -28.3 0 1 753.11 234.51
  Z"
/>
<circle fill="#ee962c" cx="364.41" cy="234.66" r="19.32"/>
<path fill="#e3eae3" d="
  M 728.44 234.19
  Q 728.48 233.65 728.95 233.74
  Q 729.34 233.82 729.34 234.21
  Q 729.16 250.34 724.04 261.77
  Q 722.68 264.82 716.42 273.42
  Q 709.70 282.65 697.96 296.10
  Q 697.62 296.48 697.58 295.97
  Q 697.54 295.44 697.80 295.05
  C 699.12 293.05 700.38 291.05 702.00 289.20
  C 714.25 275.20 720.71 257.92 727.38 240.84
  C 728.27 238.56 728.25 236.57 728.44 234.19
  Z"
/>
<path fill="#ef9947" d="
  M 561.44 349.31
  Q 561.18 349.33 560.96 349.23
  Q 560.46 349.02 560.84 348.62
  C 573.07 335.89 585.69 323.34 597.64 310.51
  Q 629.60 276.21 661.53 241.87
  Q 661.86 241.52 662.27 241.77
  L 664.62 243.21
  Q 665.18 243.56 664.76 244.07
  Q 654.98 255.67 649.42 261.67
  Q 628.54 284.17 565.92 350.95
  Q 565.56 351.34 565.07 351.11
  Q 563.20 350.25 561.44 349.31
  Z"
/>
<path fill="#ef9947" d="
  M 473.47 363.66
  A 0.41 0.41 0.0 0 1 473.15 363.53
  Q 426.50 310.95 382.49 256.14
  Q 382.00 255.54 382.67 255.14
  L 384.66 253.92
  Q 385.19 253.59 385.59 254.06
  C 415.88 289.10 442.89 321.18 476.25 359.39
  C 477.40 360.70 479.02 361.66 480.42 362.83
  Q 480.83 363.17 480.30 363.21
  L 473.47 363.66
  Z"
/>
<path fill="#f39030" d="
  M 487.23 365.56
  A 0.33 0.32 -61.5 0 1 487.06 364.98
  C 511.63 345.54 547.06 350.00 572.10 366.67
  Q 576.75 369.77 580.30 374.10
  Q 580.75 374.65 580.05 374.59
  Q 569.92 373.74 559.90 372.42
  C 535.79 369.24 511.51 367.42 487.23 365.56
  Z"
/>
<path fill="#f0e3ce" d="
  M 560.81 381.67
  Q 560.54 382.96 558.49 382.80
  C 551.93 382.28 545.53 382.86 538.03 382.91
  Q 533.45 382.94 529.07 383.77
  L 510.72 383.17
  Q 473.38 381.83 435.94 383.32
  C 398.62 384.81 358.74 390.38 325.06 407.55
  C 290.53 425.16 272.91 461.48 265.89 498.43
  C 258.76 535.98 257.04 575.12 259.10 613.24
  Q 260.40 637.40 267.68 660.44
  C 270.58 669.63 274.58 673.75 281.94 680.81
  C 278.28 684.68 271.59 691.12 266.28 685.95
  Q 258.66 678.52 254.41 667.66
  Q 252.16 657.73 250.87 644.68
  C 246.11 596.61 253.83 547.38 261.98 499.00
  C 265.51 478.04 270.20 455.82 280.05 437.80
  C 300.66 400.11 359.56 386.58 398.18 382.00
  C 452.94 375.51 505.61 377.15 560.81 381.67
  Z"
/>
<path fill="#f4932b" d="
  M 560.81 381.67
  Q 589.50 383.43 618.25 384.75
  Q 625.47 385.08 640.54 387.15
  L 640.28 387.68
  Q 640.02 388.20 640.59 388.33
  Q 648.38 390.20 656.20 391.99
  C 683.81 398.31 709.83 409.09 731.50 427.62
  C 744.44 438.69 754.79 450.27 760.92 465.82
  Q 785.90 529.13 783.79 598.40
  Q 783.78 598.90 784.03 599.04
  Q 784.29 599.20 784.82 599.23
  Q 784.72 627.26 781.75 653.50
  Q 779.69 671.68 772.78 688.92
  Q 762.37 691.90 758.76 692.23
  C 747.69 693.26 734.58 687.89 736.27 674.48
  Q 737.84 662.08 739.27 649.50
  Q 739.35 648.85 738.76 649.15
  L 732.63 652.33
  Q 736.28 638.66 738.13 624.93
  C 740.20 609.50 742.21 593.57 743.08 578.45
  Q 745.60 534.88 739.53 491.58
  Q 737.89 479.84 734.49 468.51
  C 722.05 426.98 685.45 416.88 647.76 409.43
  C 603.97 400.77 558.60 394.05 514.74 392.11
  C 482.35 390.67 452.03 391.20 416.69 395.16
  C 373.15 400.03 324.42 412.95 303.66 455.86
  Q 298.06 467.46 294.33 479.77
  Q 281.88 520.87 280.67 563.81
  C 279.93 590.00 280.35 616.19 283.86 642.18
  Q 285.66 655.44 290.18 669.38
  L 281.94 680.81
  C 274.58 673.75 270.58 669.63 267.68 660.44
  Q 260.40 637.40 259.10 613.24
  C 257.04 575.12 258.76 535.98 265.89 498.43
  C 272.91 461.48 290.53 425.16 325.06 407.55
  C 358.74 390.38 398.62 384.81 435.94 383.32
  Q 473.38 381.83 510.72 383.17
  Q 519.64 384.69 529.07 383.77
  Q 533.45 382.94 538.03 382.91
  C 545.53 382.86 551.93 382.28 558.49 382.80
  Q 560.54 382.96 560.81 381.67
  Z"
/>
<path fill="#fba073" d="
  M 529.07 383.77
  Q 519.64 384.69 510.72 383.17
  L 529.07 383.77
  Z"
/>
<path fill="#f3e7d8" d="
  M 640.54 387.15
  Q 674.36 391.52 705.83 404.40
  C 737.22 417.24 761.43 440.22 771.51 472.74
  C 777.48 491.96 780.33 512.45 782.48 532.87
  Q 785.96 565.95 784.82 599.23
  Q 784.29 599.20 784.03 599.04
  Q 783.78 598.90 783.79 598.40
  Q 785.90 529.13 760.92 465.82
  C 754.79 450.27 744.44 438.69 731.50 427.62
  C 709.83 409.09 683.81 398.31 656.20 391.99
  Q 648.38 390.20 640.59 388.33
  Q 640.02 388.20 640.28 387.68
  L 640.54 387.15
  Z"
/>
<path fill="#0c052e" d="
  M 732.63 652.33
  C 724.50 684.80 710.71 712.77 678.25 726.34
  C 649.31 738.43 618.62 743.83 587.44 745.66
  Q 515.40 749.91 443.42 744.80
  Q 407.07 742.22 376.94 735.09
  C 341.66 726.73 310.29 715.62 294.88 680.40
  Q 292.65 675.30 290.18 669.38
  Q 285.66 655.44 283.86 642.18
  C 280.35 616.19 279.93 590.00 280.67 563.81
  Q 281.88 520.87 294.33 479.77
  Q 298.06 467.46 303.66 455.86
  C 324.42 412.95 373.15 400.03 416.69 395.16
  C 452.03 391.20 482.35 390.67 514.74 392.11
  C 558.60 394.05 603.97 400.77 647.76 409.43
  C 685.45 416.88 722.05 426.98 734.49 468.51
  Q 737.89 479.84 739.53 491.58
  Q 745.60 534.88 743.08 578.45
  C 742.21 593.57 740.20 609.50 738.13 624.93
  Q 736.28 638.66 732.63 652.33
  Z
  M 321.24 699.33
  Q 323.71 702.40 326.82 704.18
  C 348.56 716.56 372.62 723.67 397.12 727.78
  C 416.01 730.94 435.46 733.07 454.75 733.98
  Q 507.26 736.43 559.80 735.04
  C 568.42 734.81 577.07 733.87 585.77 733.11
  C 603.10 731.59 622.45 731.55 639.98 726.74
  C 661.74 722.18 681.27 715.50 697.24 699.93
  L 703.55 691.73
  L 707.73 685.28
  Q 715.15 671.20 719.00 655.77
  C 729.78 613.64 733.75 571.71 731.66 528.42
  C 729.90 491.95 726.07 446.52 685.81 431.68
  Q 670.99 426.22 656.77 422.88
  C 622.56 414.85 587.56 410.16 552.64 406.55
  C 534.71 404.69 517.66 404.18 498.69 403.56
  Q 453.62 402.08 410.28 408.25
  C 376.99 412.98 339.67 423.12 319.46 452.51
  C 309.26 467.34 303.22 486.26 299.45 504.19
  C 290.89 544.93 290.19 585.83 294.28 626.80
  Q 296.84 652.41 303.98 673.50
  Q 309.17 688.83 321.24 699.33
  Z"
/>
<path fill="#ebe5db" d="
  M 719.00 655.77
  L 711.10 653.28
  C 717.73 621.44 719.63 588.00 719.72 555.56
  C 719.79 528.59 717.20 502.61 707.73 477.15
  Q 704.49 464.84 696.27 454.22
  C 684.84 439.44 671.70 435.02 654.46 429.93
  Q 645.40 427.02 635.73 425.34
  Q 598.55 418.85 561.00 415.04
  Q 557.40 414.67 550.17 414.40
  C 536.68 413.63 523.23 413.80 509.74 413.23
  C 474.53 411.75 439.50 412.68 404.99 420.43
  C 386.28 424.64 365.91 431.59 350.68 444.40
  C 321.63 468.55 310.64 511.77 309.12 547.76
  Q 307.80 579.04 309.25 610.31
  C 310.62 640.04 315.92 668.03 333.82 691.30
  A 0.87 0.86 -31.0 0 0 334.87 691.56
  L 341.09 688.72
  A 0.55 0.55 0.0 0 0 341.28 687.86
  C 335.00 680.65 328.58 672.22 325.90 662.90
  C 321.66 648.15 320.81 635.30 319.17 617.81
  C 316.33 587.53 317.83 560.97 320.80 527.95
  C 324.22 489.87 338.55 454.27 375.87 438.20
  C 406.25 425.12 441.71 420.81 474.53 420.23
  L 549.94 419.19
  Q 563.84 421.42 577.75 423.01
  C 603.38 425.94 628.64 431.26 653.61 437.92
  Q 690.79 448.46 702.19 486.07
  Q 708.29 506.21 709.21 525.26
  Q 710.63 554.43 709.82 590.56
  Q 709.11 622.09 703.95 647.69
  Q 703.89 648.02 704.20 647.90
  Q 707.22 646.75 710.43 649.51
  C 708.85 651.60 706.21 650.56 703.99 650.31
  Q 703.47 650.25 703.34 650.76
  L 702.31 654.84
  Q 702.18 655.06 702.30 655.49
  Q 701.92 656.15 701.74 656.82
  Q 693.72 685.56 668.46 701.50
  Q 648.74 711.71 626.19 716.19
  C 594.97 722.39 563.07 726.50 531.50 726.87
  Q 494.69 727.30 471.81 726.64
  Q 441.83 725.78 432.56 724.96
  Q 390.08 721.24 349.26 708.75
  Q 335.49 705.26 321.24 699.33
  Q 309.17 688.83 303.98 673.50
  Q 296.84 652.41 294.28 626.80
  C 290.19 585.83 290.89 544.93 299.45 504.19
  C 303.22 486.26 309.26 467.34 319.46 452.51
  C 339.67 423.12 376.99 412.98 410.28 408.25
  Q 453.62 402.08 498.69 403.56
  C 517.66 404.18 534.71 404.69 552.64 406.55
  C 587.56 410.16 622.56 414.85 656.77 422.88
  Q 670.99 426.22 685.81 431.68
  C 726.07 446.52 729.90 491.95 731.66 528.42
  C 733.75 571.71 729.78 613.64 719.00 655.77
  Z
  M 462.74 427.49
  L 461.76 425.90
  Q 461.47 425.44 460.93 425.48
  Q 434.01 427.69 408.01 435.03
  C 374.79 444.41 349.72 463.44 335.97 495.47
  Q 326.19 518.23 324.84 540.23
  Q 324.80 540.91 325.09 540.29
  Q 325.20 540.07 325.33 539.88
  Q 325.60 539.46 325.65 539.07
  Q 327.98 523.09 329.24 517.99
  Q 335.89 490.99 353.01 469.77
  Q 357.82 467.54 361.83 463.03
  Q 362.09 462.73 361.96 462.36
  L 361.45 460.94
  C 382.11 443.48 406.75 435.96 433.26 430.54
  Q 438.30 429.52 441.70 429.18
  A 0.72 0.72 0.0 0 1 442.47 429.71
  Q 442.61 430.28 442.48 430.67
  C 421.52 434.94 399.37 441.41 380.79 451.80
  C 351.85 467.99 341.50 501.53 335.02 531.75
  Q 323.66 584.71 335.70 638.00
  C 341.38 663.13 353.20 684.21 376.61 696.03
  Q 383.31 699.42 395.31 703.04
  Q 417.70 709.81 441.00 712.75
  Q 497.46 719.89 554.08 713.98
  C 595.36 709.67 659.31 695.82 680.49 654.46
  Q 689.96 635.97 693.99 613.66
  Q 701.85 570.21 696.42 526.53
  C 696.94 524.45 697.73 522.83 697.78 520.68
  C 698.04 507.08 693.97 494.02 688.66 481.39
  Q 680.36 461.63 661.94 450.83
  Q 648.15 442.76 630.36 439.49
  C 577.15 422.75 518.90 421.81 462.74 427.49
  Z
  M 684.68 666.75
  Q 684.51 667.74 685.06 668.48
  A 0.73 0.72 -75.7 0 0 686.30 667.74
  Q 685.27 665.47 685.08 662.97
  Q 685.08 662.86 684.96 662.82
  Q 684.82 662.77 684.68 662.73
  A 0.15 0.14 -86.8 0 0 684.50 662.90
  C 684.81 664.39 684.98 665.09 684.68 666.75
  Z
  M 669.6196 678.3455
  A 1.21 0.59 -39.8 0 0 668.3123 678.6667
  A 1.21 0.59 -39.8 0 0 667.7604 679.8945
  A 1.21 0.59 -39.8 0 0 669.0677 679.5733
  A 1.21 0.59 -39.8 0 0 669.6196 678.3455
  Z
  M 356.3100 699.3304
  A 4.37 1.02 38.5 0 0 353.5250 695.8117
  A 4.37 1.02 38.5 0 0 349.4700 693.8896
  A 4.37 1.02 38.5 0 0 352.2550 697.4083
  A 4.37 1.02 38.5 0 0 356.3100 699.3304
  Z"
/>
<path fill="#adadb4" d="
  M 550.17 414.40
  L 549.94 419.19
  L 474.53 420.23
  Q 474.64 419.27 473.99 418.61
  Q 473.72 418.33 473.34 418.34
  Q 445.25 419.04 426.77 421.58
  Q 406.72 424.33 380.56 432.05
  Q 368.17 435.71 354.66 444.88
  C 353.25 445.84 351.69 445.68 350.68 444.40
  C 365.91 431.59 386.28 424.64 404.99 420.43
  C 439.50 412.68 474.53 411.75 509.74 413.23
  C 523.23 413.80 536.68 413.63 550.17 414.40
  Z"
/>
<path fill="#c4c5c7" d="
  M 550.17 414.40
  Q 557.40 414.67 561.00 415.04
  Q 598.55 418.85 635.73 425.34
  Q 645.40 427.02 654.46 429.93
  L 658.46 433.39
  A 0.50 0.50 0.0 0 1 658.60 433.95
  L 657.45 436.89
  A 0.53 0.52 -77.4 0 1 656.94 437.22
  Q 654.86 437.13 653.61 437.92
  C 628.64 431.26 603.38 425.94 577.75 423.01
  Q 563.84 421.42 549.94 419.19
  L 550.17 414.40
  Z"
/>
<path fill="#999eab" d="
  M 474.53 420.23
  C 441.71 420.81 406.25 425.12 375.87 438.20
  C 338.55 454.27 324.22 489.87 320.80 527.95
  C 317.83 560.97 316.33 587.53 319.17 617.81
  C 320.81 635.30 321.66 648.15 325.90 662.90
  C 328.58 672.22 335.00 680.65 341.28 687.86
  A 0.55 0.55 0.0 0 1 341.09 688.72
  L 334.87 691.56
  A 0.87 0.86 -31.0 0 1 333.82 691.30
  C 315.92 668.03 310.62 640.04 309.25 610.31
  Q 307.80 579.04 309.12 547.76
  C 310.64 511.77 321.63 468.55 350.68 444.40
  C 351.69 445.68 353.25 445.84 354.66 444.88
  Q 368.17 435.71 380.56 432.05
  Q 406.72 424.33 426.77 421.58
  Q 445.25 419.04 473.34 418.34
  Q 473.72 418.33 473.99 418.61
  Q 474.64 419.27 474.53 420.23
  Z
  M 328.8576 674.4258
  A 10.78 1.41 62.2 0 0 325.0773 664.2324
  A 10.78 1.41 62.2 0 0 318.8024 655.3542
  A 10.78 1.41 62.2 0 0 322.5827 665.5476
  A 10.78 1.41 62.2 0 0 328.8576 674.4258
  Z
  M 334.6648 683.7355
  A 2.90 0.56 56.4 0 0 333.5264 681.0101
  A 2.90 0.56 56.4 0 0 331.4552 678.9045
  A 2.90 0.56 56.4 0 0 332.5936 681.6299
  A 2.90 0.56 56.4 0 0 334.6648 683.7355
  Z"
/>
<path fill="#0d0730" d="
  M 630.36 439.49
  Q 645.22 445.63 651.52 449.23
  C 681.05 466.14 692.33 494.12 696.42 526.53
  Q 701.85 570.21 693.99 613.66
  Q 689.96 635.97 680.49 654.46
  C 659.31 695.82 595.36 709.67 554.08 713.98
  Q 497.46 719.89 441.00 712.75
  Q 417.70 709.81 395.31 703.04
  Q 383.31 699.42 376.61 696.03
  C 353.20 684.21 341.38 663.13 335.70 638.00
  Q 323.66 584.71 335.02 531.75
  C 341.50 501.53 351.85 467.99 380.79 451.80
  C 399.37 441.41 421.52 434.94 442.48 430.67
  L 462.74 427.49
  C 518.90 421.81 577.15 422.75 630.36 439.49
  Z
  M 467.51 438.01
  C 439.31 441.78 409.31 446.94 385.07 462.07
  C 362.10 476.42 352.79 501.86 348.44 527.94
  C 343.80 555.83 341.56 580.70 343.47 607.71
  C 344.49 624.68 347.40 645.34 355.30 660.15
  C 366.21 680.57 385.66 690.93 407.50 696.75
  C 430.28 702.81 453.48 705.53 477.23 706.82
  Q 523.94 709.35 565.25 703.72
  Q 597.06 699.39 626.86 687.50
  C 649.35 678.53 667.58 664.62 676.45 641.51
  C 682.46 625.85 685.01 608.89 686.27 591.06
  Q 688.82 554.96 684.73 524.76
  C 681.39 500.06 673.73 475.80 651.69 462.31
  Q 637.81 453.82 619.95 448.37
  C 571.03 433.44 516.83 432.09 467.51 438.01
  Z"
/>
<path fill="#828294" d="
  M 462.74 427.49
  L 442.48 430.67
  Q 442.61 430.28 442.47 429.71
  A 0.72 0.72 0.0 0 0 441.70 429.18
  Q 438.30 429.52 433.26 430.54
  C 406.75 435.96 382.11 443.48 361.45 460.94
  Q 356.39 464.56 353.01 469.77
  Q 335.89 490.99 329.24 517.99
  Q 327.98 523.09 325.65 539.07
  Q 325.60 539.46 325.33 539.88
  Q 325.20 540.07 325.09 540.29
  Q 324.80 540.91 324.84 540.23
  Q 326.19 518.23 335.97 495.47
  C 349.72 463.44 374.79 444.41 408.01 435.03
  Q 434.01 427.69 460.93 425.48
  Q 461.47 425.44 461.76 425.90
  L 462.74 427.49
  Z"
/>
<path fill="#9a9fae" d="
  M 654.46 429.93
  C 671.70 435.02 684.84 439.44 696.27 454.22
  Q 704.49 464.84 707.73 477.15
  Q 716.74 507.01 717.93 532.50
  C 719.21 559.72 718.26 595.63 714.57 626.56
  Q 713.16 638.31 710.43 649.51
  Q 707.22 646.75 704.20 647.90
  Q 703.89 648.02 703.95 647.69
  Q 709.11 622.09 709.82 590.56
  Q 710.63 554.43 709.21 525.26
  Q 708.29 506.21 702.19 486.07
  Q 690.79 448.46 653.61 437.92
  Q 654.86 437.13 656.94 437.22
  A 0.53 0.52 -77.4 0 0 657.45 436.89
  L 658.60 433.95
  A 0.50 0.50 0.0 0 0 658.46 433.39
  L 654.46 429.93
  Z"
/>
<path fill="#b0632d" d="
  M 343.47 607.71
  L 350.62 605.00
  Q 353.40 619.70 360.05 633.48
  Q 370.34 652.36 388.44 664.56
  Q 397.45 670.64 405.81 673.03
  C 415.83 677.75 426.06 682.72 436.11 685.79
  Q 454.92 691.52 475.00 693.24
  C 522.41 697.30 574.25 692.43 616.68 669.37
  Q 626.25 664.42 636.54 656.30
  Q 652.51 643.69 656.46 625.84
  Q 660.97 607.45 666.55 590.18
  C 675.65 562.04 674.66 520.31 657.43 495.08
  C 643.90 475.26 621.41 463.39 597.33 456.37
  C 561.50 445.93 522.01 442.76 485.80 445.54
  Q 453.31 448.04 420.78 461.15
  Q 421.12 459.81 422.47 459.30
  Q 422.91 459.13 423.12 458.70
  Q 424.26 456.28 426.83 455.78
  Q 432.33 454.70 436.04 453.63
  Q 436.46 453.50 436.64 453.09
  Q 437.36 451.41 436.00 450.75
  Q 435.52 450.51 435.83 450.07
  Q 436.72 448.82 438.26 449.00
  Q 438.82 449.06 439.17 448.62
  Q 441.21 446.07 444.65 446.83
  A 0.91 0.89 -58.1 0 0 445.41 446.64
  L 448.60 444.02
  Q 448.99 443.70 449.49 443.70
  C 452.53 443.71 454.90 442.38 457.84 442.12
  Q 463.54 441.63 467.51 438.01
  C 516.83 432.09 571.03 433.44 619.95 448.37
  Q 637.81 453.82 651.69 462.31
  C 673.73 475.80 681.39 500.06 684.73 524.76
  Q 688.82 554.96 686.27 591.06
  C 685.01 608.89 682.46 625.85 676.45 641.51
  C 667.58 664.62 649.35 678.53 626.86 687.50
  Q 597.06 699.39 565.25 703.72
  Q 523.94 709.35 477.23 706.82
  C 453.48 705.53 430.28 702.81 407.50 696.75
  C 385.66 690.93 366.21 680.57 355.30 660.15
  C 347.40 645.34 344.49 624.68 343.47 607.71
  Z"
/>
<path fill="#945434" d="
  M 467.51 438.01
  Q 463.54 441.63 457.84 442.12
  C 454.90 442.38 452.53 443.71 449.49 443.70
  Q 448.99 443.70 448.60 444.02
  L 445.41 446.64
  A 0.91 0.89 -58.1 0 1 444.65 446.83
  Q 441.21 446.07 439.17 448.62
  Q 438.82 449.06 438.26 449.00
  Q 436.72 448.82 435.83 450.07
  Q 435.52 450.51 436.00 450.75
  Q 437.36 451.41 436.64 453.09
  Q 436.46 453.50 436.04 453.63
  Q 432.33 454.70 426.83 455.78
  Q 424.26 456.28 423.12 458.70
  Q 422.91 459.13 422.47 459.30
  Q 421.12 459.81 420.78 461.15
  C 406.69 466.48 393.71 472.23 383.61 483.58
  C 353.24 517.73 344.05 559.80 350.62 605.00
  L 343.47 607.71
  C 341.56 580.70 343.80 555.83 348.44 527.94
  C 352.79 501.86 362.10 476.42 385.07 462.07
  C 409.31 446.94 439.31 441.78 467.51 438.01
  Z"
/>
<path fill="#b6b6bc" d="
  M 696.42 526.53
  C 692.33 494.12 681.05 466.14 651.52 449.23
  Q 645.22 445.63 630.36 439.49
  Q 648.15 442.76 661.94 450.83
  Q 680.36 461.63 688.66 481.39
  C 693.97 494.02 698.04 507.08 697.78 520.68
  C 697.73 522.83 696.94 524.45 696.42 526.53
  Z"
/>
<path fill="#f39429" d="
  M 656.46 625.84
  Q 641.93 618.73 626.81 619.84
  C 610.33 621.05 589.39 624.50 588.69 644.67
  C 588.37 653.70 592.39 662.32 600.78 665.97
  Q 606.17 668.31 616.68 669.37
  C 574.25 692.43 522.41 697.30 475.00 693.24
  Q 454.92 691.52 436.11 685.79
  C 426.06 682.72 415.83 677.75 405.81 673.03
  C 420.49 670.50 436.09 661.45 434.13 644.47
  C 431.85 624.72 404.82 622.80 390.24 625.21
  Q 375.49 627.65 360.05 633.48
  Q 353.40 619.70 350.62 605.00
  C 344.05 559.80 353.24 517.73 383.61 483.58
  C 393.71 472.23 406.69 466.48 420.78 461.15
  Q 453.31 448.04 485.80 445.54
  C 522.01 442.76 561.50 445.93 597.33 456.37
  C 621.41 463.39 643.90 475.26 657.43 495.08
  C 674.66 520.31 675.65 562.04 666.55 590.18
  Q 660.97 607.45 656.46 625.84
  Z
  M 394.22 485.52
  Q 398.83 489.05 403.92 486.16
  C 407.20 484.30 412.70 480.30 410.74 476.02
  C 406.71 467.24 386.87 479.87 394.22 485.52
  Z
  M 370.72 518.60
  C 372.72 520.23 374.66 521.71 377.05 521.00
  A 1.22 1.17 6.9 0 0 377.69 520.52
  L 393.98 495.69
  Q 394.83 494.39 393.86 493.18
  C 391.90 490.77 387.97 489.64 385.12 491.61
  C 379.15 495.73 373.93 503.80 370.49 509.62
  C 368.52 512.95 367.38 515.88 370.72 518.60
  Z
  M 389.19 598.56
  C 416.06 622.41 458.00 611.66 469.98 577.66
  C 476.24 559.89 472.44 541.82 459.50 527.97
  C 430.35 496.80 381.00 510.42 373.56 552.76
  Q 368.71 580.39 389.19 598.56
  Z
  M 568.65 599.36
  C 583.82 612.70 603.85 615.57 622.01 607.34
  C 656.95 591.52 661.73 545.49 631.98 522.42
  C 615.47 509.62 591.94 507.22 574.31 519.32
  C 546.25 538.58 542.67 576.51 568.65 599.36
  Z
  M 476.83 630.80
  C 475.13 654.19 491.09 686.02 520.21 676.21
  C 530.62 672.70 535.79 663.86 539.97 653.43
  C 543.27 645.18 545.48 635.97 543.66 627.09
  Q 543.55 626.56 543.01 626.63
  Q 515.06 629.78 486.99 627.96
  C 484.33 627.78 477.13 626.61 476.83 630.80
  Z"
/>
<path fill="#c4c5c7" d="
  M 361.45 460.94
  L 361.96 462.36
  Q 362.09 462.73 361.83 463.03
  Q 357.82 467.54 353.01 469.77
  Q 356.39 464.56 361.45 460.94
  Z"
/>
<path fill="#f8ede7" d="
  M 394.22 485.52
  C 386.87 479.87 406.71 467.24 410.74 476.02
  C 412.70 480.30 407.20 484.30 403.92 486.16
  Q 398.83 489.05 394.22 485.52
  Z"
/>
<path fill="#9394a3" d="
  M 707.73 477.15
  C 717.20 502.61 719.79 528.59 719.72 555.56
  C 719.63 588.00 717.73 621.44 711.10 653.28
  L 708.18 663.43
  L 703.53 663.30
  Q 701.74 663.25 703.44 663.82
  L 707.19 665.07
  Q 707.77 665.27 707.58 665.85
  C 705.29 672.78 701.57 678.36 697.96 684.59
  Q 697.68 685.07 697.15 685.24
  Q 694.81 686.00 692.89 684.49
  Q 692.70 684.34 692.48 684.42
  Q 692.37 684.46 692.22 684.50
  A 0.28 0.28 0.0 0 0 692.10 684.99
  Q 694.19 686.83 697.51 687.54
  L 696.01 688.26
  Q 695.55 688.48 695.24 688.89
  C 689.44 696.64 682.17 702.48 674.38 708.06
  Q 673.77 709.31 672.67 708.58
  Q 674.31 708.56 673.69 707.31
  Q 672.68 705.30 668.46 701.50
  Q 693.72 685.56 701.74 656.82
  Q 701.92 656.15 702.30 655.49
  L 707.95 655.70
  A 0.32 0.31 47.0 0 0 707.97 655.07
  L 702.31 654.84
  L 703.34 650.76
  Q 703.47 650.25 703.99 650.31
  C 706.21 650.56 708.85 651.60 710.43 649.51
  Q 713.16 638.31 714.57 626.56
  C 718.26 595.63 719.21 559.72 717.93 532.50
  Q 716.74 507.01 707.73 477.15
  Z"
/>
<path fill="#fbf5f2" d="
  M 370.72 518.60
  C 367.38 515.88 368.52 512.95 370.49 509.62
  C 373.93 503.80 379.15 495.73 385.12 491.61
  C 387.97 489.64 391.90 490.77 393.86 493.18
  Q 394.83 494.39 393.98 495.69
  L 377.69 520.52
  A 1.22 1.17 6.9 0 1 377.05 521.00
  C 374.66 521.71 372.72 520.23 370.72 518.60
  Z"
/>
<path fill="#fbfbfa" d="
  M 389.19 598.56
  Q 368.71 580.39 373.56 552.76
  C 381.00 510.42 430.35 496.80 459.50 527.97
  C 472.44 541.82 476.24 559.89 469.98 577.66
  C 458.00 611.66 416.06 622.41 389.19 598.56
  Z
  M 390.47 544.38
  C 368.13 585.86 433.64 626.18 456.00 575.80
  C 475.70 531.41 411.54 505.23 390.47 544.38
  Z"
/>
<path fill="#fbfbfa" d="
  M 568.65 599.36
  C 542.67 576.51 546.25 538.58 574.31 519.32
  C 591.94 507.22 615.47 509.62 631.98 522.42
  C 661.73 545.49 656.95 591.52 622.01 607.34
  C 603.85 615.57 583.82 612.70 568.65 599.36
  Z
  M 564.26 561.18
  C 564.22 581.79 582.83 600.67 603.47 599.06
  C 648.33 595.56 649.26 527.08 602.81 525.52
  C 583.24 524.86 564.31 541.02 564.26 561.18
  Z"
/>
<path fill="#100731" d="
  M 456.00 575.80
  C 433.64 626.18 368.13 585.86 390.47 544.38
  C 411.54 505.23 475.70 531.41 456.00 575.80
  Z
  M 415.3138 536.7694
  A 2.07 1.55 125.3 0 0 417.7750 535.9757
  A 2.07 1.55 125.3 0 0 417.7062 533.3906
  A 2.07 1.55 125.3 0 0 415.2450 534.1843
  A 2.07 1.55 125.3 0 0 415.3138 536.7694
  Z
  M 439.9386 564.2174
  A 12.66 11.84 82.7 0 0 450.0740 550.1556
  A 12.66 11.84 82.7 0 0 436.7214 539.1026
  A 12.66 11.84 82.7 0 0 426.5860 553.1644
  A 12.66 11.84 82.7 0 0 439.9386 564.2174
  Z
  M 417.0373 563.9078
  A 8.16 7.65 -18.3 0 0 406.8880 559.2069
  A 8.16 7.65 -18.3 0 0 401.5427 569.0322
  A 8.16 7.65 -18.3 0 0 411.6920 573.7331
  A 8.16 7.65 -18.3 0 0 417.0373 563.9078
  Z
  M 428.3489 573.0486
  A 1.25 0.77 87.3 0 0 429.0591 571.7637
  A 1.25 0.77 87.3 0 0 428.2311 570.5514
  A 1.25 0.77 87.3 0 0 427.5209 571.8363
  A 1.25 0.77 87.3 0 0 428.3489 573.0486
  Z
  M 428.58 583.85
  A 1.21 1.21 0.0 0 0 427.37 582.64
  A 1.21 1.21 0.0 0 0 426.16 583.85
  A 1.21 1.21 0.0 0 0 427.37 585.06
  A 1.21 1.21 0.0 0 0 428.58 583.85
  Z"
/>
<path fill="#100731" d="
  M 603.47 599.06
  C 582.83 600.67 564.22 581.79 564.26 561.18
  C 564.31 541.02 583.24 524.86 602.81 525.52
  C 649.26 527.08 648.33 595.56 603.47 599.06
  Z
  M 600.6313 533.5919
  A 1.97 1.64 -29.1 0 0 598.1124 533.1170
  A 1.97 1.64 -29.1 0 0 597.1887 535.5081
  A 1.97 1.64 -29.1 0 0 599.7076 535.9830
  A 1.97 1.64 -29.1 0 0 600.6313 533.5919
  Z
  M 607.2144 560.5864
  A 12.52 11.93 133.8 0 0 624.4906 559.8073
  A 12.52 11.93 133.8 0 0 624.5456 542.5136
  A 12.52 11.93 133.8 0 0 607.2694 543.2927
  A 12.52 11.93 133.8 0 0 607.2144 560.5864
  Z
  M 593.9021 564.3683
  A 8.00 6.74 -18.6 0 0 584.1702 560.5320
  A 8.00 6.74 -18.6 0 0 578.7379 569.4717
  A 8.00 6.74 -18.6 0 0 588.4698 573.3080
  A 8.00 6.74 -18.6 0 0 593.9021 564.3683
  Z
  M 619.0136 578.5477
  A 1.09 0.96 6.2 0 0 618.0337 577.4756
  A 1.09 0.96 6.2 0 0 616.8464 578.3123
  A 1.09 0.96 6.2 0 0 617.8263 579.3844
  A 1.09 0.96 6.2 0 0 619.0136 578.5477
  Z
  M 607.8011 583.6704
  A 1.31 1.17 -32.8 0 0 606.0662 583.3965
  A 1.31 1.17 -32.8 0 0 605.5989 585.0896
  A 1.31 1.17 -32.8 0 0 607.3338 585.3635
  A 1.31 1.17 -32.8 0 0 607.8011 583.6704
  Z"
/>
<ellipse fill="#fbfbfa" cx="0.00" cy="0.00" transform="translate(598.91,534.55) rotate(-29.1)" rx="1.97" ry="1.64"/>
<ellipse fill="#fbf5f2" cx="0.00" cy="0.00" transform="translate(416.51,535.08) rotate(125.3)" rx="2.07" ry="1.55"/>
<ellipse fill="#fbfbfa" cx="0.00" cy="0.00" transform="translate(438.33,551.66) rotate(82.7)" rx="12.66" ry="11.84"/>
<ellipse fill="#fbfbfa" cx="0.00" cy="0.00" transform="translate(615.88,551.55) rotate(133.8)" rx="12.52" ry="11.93"/>
<ellipse fill="#fbfbfa" cx="0.00" cy="0.00" transform="translate(409.29,566.47) rotate(-18.3)" rx="8.16" ry="7.65"/>
<ellipse fill="#fbfbfa" cx="0.00" cy="0.00" transform="translate(586.32,566.92) rotate(-18.6)" rx="8.00" ry="6.74"/>
<ellipse fill="#fbf5f2" cx="0.00" cy="0.00" transform="translate(428.29,571.80) rotate(87.3)" rx="1.25" ry="0.77"/>
<ellipse fill="#fbfbfa" cx="0.00" cy="0.00" transform="translate(617.93,578.43) rotate(6.2)" rx="1.09" ry="0.96"/>
<circle fill="#fbfbfa" cx="427.37" cy="583.85" r="1.21"/>
<ellipse fill="#fbfbfa" cx="0.00" cy="0.00" transform="translate(606.70,584.38) rotate(-32.8)" rx="1.31" ry="1.17"/>
<path fill="#fa9e74" d="
  M 656.46 625.84
  Q 652.51 643.69 636.54 656.30
  Q 626.25 664.42 616.68 669.37
  Q 606.17 668.31 600.78 665.97
  C 592.39 662.32 588.37 653.70 588.69 644.67
  C 589.39 624.50 610.33 621.05 626.81 619.84
  Q 641.93 618.73 656.46 625.84
  Z"
/>
<path fill="#fba073" d="
  M 405.81 673.03
  Q 397.45 670.64 388.44 664.56
  Q 370.34 652.36 360.05 633.48
  Q 375.49 627.65 390.24 625.21
  C 404.82 622.80 431.85 624.72 434.13 644.47
  C 436.09 661.45 420.49 670.50 405.81 673.03
  Z"
/>
<path fill="#0c0531" d="
  M 520.21 676.21
  C 491.09 686.02 475.13 654.19 476.83 630.80
  C 477.13 626.61 484.33 627.78 486.99 627.96
  Q 515.06 629.78 543.01 626.63
  Q 543.55 626.56 543.66 627.09
  C 545.48 635.97 543.27 645.18 539.97 653.43
  C 535.79 663.86 530.62 672.70 520.21 676.21
  Z
  M 496.78 663.64
  C 499.87 672.51 515.41 674.18 520.99 667.14
  C 525.63 661.29 518.31 653.92 512.23 652.72
  C 507.39 651.76 498.38 658.17 496.78 662.68
  Q 496.61 663.16 496.78 663.64
  Z"
/>
<path fill="#b9672c" d="
  M 772.78 688.92
  C 748.62 746.65 681.96 760.53 626.83 764.95
  Q 511.49 774.18 396.32 763.38
  C 340.80 758.17 281.71 746.02 259.28 686.94
  Q 256.42 679.40 254.41 667.66
  Q 258.66 678.52 266.28 685.95
  C 271.59 691.12 278.28 684.68 281.94 680.81
  L 290.18 669.38
  Q 292.65 675.30 294.88 680.40
  C 310.29 715.62 341.66 726.73 376.94 735.09
  Q 407.07 742.22 443.42 744.80
  Q 515.40 749.91 587.44 745.66
  C 618.62 743.83 649.31 738.43 678.25 726.34
  C 710.71 712.77 724.50 684.80 732.63 652.33
  L 738.76 649.15
  Q 739.35 648.85 739.27 649.50
  Q 737.84 662.08 736.27 674.48
  C 734.58 687.89 747.69 693.26 758.76 692.23
  Q 762.37 691.90 772.78 688.92
  Z"
/>
<path fill="#d9553e" d="
  M 520.99 667.14
  C 515.41 674.18 499.87 672.51 496.78 663.64
  Q 496.61 663.16 496.78 662.68
  C 498.38 658.17 507.39 651.76 512.23 652.72
  C 518.31 653.92 525.63 661.29 520.99 667.14
  Z"
/>
<path fill="#dbb8b3" d="
  M 711.10 653.28
  L 719.00 655.77
  Q 715.15 671.20 707.73 685.28
  Q 705.47 683.56 706.93 683.66
  L 706.74 676.73
  A 0.59 0.54 -35.6 0 1 706.80 676.44
  L 713.06 663.90
  A 0.34 0.32 53.4 0 0 713.09 663.64
  Q 712.94 663.17 712.66 663.25
  Q 712.53 663.28 712.38 663.50
  Q 711.04 665.47 708.18 663.43
  L 711.10 653.28
  Z"
/>
<path fill="#b6b6bc" d="
  M 702.31 654.84
  L 707.97 655.07
  A 0.32 0.31 47.0 0 1 707.95 655.70
  L 702.30 655.49
  Q 702.18 655.06 702.31 654.84
  Z"
/>
<ellipse fill="#ebe5db" cx="0.00" cy="0.00" transform="translate(323.83,664.89) rotate(62.2)" rx="10.78" ry="1.41"/>
<path fill="#4e7270" d="
  M 684.68 666.75
  C 684.98 665.09 684.81 664.39 684.50 662.90
  A 0.15 0.14 -86.8 0 1 684.68 662.73
  Q 684.82 662.77 684.96 662.82
  Q 685.08 662.86 685.08 662.97
  Q 685.27 665.47 686.30 667.74
  A 0.73 0.72 -75.7 0 1 685.06 668.48
  Q 684.51 667.74 684.68 666.75
  Z"
/>
<path fill="#f3e7d8" d="
  M 708.18 663.43
  Q 711.04 665.47 712.38 663.50
  Q 712.53 663.28 712.66 663.25
  Q 712.94 663.17 713.09 663.64
  A 0.34 0.32 53.4 0 1 713.06 663.90
  L 706.80 676.44
  A 0.59 0.54 -35.6 0 0 706.74 676.73
  L 706.93 683.66
  L 704.47 678.93
  Q 704.11 678.25 703.95 679.00
  Q 702.71 684.90 698.62 689.42
  Q 697.47 688.84 697.51 687.54
  Q 694.19 686.83 692.10 684.99
  A 0.28 0.28 0.0 0 1 692.22 684.50
  Q 692.37 684.46 692.48 684.42
  Q 692.70 684.34 692.89 684.49
  Q 694.81 686.00 697.15 685.24
  Q 697.68 685.07 697.96 684.59
  C 701.57 678.36 705.29 672.78 707.58 665.85
  Q 707.77 665.27 707.19 665.07
  L 703.44 663.82
  Q 701.74 663.25 703.53 663.30
  L 708.18 663.43
  Z"
/>
<ellipse fill="#828294" cx="0.00" cy="0.00" transform="translate(668.69,679.12) rotate(-39.8)" rx="1.21" ry="0.59"/>
<path fill="#b68783" d="
  M 706.93 683.66
  Q 705.47 683.56 707.73 685.28
  L 703.55 691.73
  Q 699.54 693.68 696.73 697.97
  A 1.68 1.65 -38.8 0 0 696.56 699.42
  Q 696.64 699.64 697.24 699.93
  C 681.27 715.50 661.74 722.18 639.98 726.74
  L 640.23 724.12
  Q 640.27 723.64 640.73 723.46
  Q 649.53 720.07 658.54 717.27
  Q 662.54 716.04 674.64 709.21
  Q 688.46 701.44 698.62 689.42
  Q 702.71 684.90 703.95 679.00
  Q 704.11 678.25 704.47 678.93
  L 706.93 683.66
  Z"
/>
<ellipse fill="#e3eae3" cx="0.00" cy="0.00" transform="translate(333.06,681.32) rotate(56.4)" rx="2.90" ry="0.56"/>
<path fill="#dbb8b3" d="
  M 697.51 687.54
  Q 697.47 688.84 698.62 689.42
  Q 688.46 701.44 674.64 709.21
  L 674.38 708.06
  C 682.17 702.48 689.44 696.64 695.24 688.89
  Q 695.55 688.48 696.01 688.26
  L 697.51 687.54
  Z"
/>
<path fill="#dbb8b3" d="
  M 703.55 691.73
  L 697.24 699.93
  Q 696.64 699.64 696.56 699.42
  A 1.68 1.65 -38.8 0 1 696.73 697.97
  Q 699.54 693.68 703.55 691.73
  Z"
/>
<ellipse fill="#adadb4" cx="0.00" cy="0.00" transform="translate(352.89,696.61) rotate(38.5)" rx="4.37" ry="1.02"/>
<path fill="#a39ba4" d="
  M 349.26 708.75
  Q 348.87 709.59 349.05 710.17
  Q 349.20 710.67 350.03 710.88
  Q 362.19 713.94 374.30 717.20
  C 377.41 718.04 381.27 719.30 384.25 719.71
  Q 394.56 721.13 404.53 724.13
  C 408.89 725.45 414.26 725.90 418.85 726.13
  C 426.72 726.52 434.22 728.08 442.17 728.47
  C 448.32 728.76 454.82 727.72 461.44 728.51
  Q 467.49 729.23 470.75 729.20
  Q 494.66 729.02 518.58 728.87
  C 526.02 728.82 537.42 728.05 546.88 728.45
  Q 547.35 728.47 547.68 728.82
  C 548.99 730.26 550.84 729.10 552.34 728.76
  A 1.27 1.26 -36.3 0 1 553.28 728.90
  Q 554.47 729.60 555.71 729.03
  A 1.24 1.20 -49.9 0 1 556.51 728.95
  L 559.78 729.70
  C 552.41 729.94 545.36 729.58 537.95 730.85
  A 0.82 0.81 40.5 0 0 538.08 732.47
  C 549.85 732.65 562.59 733.50 574.41 731.75
  Q 581.20 730.74 588.10 730.78
  Q 588.54 730.79 588.91 730.54
  Q 589.69 730.03 590.52 730.56
  Q 590.70 730.67 590.55 730.83
  L 590.33 731.04
  Q 590.06 731.32 590.41 731.47
  Q 592.16 732.27 593.66 731.21
  Q 594.00 730.96 594.42 730.91
  Q 597.72 730.51 600.48 728.62
  Q 602.93 727.88 606.13 728.86
  A 1.93 1.88 -41.2 0 0 607.09 728.91
  C 623.33 725.75 638.78 723.01 654.35 717.16
  C 660.53 714.84 666.66 711.68 672.67 708.58
  Q 673.77 709.31 674.38 708.06
  L 674.64 709.21
  Q 662.54 716.04 658.54 717.27
  Q 649.53 720.07 640.73 723.46
  Q 640.27 723.64 640.23 724.12
  L 639.98 726.74
  C 622.45 731.55 603.10 731.59 585.77 733.11
  C 577.07 733.87 568.42 734.81 559.80 735.04
  Q 507.26 736.43 454.75 733.98
  C 435.46 733.07 416.01 730.94 397.12 727.78
  C 372.62 723.67 348.56 716.56 326.82 704.18
  Q 323.71 702.40 321.24 699.33
  Q 335.49 705.26 349.26 708.75
  Z"
/>
<path fill="#828294" d="
  M 668.46 701.50
  Q 672.68 705.30 673.69 707.31
  Q 674.31 708.56 672.67 708.58
  C 666.66 711.68 660.53 714.84 654.35 717.16
  C 638.78 723.01 623.33 725.75 607.09 728.91
  A 1.93 1.88 -41.2 0 1 606.13 728.86
  Q 602.93 727.88 600.48 728.62
  C 591.31 727.90 580.72 728.57 573.25 728.73
  Q 566.47 728.88 559.78 729.70
  L 556.51 728.95
  A 1.24 1.20 -49.9 0 0 555.71 729.03
  Q 554.47 729.60 553.28 728.90
  A 1.27 1.26 -36.3 0 0 552.34 728.76
  C 550.84 729.10 548.99 730.26 547.68 728.82
  Q 547.35 728.47 546.88 728.45
  C 537.42 728.05 526.02 728.82 518.58 728.87
  Q 494.66 729.02 470.75 729.20
  Q 467.49 729.23 461.44 728.51
  C 454.82 727.72 448.32 728.76 442.17 728.47
  C 434.22 728.08 426.72 726.52 418.85 726.13
  C 414.26 725.90 408.89 725.45 404.53 724.13
  Q 394.56 721.13 384.25 719.71
  C 381.27 719.30 377.41 718.04 374.30 717.20
  Q 362.19 713.94 350.03 710.88
  Q 349.20 710.67 349.05 710.17
  Q 348.87 709.59 349.26 708.75
  Q 390.08 721.24 432.56 724.96
  Q 441.83 725.78 471.81 726.64
  Q 494.69 727.30 531.50 726.87
  C 563.07 726.50 594.97 722.39 626.19 716.19
  Q 648.74 711.71 668.46 701.50
  Z"
/>
<path fill="#adadb4" d="
  M 600.48 728.62
  Q 597.72 730.51 594.42 730.91
  Q 594.00 730.96 593.66 731.21
  Q 592.16 732.27 590.41 731.47
  Q 590.06 731.32 590.33 731.04
  L 590.55 730.83
  Q 590.70 730.67 590.52 730.56
  Q 589.69 730.03 588.91 730.54
  Q 588.54 730.79 588.10 730.78
  Q 581.20 730.74 574.41 731.75
  C 562.59 733.50 549.85 732.65 538.08 732.47
  A 0.82 0.81 40.5 0 1 537.95 730.85
  C 545.36 729.58 552.41 729.94 559.78 729.70
  Q 566.47 728.88 573.25 728.73
  C 580.72 728.57 591.31 727.90 600.48 728.62
  Z"
/>
<path fill="#4e7270" d="
  M 329.49 768.06
  L 333.27 769.01
  Q 333.88 769.16 333.59 769.72
  C 327.76 780.89 319.82 805.40 335.17 813.31
  C 350.85 821.39 368.66 788.23 373.61 777.49
  Q 373.82 777.03 374.32 777.10
  Q 385.69 778.60 397.06 779.45
  Q 488.39 786.26 576.25 783.45
  Q 617.17 782.15 662.50 776.90
  A 0.73 0.73 0.0 0 1 663.24 777.30
  C 667.98 786.84 678.68 810.66 691.68 813.19
  C 708.61 816.50 714.01 797.18 710.31 784.68
  Q 707.84 776.33 703.64 768.56
  Q 704.49 768.61 704.91 768.30
  Q 705.27 768.04 705.72 768.07
  C 737.18 770.41 770.41 774.72 800.38 784.94
  C 806.69 787.10 811.97 789.81 816.32 794.17
  C 826.86 804.77 772.83 817.76 768.26 818.77
  Q 733.49 826.49 698.09 830.28
  C 638.97 836.62 577.50 839.18 518.32 840.27
  C 443.95 841.63 368.75 837.50 295.09 826.94
  Q 259.69 821.87 225.64 810.72
  C 219.84 808.82 203.35 802.56 209.74 794.47
  C 217.35 784.82 242.46 779.06 255.00 776.77
  Q 293.62 769.71 328.81 769.16
  Q 329.32 769.15 329.45 768.87
  Q 329.59 768.57 329.49 768.06
  Z"
/>
<path fill="#ea9636" d="
  M 691.24 801.63
  Q 688.51 798.93 687.10 796.87
  Q 679.85 786.30 674.53 774.63
  A 0.18 0.17 71.8 0 1 674.65 774.38
  L 693.61 770.94
  Q 693.99 770.87 694.14 771.23
  C 696.88 778.15 701.84 789.60 700.42 796.43
  C 699.62 800.25 694.92 805.29 691.24 801.63
  Z"
/>
<path fill="#ea9636" d="
  M 347.54 798.31
  C 344.83 801.39 337.86 806.16 336.57 798.43
  C 335.36 791.19 339.45 779.16 341.91 771.77
  Q 342.06 771.33 342.52 771.41
  L 362.53 774.98
  Q 363.12 775.09 362.85 775.62
  Q 356.66 787.95 347.54 798.31
  Z"
/>
</svg>
